<svg xmlns="http://www.w3.org/2000/svg" xmlns:xlink="http://www.w3.org/1999/xlink" width="408.163" height="448.229" viewBox="0 0 408.163 448.229">
  <defs>
    <linearGradient id="linear-gradient" x1="-0.426" y1="2.413" x2="-0.217" y2="-0.333" gradientUnits="objectBoundingBox">
      <stop offset="0" stop-color="#1ae5ff"/>
      <stop offset="0.259" stop-color="#63e8f8"/>
      <stop offset="0.704" stop-color="#305f72"/>
      <stop offset="1" stop-color="#eaeeee"/>
    </linearGradient>
    <linearGradient id="linear-gradient-2" x1="-21.598" y1="0.5" x2="-20.598" y2="0.5" gradientUnits="objectBoundingBox">
      <stop offset="0" stop-color="#ffe9f9"/>
      <stop offset="1" stop-color="#305f72"/>
    </linearGradient>
    <linearGradient id="linear-gradient-3" y1="0.5" x2="1" y2="0.5" gradientUnits="objectBoundingBox">
      <stop offset="0" stop-color="#305f72"/>
      <stop offset="0.242" stop-color="#305f72"/>
      <stop offset="0.595" stop-color="#bb7f87"/>
      <stop offset="0.94" stop-color="#ec8689"/>
      <stop offset="1" stop-color="#f18c8e"/>
    </linearGradient>
    <linearGradient id="linear-gradient-4" x1="0.379" y1="-0.704" x2="0.707" y2="2.574" gradientUnits="objectBoundingBox">
      <stop offset="0" stop-color="#305f72"/>
      <stop offset="1" stop-color="#fff5e5"/>
    </linearGradient>
    <linearGradient id="linear-gradient-5" x1="0.5" y1="-0.431" x2="0.5" y2="1.431" gradientUnits="objectBoundingBox">
      <stop offset="0" stop-color="#bb7f87"/>
      <stop offset="0.242" stop-color="#ec8689"/>
      <stop offset="0.595" stop-color="#f18c8e"/>
      <stop offset="0.94" stop-color="#fff5e5"/>
      <stop offset="1" stop-color="#305f72"/>
    </linearGradient>
    <linearGradient id="linear-gradient-6" x1="25" y1="0.952" x2="27.188" y2="0.073" gradientUnits="objectBoundingBox">
      <stop offset="0" stop-color="#1ae5ff"/>
      <stop offset="0.259" stop-color="#63e8f8"/>
      <stop offset="0.704" stop-color="#eaeeee"/>
    </linearGradient>
    <linearGradient id="linear-gradient-7" x1="-1.325" y1="0.5" x2="-0.325" y2="0.5" gradientUnits="objectBoundingBox">
      <stop offset="0" stop-color="#5155d4"/>
      <stop offset="1" stop-color="#45f7ff"/>
    </linearGradient>
    <linearGradient id="linear-gradient-8" x1="10.321" y1="1.713" x2="10.116" y2="-0.714" xlink:href="#linear-gradient-6"/>
    <linearGradient id="linear-gradient-9" x1="9.708" y1="3.316" x2="9.487" y2="-1.829" xlink:href="#linear-gradient-6"/>
    <linearGradient id="linear-gradient-10" x1="26.872" y1="2.196" x2="26.504" y2="0.034" xlink:href="#linear-gradient-6"/>
    <linearGradient id="linear-gradient-11" x1="0.39" y1="0.71" x2="1.312" y2="-1.047" gradientUnits="objectBoundingBox">
      <stop offset="0" stop-color="#f18c8e"/>
      <stop offset="1" stop-color="#fff5e5"/>
    </linearGradient>
  </defs>
  <g id="Group_118" data-name="Group 118" transform="translate(-150.191 -88.935)">
    <g id="Group_79" data-name="Group 79" transform="translate(415.41 441.626)">
      <path id="Path_235" data-name="Path 235" d="M379.068,363.586a8.124,8.124,0,0,1,3.684,6.381c-.007,2.359-1.668,3.306-3.709,2.128l-33.6-19.4a8.13,8.13,0,0,1-3.686-6.4c.007-2.344,1.67-3.291,3.709-2.114Z" transform="translate(-341.754 -343.678)" fill="#305f72"/>
    </g>
    <g id="Group_89" data-name="Group 89" transform="translate(213.726 88.935)">
      <path id="Path_240" data-name="Path 240" d="M219.162,90.9c-.152-.087-.3-.172-.457-.255q-.295-.16-.587-.3t-.581-.274c-.192-.087-.383-.168-.573-.244s-.388-.151-.579-.217c-.037-.014-.073-.024-.111-.036l-.043-.015c-.14-.047-.281-.1-.421-.137-.2-.06-.4-.114-.591-.163s-.393-.093-.588-.13q-.316-.062-.627-.1c-.141-.019-.281-.03-.421-.043l-.062-.007-.154-.015c-.227-.015-.451-.024-.673-.022-.252,0-.5.012-.742.036a7.589,7.589,0,0,0-.825.119l-.019.006-.026.007a7.251,7.251,0,0,0-.955.263,6.872,6.872,0,0,0-1.159.536l-9.5,5.519a7.07,7.07,0,0,1,2.111-.8l.029-.008a8.538,8.538,0,0,1,2.412-.122l.066.007a11.59,11.59,0,0,1,2.647.577l.04.014a16.56,16.56,0,0,1,2.889,1.331L469.319,246.729l9.5-5.519Z" transform="translate(-194.778 -88.935)" fill="url(#linear-gradient)"/>
      <path id="Path_241" data-name="Path 241" d="M422.224,225.075c-.007-.231-.017-.462-.032-.694s-.033-.465-.055-.7-.048-.468-.079-.7-.064-.479-.1-.72l0-.019,0-.015c-.036-.228-.076-.46-.119-.689-.047-.249-.1-.5-.152-.748s-.112-.5-.174-.75-.129-.507-.2-.76c-.055-.2-.114-.393-.172-.59l-.014-.047c-.012-.04-.023-.08-.036-.12q-.114-.372-.237-.741t-.255-.73c-.084-.234-.173-.468-.263-.7s-.184-.464-.28-.7c-.075-.179-.151-.354-.229-.532l-.014-.033c-.018-.04-.035-.08-.053-.12q-.154-.349-.316-.694-.177-.378-.364-.752c-.143-.288-.291-.573-.442-.858-.163-.3-.338-.606-.511-.908-.03-.053-.058-.107-.089-.159s-.071-.127-.107-.19q-.507-.862-1.062-1.692-.44-.658-.907-1.292c-.209-.282-.421-.562-.637-.836q-.272-.345-.552-.681c-.181-.22-.366-.435-.552-.648s-.37-.415-.558-.617l-.112-.119-.042-.042c-.143-.152-.285-.3-.431-.453-.2-.2-.4-.4-.6-.6s-.418-.395-.63-.586-.424-.375-.638-.557c-.107-.09-.215-.176-.323-.263l-.073-.061-.241-.2c-.209-.165-.418-.324-.63-.48s-.414-.3-.623-.443-.406-.273-.609-.4-.4-.252-.608-.371l-.141-.083-9.5,5.52a22.156,22.156,0,0,1,2.852,1.977l.072.058A27.586,27.586,0,0,1,404.006,211l.042.043a33.555,33.555,0,0,1,4.487,6.075c.03.053.058.107.089.159a34.708,34.708,0,0,1,1.682,3.328l.018.04a31.85,31.85,0,0,1,1.3,3.515l.014.047a27.186,27.186,0,0,1,.818,3.537l0,.014a21.951,21.951,0,0,1,.281,3.482l-.514,181.27a16.321,16.321,0,0,1-.292,3.086l-.018.089a11.466,11.466,0,0,1-.81,2.523c-.007.015-.012.032-.019.047a8.375,8.375,0,0,1-1.076,1.664c-.132.166-.256.341-.4.493a7.037,7.037,0,0,1-1.566,1.29l9.5-5.52a7.039,7.039,0,0,0,1.566-1.29c.143-.152.264-.325.4-.492a7.843,7.843,0,0,0,.516-.64,8.965,8.965,0,0,0,.541-.98l.019-.046.018-.044c.108-.234.212-.474.306-.724s.173-.5.251-.755q.1-.357.19-.732c.023-.1.042-.21.064-.314l.018-.089c.019-.1.042-.2.06-.3.039-.224.073-.453.1-.685s.053-.457.071-.691.033-.447.043-.677.015-.458.015-.694v-.042l.514-181.27C422.233,225.507,422.231,225.291,422.224,225.075Z" transform="translate(-118.268 -45.85)" fill="url(#linear-gradient-2)"/>
      <g id="Group_86" data-name="Group 86" transform="translate(0 5.52)">
        <path id="Path_242" data-name="Path 242" d="M476.269,248.061c7.917,4.57,14.3,15.637,14.28,24.733l-.514,181.27c-.026,9.1-6.457,12.761-14.372,8.191l-265.3-153.173c-7.915-4.57-14.3-15.637-14.278-24.731l.514-181.271c.026-9.1,6.456-12.76,14.372-8.191Z" transform="translate(-196.081 -92.922)" fill="url(#linear-gradient-3)"/>
      </g>
      <g id="Group_87" data-name="Group 87" transform="translate(18.73 24.935)">
        <path id="Path_243" data-name="Path 243" d="M454.69,242.266c7.277,4.2,13.151,14.375,13.128,22.738l-.472,166.641c-.025,8.362-5.937,11.731-13.214,7.53l-231.4-133.514c-7.277-4.2-13.151-14.374-13.126-22.736l.472-166.641c.024-8.362,5.935-11.731,13.212-7.53Z" transform="translate(-209.609 -106.945)" fill="#f9fbfc"/>
      </g>
      <path id="Path_244" data-name="Path 244" d="M402.021,326.5h0a1.936,1.936,0,0,1-1.937-1.937V266.473a1.936,1.936,0,0,1,1.937-1.936h0a1.936,1.936,0,0,1,1.936,1.936v58.094A1.936,1.936,0,0,1,402.021,326.5Z" transform="translate(-117.642 -21.416)" fill="#f9fbfc"/>
      <g id="Group_88" data-name="Group 88" transform="translate(4.922 118.595)">
        <path id="Path_245" data-name="Path 245" d="M203.748,175.156a9.012,9.012,0,0,1,4.087,7.079c-.007,2.6-1.85,3.651-4.113,2.344a9.006,9.006,0,0,1-4.086-7.079C199.643,174.9,201.486,173.849,203.748,175.156Z" transform="translate(-199.636 -174.594)" fill="#fff"/>
      </g>
    </g>
    <g id="Group_93" data-name="Group 93" transform="translate(291.389 201.157)">
      <path id="Path_246" data-name="Path 246" d="M329.8,201.526a42.422,42.422,0,0,1,1.526,7.152,34.093,34.093,0,0,1,.255,4.178c0,.415-.014.822-.032,1.224,0,.062,0,.125-.007.186-.019.381-.047.755-.08,1.121-.007.072-.014.143-.021.213-.037.368-.08.731-.132,1.084-.073.482-.133.825-.2,1.16-.087.435-.166.77-.251,1.1-.014.057-.028.114-.043.169-.085.318-.174.63-.273.935l-.054.166c-.1.307-.209.609-.324.9-.147.365-.266.641-.39.91-.179.379-.314.642-.456.9-.028.048-.054.1-.082.148q-.214.378-.444.735l-.076.112c-.163.246-.331.487-.507.717s-.365.457-.554.669c-.026.03-.053.061-.08.091-.181.2-.37.4-.562.581l-.111.105q-.291.274-.6.526c-.032.026-.064.05-.1.075-.2.165-.413.321-.627.469-.266.183-.493.323-.723.456-.043.025-.086.051-.13.076q-.336.189-.685.354l-.145.066c-.241.109-.483.212-.732.3-.2.073-.336.111-.465.152-.08-8.839-6.29-19.521-13.954-23.946-7.741-4.469-14.033-.883-14.058,8,.011.019.224.374.637,1-.183-.252-.366-.505-.544-.761-.346-.5-.581-.851-.813-1.2-.043-.064-.084-.127-.127-.192q-.368-.565-.723-1.141c-.05-.082-.1-.163-.151-.245-.24-.395-.478-.791-.709-1.191-.249-.433-.469-.831-.687-1.229-.043-.078-.084-.154-.126-.231q-.322-.6-.63-1.2c-.037-.073-.073-.148-.111-.222-.194-.388-.385-.777-.569-1.169-.248-.525-.436-.941-.62-1.358l-.112-.257q-.27-.623-.525-1.252c-.216-.541-.37-.937-.516-1.336l-.075-.2q-.231-.629-.443-1.259c-.028-.084-.055-.168-.084-.252q-.428-1.29-.777-2.582c-.024-.086-.046-.17-.069-.256-.109-.417-.215-.835-.311-1.25l-.05-.223q-.137-.6-.255-1.189c-.109-.557-.183-.975-.251-1.391-.014-.09-.029-.179-.043-.269-.065-.417-.123-.833-.174-1.247-.061-.53-.1-.921-.134-1.308-.006-.071-.012-.14-.018-.21-.032-.406-.057-.809-.073-1.211,0-.086-.007-.172-.01-.258-.015-.411-.025-.822-.024-1.229a27.13,27.13,0,0,1,.277-3.872,19.11,19.11,0,0,1,1.559-5.372c.147-.312.3-.612.464-.9,3.74-6.713,11.644-8.272,20.773-3,8.193,4.731,15.371,13.809,19.427,23.574.267.642.525,1.288.764,1.936Q329.369,200.085,329.8,201.526Zm-20.727.665c4.724,2.727,8.556.53,8.571-4.885s-3.792-12.023-8.515-14.75-8.556-.543-8.571,4.885,3.8,12.03,8.515,14.75" transform="translate(-239.333 -169.991)" fill="url(#linear-gradient-4)"/>
      <g id="Group_92" data-name="Group 92" transform="translate(0 32.607)">
        <g id="Group_90" data-name="Group 90" transform="translate(0.083)">
          <path id="Path_247" data-name="Path 247" d="M378.663,265.1a7.037,7.037,0,0,1,3.2,5.527l-.039,13.467c-.006,2.038-1.445,2.859-3.22,1.835L255.436,214.812a7.043,7.043,0,0,1-3.2-5.541l.039-13.466c.006-2.027,1.445-2.846,3.219-1.822Z" transform="translate(-252.236 -193.542)" fill="#cfe3ff"/>
        </g>
        <g id="Group_91" data-name="Group 91" transform="translate(0 29.309)">
          <path id="Path_248" data-name="Path 248" d="M378.6,286.265a7.041,7.041,0,0,1,3.2,5.541l-.039,13.466c-.006,2.039-1.445,2.847-3.22,1.822L255.376,235.981a7.02,7.02,0,0,1-3.2-5.527l.039-13.467c.006-2.038,1.445-2.859,3.219-1.834Z" transform="translate(-252.176 -214.711)" fill="#cfe3ff"/>
        </g>
      </g>
    </g>
    <path id="Path_249" data-name="Path 249" d="M314.189,275.892a13.16,13.16,0,0,1,5.966,10.333l-.007,2.433c-.011,3.8-2.7,5.332-6,3.421L282.8,273.98a13.157,13.157,0,0,1-5.974-10.338l.007-2.431c.011-3.791,2.705-5.328,6.013-3.417Z" transform="translate(48.689 64.61)" fill="url(#linear-gradient-5)"/>
    <g id="Group_96" data-name="Group 96" transform="translate(224.925 292.014)">
      <path id="Path_250" data-name="Path 250" d="M225.127,269.39s-10.629,6.122-12.261,34.14c1.36,5.168,9.52,7.889,15.776,3.807S228.413,274.147,225.127,269.39Z" transform="translate(-200.827 -222.629)" fill="url(#linear-gradient-6)"/>
      <path id="Path_251" data-name="Path 251" d="M260.765,298.555s24.342-10.842,27.615-12.683,5.728-8.592,6.956-10.024,6.751-4.7,6.546-3.273-3.068,4.091-3.068,4.091a23.683,23.683,0,0,1,2.455,5.728c.408,2.25-2.66,6.751-4.3,7.979s-5.523,1.637-5.523,1.637-19.843,13.3-23.116,13.5S260.355,303.872,260.765,298.555Z" transform="translate(-182.419 -221.541)" fill="#ff9d6f"/>
      <ellipse id="Ellipse_19" data-name="Ellipse 19" cx="49.204" cy="29.237" rx="49.204" ry="29.237" transform="translate(0 186.675)" opacity="0.21" fill="url(#linear-gradient-7)" style="mix-blend-mode: multiply;isolation: isolate"/>
      <path id="Path_252" data-name="Path 252" d="M225.036,388.908s-.633,4.637.21,6.533c.843,1.686,4.216,2.95,6.533,1.264a67.086,67.086,0,0,0,6.323-5.9s6.743-3.582,7.375-5.478-1.686-3.583-3.583-3.162-7.375,3.794-9.9,3.794S225.879,386.59,225.036,388.908Z" transform="translate(-196.235 -179.293)" fill="#113c7a"/>
      <path id="Path_253" data-name="Path 253" d="M219.955,315.735s5.9,97.34,6.633,100.16,8.386,4.439,9.8-.04c.9-2.844,3.122-92.925,3.122-92.925Z" transform="translate(-198.101 -204.81)" fill="#305f72" opacity="0.9"/>
      <path id="Path_254" data-name="Path 254" d="M239.205,392.991a1.509,1.509,0,0,0-.518,1.134c-.012,1.339.05,4.322.807,5.484a5.668,5.668,0,0,0,7.324,1.369c2.729-1.483,11.131-7.763,12.837-9.153a5.031,5.031,0,0,0,1.7-2.686,1.525,1.525,0,0,0-.863-1.767,7.327,7.327,0,0,0-5.049-.58c-2.783.936-6.286,3.95-10.076,3.787A9.306,9.306,0,0,0,239.205,392.991Z" transform="translate(-190.899 -177.583)" fill="#113c7a"/>
      <path id="Path_255" data-name="Path 255" d="M257.33,317.745c-.425-4.044-5.267-5.359-9.723-3.982-8.508-.458-21.68-.1-22.141,6.507-.684,9.776,3.9,16.751,8.319,21.5,3.267,3.506,5.441,10.214,6.355,13.482.774,25.817,2.485,62.221,3.553,65.706,1.721,5.613,10.189,5.359,10.571-.107C255.977,402.378,257.33,317.745,257.33,317.745Z" transform="translate(-196.008 -205.771)" fill="#305f72"/>
      <path id="Path_256" data-name="Path 256" d="M260.093,338.554c-1,5-15.235,7.491-23.56,6.161s-17.29-5.416-16.993-15.069c0,0-1.264-38.565-1.264-46.152a22.417,22.417,0,0,1,4.771-13.2s4.663-5.329,19.314-2.332c0,0,11.937,2.6,17.431,11.425,0,0,3.794,9.694,2.53,29.926S260.093,338.554,260.093,338.554Z" transform="translate(-198.747 -223.531)" fill="url(#linear-gradient-8)"/>
      <path id="Path_257" data-name="Path 257" d="M227.41,260.16s1.264,7.377,0,10.748c-.212,1.686,7.165,7.377,13.7,5.9,3.792-.843,3.582-2.74,3.582-2.74s-3.161-5.268-2.739-10.326S231.835,259.106,227.41,260.16Z" transform="translate(-195.236 -226.434)" fill="#ff7c40"/>
      <g id="Group_94" data-name="Group 94" transform="translate(22.057 1.482)">
        <path id="Path_258" data-name="Path 258" d="M254.875,254.073a17.387,17.387,0,1,1-17.387-17.387A17.388,17.388,0,0,1,254.875,254.073Z" transform="translate(-220.102 -236.686)" fill="#ff9d6f"/>
        <path id="Path_259" data-name="Path 259" d="M252.248,251.481s.21,17.416-3.583,20.931-9.617-3.291-18.927-5.473c-9.312-2.391,7.548-20.5,7.548-20.5Z" transform="translate(-217.475 -232.936)" fill="#ff9d6f"/>
      </g>
      <g id="Group_95" data-name="Group 95" transform="translate(49.538 51.722)">
        <path id="Path_260" data-name="Path 260" d="M245.838,273.046s3.809-1.088,8.16,5.168,10.609,14.417,13.6,15.778,7.072-1.361,8.7-1.361,5.985,7.618,4.353,11.425-12.242,5.712-14.961,5.712-20.4-10.608-22.85-16.593S236.59,273.319,245.838,273.046Z" transform="translate(-239.951 -272.974)" fill="url(#linear-gradient-9)"/>
        <path id="Path_261" data-name="Path 261" d="M264.44,288.671a5.522,5.522,0,0,1,4.9-3.265c3.809-.271,8.162,7.072,7.889,11.152s-6.257,6.257-7.616,5.168S270.968,297.919,264.44,288.671Z" transform="translate(-230.535 -268.196)" fill="url(#linear-gradient-10)"/>
      </g>
      <path id="Path_262" data-name="Path 262" d="M248.405,239.808s6.255,1.36,8.16,10.879c-.817,4.081-6.529.817-8.7,6.257s-3.537,7.073-3.537,7.073l-1.36-.544s0-4.353-1.9-4.353-2.448,5.168-1.361,7.345a8.039,8.039,0,0,0,3.537,3.263s-2.721,4.626-4.081,5.168-6.255-.543-8.16-1.36-5.44-4.624-8.16-8.976-5.168-11.969-3.536-17.137,5.44-6.528,5.44-6.528a13.822,13.822,0,0,1,5.985-4.353A18.961,18.961,0,0,1,248.405,239.808Z" transform="translate(-198.556 -235.616)" fill="#843837"/>
      <path id="Path_263" data-name="Path 263" d="M248.582,272.1l-4.534-2.539s-11.606-1.088-15.776-3.807l-2.176,3.083a13.259,13.259,0,0,0,10.337,6.347c7.435.725,10.881-2.176,10.881-2.176Z" transform="translate(-195.74 -224.026)" fill="#cfdae4"/>
    </g>
    <g id="Group_101" data-name="Group 101" transform="translate(450.237 184.326)" opacity="0.67">
      <g id="Group_97" data-name="Group 97" transform="translate(0.216 0)">
        <path id="Path_264" data-name="Path 264" d="M398.925,175.7l-.015,5.1a3.9,3.9,0,0,1-5.862,3.366L369.01,170.216a3.9,3.9,0,0,1-1.945-3.386l.015-5.1a3.9,3.9,0,0,1,5.862-3.366l24.038,13.946A3.907,3.907,0,0,1,398.925,175.7Z" transform="translate(-367.065 -157.834)" fill="#305f72"/>
      </g>
      <g id="Group_98" data-name="Group 98" transform="translate(0.144 25.356)">
        <path id="Path_265" data-name="Path 265" d="M474.986,237.891,474.972,243a3.9,3.9,0,0,1-5.855,3.37L368.965,188.545a3.9,3.9,0,0,1-1.952-3.391l.015-5.107a3.9,3.9,0,0,1,5.855-3.37L473.034,234.5A3.906,3.906,0,0,1,474.986,237.891Z" transform="translate(-367.013 -176.148)" fill="#305f72"/>
      </g>
      <g id="Group_99" data-name="Group 99" transform="translate(0 76.101)" opacity="0.53">
        <path id="Path_266" data-name="Path 266" d="M433.591,250.7l-.014,5.107a3.9,3.9,0,0,1-5.855,3.37L368.861,225.2a3.907,3.907,0,0,1-1.952-3.392l.015-5.107a3.9,3.9,0,0,1,5.855-3.37l58.861,33.984A3.9,3.9,0,0,1,433.591,250.7Z" transform="translate(-366.909 -212.8)" fill="#305f72"/>
      </g>
      <g id="Group_100" data-name="Group 100" transform="translate(0.072 50.729)">
        <path id="Path_267" data-name="Path 267" d="M459.4,247.251l-.014,5.107a3.9,3.9,0,0,1-5.855,3.37l-84.622-48.856a3.907,3.907,0,0,1-1.952-3.392l.015-5.107a3.9,3.9,0,0,1,5.855-3.37l84.621,48.856A3.9,3.9,0,0,1,459.4,247.251Z" transform="translate(-366.961 -194.474)" fill="#305f72"/>
      </g>
    </g>
    <g id="Group_107" data-name="Group 107" transform="translate(246.05 237.334)">
      <path id="Path_272" data-name="Path 272" d="M260.963,216.888A20.767,20.767,0,1,1,240.2,196.121,20.768,20.768,0,0,1,260.963,216.888Z" transform="translate(-219.428 -196.121)" fill="url(#linear-gradient-11)"/>
      <path id="Path_273" data-name="Path 273" d="M235.542,223.294l-8.668-6.339,3.154-4.313,4.5,3.288,9.115-11.622,4.2,3.3Z" transform="translate(-216.565 -192.973)" fill="#fff"/>
    </g>
    <g id="Group_108" data-name="Group 108" transform="translate(150.191 118.352)" opacity="0.46">
      <path id="Path_274" data-name="Path 274" d="M239.738,157.958c4.9,2.826,8.858,9.69,8.843,15.315-.017,5.66-4.005,7.933-8.9,5.107l-80.646-46.562c-4.9-2.826-8.859-9.69-8.843-15.35.017-5.625,4.005-7.9,8.9-5.071Z" transform="translate(-150.191 -110.182)" fill="#f19895"/>
    </g>
    <g id="Group_109" data-name="Group 109" transform="translate(483.224 379.46)" opacity="0.46">
      <path id="Path_275" data-name="Path 275" d="M452.975,331.983a13.554,13.554,0,0,1,6.146,10.645c-.011,3.933-2.784,5.514-6.186,3.55l-56.054-32.363a13.561,13.561,0,0,1-6.146-10.669c.011-3.911,2.784-5.491,6.186-3.526Z" transform="translate(-390.735 -298.776)" fill="#305f72"/>
    </g>
  </g>
</svg>
