<svg xmlns="http://www.w3.org/2000/svg" xmlns:xlink="http://www.w3.org/1999/xlink" width="764" height="526" viewBox="0 0 764 526">
  <defs>
    <filter id="Rectangle_308" x="0" y="0" width="764" height="526" filterUnits="userSpaceOnUse">
      <feOffset dy="3" input="SourceAlpha"/>
      <feGaussianBlur stdDeviation="3" result="blur"/>
      <feFlood flood-opacity="0.161"/>
      <feComposite operator="in" in2="blur"/>
      <feComposite in="SourceGraphic"/>
    </filter>
    <clipPath id="clip-path">
      <rect width="644" height="380" fill="none"/>
    </clipPath>
    <clipPath id="clip-path-2">
      <rect width="684" height="14" fill="none"/>
    </clipPath>
    <clipPath id="clip-path-3">
      <rect width="26" height="394" fill="none"/>
    </clipPath>
  </defs>
  <g id="Group_740" data-name="Group 740" transform="translate(-11 -139)">
    <g transform="matrix(1, 0, 0, 1, 11, 139)" filter="url(#Rectangle_308)">
      <rect id="Rectangle_308-2" data-name="Rectangle 308" width="746" height="508" rx="8" transform="translate(9 6)" fill="#fff"/>
    </g>
    <g id="increasing" transform="translate(39.996 155.004)">
      <path id="Path_1497" data-name="Path 1497" d="M24.938,25.832V6.241H21.376V25.832H20.04V10.694H16.478V25.832H15.142V14.256H11.58V25.832h-.89V17.818H7.128v8.014H5.792V20.489H2.23v5.343H.894V.008H0V26.722H26.718v-.89Zm-21.817,0V21.38H4.9v4.452Zm4.9,0V18.708H9.8v7.124Zm4.452,0V15.146h1.781V25.832Zm4.9,0V11.584h1.781V25.832Zm4.9,0V7.132h1.781v18.7Zm0,0" transform="translate(0 -0.011)" fill="#2e5361"/>
      <path id="Path_1498" data-name="Path 1498" d="M49.336,19.142a1.336,1.336,0,0,0,1.336-1.336,1.316,1.316,0,0,0-.163-.627l2.761-3.041a1.323,1.323,0,0,0,1.795-1.6l2.867-2.087A1.336,1.336,0,0,0,59.916,8.83l3.04-2.761a1.318,1.318,0,0,0,.627.161,1.336,1.336,0,0,0,1.336-1.336,1.306,1.306,0,0,0-.061-.377l2.866-2.085a1.336,1.336,0,1,0-.579-1.1,1.3,1.3,0,0,0,.061.377L64.341,3.794a1.336,1.336,0,0,0-1.986,1.619l-3.04,2.76a1.315,1.315,0,0,0-.628-.162A1.336,1.336,0,0,0,57.35,9.347a1.3,1.3,0,0,0,.061.377l-2.866,2.087a1.328,1.328,0,0,0-1.93,1.724l-2.76,3.041a1.336,1.336,0,1,0-.519,2.566ZM68.481.887a.445.445,0,1,1-.445.445A.445.445,0,0,1,68.481.887Zm-4.9,3.562a.445.445,0,1,1-.445.445A.445.445,0,0,1,63.584,4.449ZM58.686,8.9a.445.445,0,1,1-.445.445A.445.445,0,0,1,58.686,8.9Zm-4.9,3.562a.445.445,0,1,1-.445.445A.445.445,0,0,1,53.788,12.464Zm-4.452,4.9a.445.445,0,1,1-.445.445A.445.445,0,0,1,49.336,17.361Zm0,0" transform="translate(-45.325 0)" fill="#2e5361"/>
    </g>
    <g id="Repeat_Grid_2" data-name="Repeat Grid 2" transform="translate(71 220)" clip-path="url(#clip-path)">
      <g transform="translate(-59 -257)">
        <line id="Line_14" data-name="Line 14" x2="642" transform="translate(59.5 257.5)" fill="none" stroke="#a5b1c2" stroke-linecap="round" stroke-width="1"/>
      </g>
      <g transform="translate(-59 -228)">
        <line id="Line_14-2" data-name="Line 14" x2="642" transform="translate(59.5 257.5)" fill="none" stroke="#a5b1c2" stroke-linecap="round" stroke-width="1"/>
      </g>
      <g transform="translate(-59 -199)">
        <line id="Line_14-3" data-name="Line 14" x2="642" transform="translate(59.5 257.5)" fill="none" stroke="#a5b1c2" stroke-linecap="round" stroke-width="1"/>
      </g>
      <g transform="translate(-59 -170)">
        <line id="Line_14-4" data-name="Line 14" x2="642" transform="translate(59.5 257.5)" fill="none" stroke="#a5b1c2" stroke-linecap="round" stroke-width="1"/>
      </g>
      <g transform="translate(-59 -141)">
        <line id="Line_14-5" data-name="Line 14" x2="642" transform="translate(59.5 257.5)" fill="none" stroke="#a5b1c2" stroke-linecap="round" stroke-width="1"/>
      </g>
      <g transform="translate(-59 -112)">
        <line id="Line_14-6" data-name="Line 14" x2="642" transform="translate(59.5 257.5)" fill="none" stroke="#a5b1c2" stroke-linecap="round" stroke-width="1"/>
      </g>
      <g transform="translate(-59 -83)">
        <line id="Line_14-7" data-name="Line 14" x2="642" transform="translate(59.5 257.5)" fill="none" stroke="#a5b1c2" stroke-linecap="round" stroke-width="1"/>
      </g>
      <g transform="translate(-59 -54)">
        <line id="Line_14-8" data-name="Line 14" x2="642" transform="translate(59.5 257.5)" fill="none" stroke="#a5b1c2" stroke-linecap="round" stroke-width="1"/>
      </g>
      <g transform="translate(-59 -25)">
        <line id="Line_14-9" data-name="Line 14" x2="642" transform="translate(59.5 257.5)" fill="none" stroke="#a5b1c2" stroke-linecap="round" stroke-width="1"/>
      </g>
      <g transform="translate(-59 4)">
        <line id="Line_14-10" data-name="Line 14" x2="642" transform="translate(59.5 257.5)" fill="none" stroke="#a5b1c2" stroke-linecap="round" stroke-width="1"/>
      </g>
      <g transform="translate(-59 33)">
        <line id="Line_14-11" data-name="Line 14" x2="642" transform="translate(59.5 257.5)" fill="none" stroke="#a5b1c2" stroke-linecap="round" stroke-width="1"/>
      </g>
      <g transform="translate(-59 62)">
        <line id="Line_14-12" data-name="Line 14" x2="642" transform="translate(59.5 257.5)" fill="none" stroke="#a5b1c2" stroke-linecap="round" stroke-width="1"/>
      </g>
      <g transform="translate(-59 91)">
        <line id="Line_14-13" data-name="Line 14" x2="642" transform="translate(59.5 257.5)" fill="none" stroke="#a5b1c2" stroke-linecap="round" stroke-width="1"/>
      </g>
      <g transform="translate(-59 120)">
        <line id="Line_14-14" data-name="Line 14" x2="642" transform="translate(59.5 257.5)" fill="none" stroke="#a5b1c2" stroke-linecap="round" stroke-width="1"/>
      </g>
    </g>
    <g id="Repeat_Grid_3" data-name="Repeat Grid 3" transform="translate(48 612)" clip-path="url(#clip-path-2)">
      <g transform="translate(-71 -606)">
        <text id="_2021-07-05" data-name="2021-07-05" transform="translate(71 616)" fill="#305f72" font-size="10" font-family="SegoeUI, Segoe UI"><tspan x="0" y="0">2021-07-05</tspan></text>
      </g>
      <g transform="translate(-13 -606)">
        <text id="_2021-07-05-2" data-name="2021-07-05" transform="translate(71 616)" fill="#305f72" font-size="10" font-family="SegoeUI, Segoe UI"><tspan x="0" y="0">2021-07-05</tspan></text>
      </g>
      <g transform="translate(45 -606)">
        <text id="_2021-07-05-3" data-name="2021-07-05" transform="translate(71 616)" fill="#305f72" font-size="10" font-family="SegoeUI, Segoe UI"><tspan x="0" y="0">2021-07-05</tspan></text>
      </g>
      <g transform="translate(103 -606)">
        <text id="_2021-07-05-4" data-name="2021-07-05" transform="translate(71 616)" fill="#305f72" font-size="10" font-family="SegoeUI, Segoe UI"><tspan x="0" y="0">2021-07-05</tspan></text>
      </g>
      <g transform="translate(161 -606)">
        <text id="_2021-07-05-5" data-name="2021-07-05" transform="translate(71 616)" fill="#305f72" font-size="10" font-family="SegoeUI, Segoe UI"><tspan x="0" y="0">2021-07-05</tspan></text>
      </g>
      <g transform="translate(219 -606)">
        <text id="_2021-07-05-6" data-name="2021-07-05" transform="translate(71 616)" fill="#305f72" font-size="10" font-family="SegoeUI, Segoe UI"><tspan x="0" y="0">2021-07-05</tspan></text>
      </g>
      <g transform="translate(277 -606)">
        <text id="_2021-07-05-7" data-name="2021-07-05" transform="translate(71 616)" fill="#305f72" font-size="10" font-family="SegoeUI, Segoe UI"><tspan x="0" y="0">2021-07-05</tspan></text>
      </g>
      <g transform="translate(335 -606)">
        <text id="_2021-07-05-8" data-name="2021-07-05" transform="translate(71 616)" fill="#305f72" font-size="10" font-family="SegoeUI, Segoe UI"><tspan x="0" y="0">2021-07-05</tspan></text>
      </g>
      <g transform="translate(393 -606)">
        <text id="_2021-07-05-9" data-name="2021-07-05" transform="translate(71 616)" fill="#305f72" font-size="10" font-family="SegoeUI, Segoe UI"><tspan x="0" y="0">2021-07-05</tspan></text>
      </g>
      <g transform="translate(451 -606)">
        <text id="_2021-07-05-10" data-name="2021-07-05" transform="translate(71 616)" fill="#305f72" font-size="10" font-family="SegoeUI, Segoe UI"><tspan x="0" y="0">2021-07-05</tspan></text>
      </g>
      <g transform="translate(509 -606)">
        <text id="_2021-07-05-11" data-name="2021-07-05" transform="translate(71 616)" fill="#305f72" font-size="10" font-family="SegoeUI, Segoe UI"><tspan x="0" y="0">2021-07-05</tspan></text>
      </g>
      <g transform="translate(567 -606)">
        <text id="_2021-07-05-12" data-name="2021-07-05" transform="translate(71 616)" fill="#305f72" font-size="10" font-family="SegoeUI, Segoe UI"><tspan x="0" y="0">2021-07-05</tspan></text>
      </g>
    </g>
    <g id="Repeat_Grid_4" data-name="Repeat Grid 4" transform="translate(39 211)" clip-path="url(#clip-path-3)">
      <g transform="translate(-36 -212)">
        <text id="_5000" data-name="5000" transform="translate(49 224)" fill="#305f72" font-size="12" font-family="SegoeUI, Segoe UI"><tspan x="-12.938" y="0">5000</tspan></text>
      </g>
      <g transform="translate(-36 -183)">
        <text id="_4000" data-name="4000" transform="translate(49 224)" fill="#305f72" font-size="12" font-family="SegoeUI, Segoe UI"><tspan x="-12.938" y="0">4000</tspan></text>
      </g>
      <g transform="translate(-36 -154)">
        <text id="_3000" data-name="3000" transform="translate(49 224)" fill="#305f72" font-size="12" font-family="SegoeUI, Segoe UI"><tspan x="-12.938" y="0">3000</tspan></text>
      </g>
      <g transform="translate(-36 -125)">
        <text id="_2000" data-name="2000" transform="translate(49 224)" fill="#305f72" font-size="12" font-family="SegoeUI, Segoe UI"><tspan x="-12.938" y="0">2000</tspan></text>
      </g>
      <g transform="translate(-36 -96)">
        <text id="_1500" data-name="1500" transform="translate(49 224)" fill="#305f72" font-size="12" font-family="SegoeUI, Segoe UI"><tspan x="-12.938" y="0">1500</tspan></text>
      </g>
      <g transform="translate(-36 -67)">
        <text id="_1000" data-name="1000" transform="translate(49 224)" fill="#305f72" font-size="12" font-family="SegoeUI, Segoe UI"><tspan x="-12.938" y="0">1000</tspan></text>
      </g>
      <g transform="translate(-36 -38)">
        <text id="_600" data-name="600" transform="translate(49 224)" fill="#305f72" font-size="12" font-family="SegoeUI, Segoe UI"><tspan x="-9.703" y="0">600</tspan></text>
      </g>
      <g transform="translate(-36 -9)">
        <text id="_400" data-name="400" transform="translate(49 224)" fill="#305f72" font-size="12" font-family="SegoeUI, Segoe UI"><tspan x="-9.703" y="0">400</tspan></text>
      </g>
      <g transform="translate(-36 20)">
        <text id="_300" data-name="300" transform="translate(49 224)" fill="#305f72" font-size="12" font-family="SegoeUI, Segoe UI"><tspan x="-9.703" y="0">300</tspan></text>
      </g>
      <g transform="translate(-36 49)">
        <text id="_200" data-name="200" transform="translate(49 224)" fill="#305f72" font-size="12" font-family="SegoeUI, Segoe UI"><tspan x="-9.703" y="0">200</tspan></text>
      </g>
      <g transform="translate(-36 78)">
        <text id="_150" data-name="150" transform="translate(49 224)" fill="#305f72" font-size="12" font-family="SegoeUI, Segoe UI"><tspan x="-9.703" y="0">150</tspan></text>
      </g>
      <g transform="translate(-36 107)">
        <text id="_60" data-name="60" transform="translate(49 224)" fill="#305f72" font-size="12" font-family="SegoeUI, Segoe UI"><tspan x="-6.469" y="0">60</tspan></text>
      </g>
      <g transform="translate(-36 136)">
        <text id="_40" data-name="40" transform="translate(49 224)" fill="#305f72" font-size="12" font-family="SegoeUI, Segoe UI"><tspan x="-6.469" y="0">40</tspan></text>
      </g>
      <g transform="translate(-36 165)">
        <text id="_20" data-name="20" transform="translate(49 224)" fill="#305f72" font-size="12" font-family="SegoeUI, Segoe UI"><tspan x="-6.469" y="0">20</tspan></text>
      </g>
    </g>
    <g id="Group_625" data-name="Group 625">
      <g id="Ellipse_45" data-name="Ellipse 45" transform="translate(68 593)" fill="#f19895" stroke="#f19895" stroke-width="1">
        <circle cx="4" cy="4" r="4" stroke="none"/>
        <circle cx="4" cy="4" r="3.5" fill="none"/>
      </g>
      <g id="Ellipse_46" data-name="Ellipse 46" transform="translate(128 535)" fill="#f19895" stroke="#f19895" stroke-width="1">
        <circle cx="4" cy="4" r="4" stroke="none"/>
        <circle cx="4" cy="4" r="3.5" fill="none"/>
      </g>
      <g id="Ellipse_47" data-name="Ellipse 47" transform="translate(184 522)" fill="#f19895" stroke="#f19895" stroke-width="1">
        <circle cx="4" cy="4" r="4" stroke="none"/>
        <circle cx="4" cy="4" r="3.5" fill="none"/>
      </g>
      <g id="Ellipse_48" data-name="Ellipse 48" transform="translate(243.5 491)" fill="#f19895" stroke="#f19895" stroke-width="1">
        <circle cx="4" cy="4" r="4" stroke="none"/>
        <circle cx="4" cy="4" r="3.5" fill="none"/>
      </g>
      <g id="Ellipse_49" data-name="Ellipse 49" transform="translate(302 535.096)" fill="#f19895" stroke="#f19895" stroke-width="1">
        <circle cx="4" cy="4" r="4" stroke="none"/>
        <circle cx="4" cy="4" r="3.5" fill="none"/>
      </g>
      <g id="Ellipse_50" data-name="Ellipse 50" transform="translate(356.374 535.096)" fill="#f19895" stroke="#f19895" stroke-width="1">
        <circle cx="4" cy="4" r="4" stroke="none"/>
        <circle cx="4" cy="4" r="3.5" fill="none"/>
      </g>
      <g id="Ellipse_51" data-name="Ellipse 51" transform="translate(421.374 477.096)" fill="#f19895" stroke="#f19895" stroke-width="1">
        <circle cx="4" cy="4" r="4" stroke="none"/>
        <circle cx="4" cy="4" r="3.5" fill="none"/>
      </g>
      <g id="Ellipse_54" data-name="Ellipse 54" transform="translate(589.829 508.038)" fill="#f19895" stroke="#f19895" stroke-width="1">
        <circle cx="4" cy="4" r="4" stroke="none"/>
        <circle cx="4" cy="4" r="3.5" fill="none"/>
      </g>
      <g id="Ellipse_55" data-name="Ellipse 55" transform="translate(643.829 508.038)" fill="#f19895" stroke="#f19895" stroke-width="1">
        <circle cx="4" cy="4" r="4" stroke="none"/>
        <circle cx="4" cy="4" r="3.5" fill="none"/>
      </g>
      <g id="Ellipse_56" data-name="Ellipse 56" transform="translate(696.835 508.038)" fill="#f19895" stroke="#f19895" stroke-width="1">
        <circle cx="4" cy="4" r="4" stroke="none"/>
        <circle cx="4" cy="4" r="3.5" fill="none"/>
      </g>
      <g id="Ellipse_52" data-name="Ellipse 52" transform="translate(475.374 333.096)" fill="#f19895" stroke="#f19895" stroke-width="1">
        <circle cx="4" cy="4" r="4" stroke="none"/>
        <circle cx="4" cy="4" r="3.5" fill="none"/>
      </g>
      <g id="Ellipse_53" data-name="Ellipse 53" transform="translate(529.486 477.533)" fill="#f19895" stroke="#f19895" stroke-width="1">
        <circle cx="4" cy="4" r="4" stroke="none"/>
        <circle cx="4" cy="4" r="3.5" fill="none"/>
      </g>
      <line id="Line_15" data-name="Line 15" y1="59" x2="60" transform="translate(72.5 538.5)" fill="none" stroke="#f19895" stroke-width="1"/>
      <line id="Line_16" data-name="Line 16" y1="13" x2="56" transform="translate(132.5 526.5)" fill="none" stroke="#f19895" stroke-width="1"/>
      <line id="Line_17" data-name="Line 17" y1="31" x2="59.5" transform="translate(188.5 495.5)" fill="none" stroke="#f19895" stroke-width="1"/>
      <path id="Path_1499" data-name="Path 1499" d="M.626-43.959,59.5,0" transform="translate(247 539.596)" fill="#f19895" stroke="#f19895" stroke-width="1"/>
      <path id="Path_1500" data-name="Path 1500" d="M5.525,0H59.5" transform="translate(301.374 539.596)" fill="#f19895" stroke="#f19895" stroke-width="1"/>
      <path id="Path_1501" data-name="Path 1501" d="M-5.343,57.384,59.5,0" transform="translate(366.374 481.596)" fill="#f19895" stroke="#f19895" stroke-width="1"/>
      <path id="Path_1504" data-name="Path 1504" d="M-.914-30.99,59.5,0" transform="translate(534.829 512.538)" fill="#f19895" stroke="#f19895" stroke-width="1"/>
      <path id="Path_1505" data-name="Path 1505" d="M-18.006,0H35" transform="translate(612.829 512.538)" fill="#f19895" stroke="#f19895" stroke-width="1"/>
      <path id="Path_1506" data-name="Path 1506" d="M-18.006,0H35" transform="translate(665.835 512.538)" fill="#f19895" stroke="#f19895" stroke-width="1"/>
      <path id="Path_1502" data-name="Path 1502" d="M5.387,143.437,59.5,0" transform="translate(420.374 337.596)" fill="#f19895" stroke="#f19895" stroke-width="1"/>
      <path id="Path_1503" data-name="Path 1503" d="M5.387,0,59.5,143.437" transform="translate(474.486 337.596)" fill="#f19895" stroke="#f19895" stroke-width="1"/>
    </g>
  </g>
</svg>
