<svg xmlns="http://www.w3.org/2000/svg" xmlns:xlink="http://www.w3.org/1999/xlink" width="654.849" height="707.5" viewBox="0 0 654.849 707.5">
  <defs>
    <linearGradient id="linear-gradient" x1="0.05" y1="0.328" x2="0.612" y2="0.679" gradientUnits="objectBoundingBox">
      <stop offset="0.004" stop-color="#305f72" stop-opacity="0.698"/>
      <stop offset="1" stop-color="#305f72"/>
    </linearGradient>
    <clipPath id="clip-path">
      <path id="SVGID" d="M1637.186,1568.934c.122,38.582,1.837,77.837,2.171,116.69-20.294,8.535-44.374,18.079-57.4-6.04-18.113-33.532-84.493-26.956-113.941-18.074-36.447,10.994-117.436,27.434-117.567-28.544-.109-46.6,18.3-75.359-37.538-86.5s-86.616-41.482-79.14-93.066c7.867-54.284-58.649-102.5-23.352-147.107,61.5-77.728,165.072,38.588,184.274,114.582s54.553,46.592,107.142,45.521c71.8-1.461,36.017,77.009,69.549,98.168C1597.671,1581.154,1611.136,1572.128,1637.186,1568.934Z" transform="translate(-1200.018 -1280.603)" fill="none"/>
    </clipPath>
    <linearGradient id="linear-gradient-2" x1="-0.53" y1="0.359" x2="0.274" y2="0.63" gradientUnits="objectBoundingBox">
      <stop offset="0" stop-color="#ffc444"/>
      <stop offset="0.996" stop-color="#f36f56"/>
    </linearGradient>
    <clipPath id="clip-path-2">
      <path id="SVGID-2" data-name="SVGID" d="M1095.035,1203.637c-16.182,29.247-31.444,59.674-47.58,89.214-18.956-2.1-41.2-5.037-40.888-28.784.438-33.015-52.565-56.039-78.595-61.739-32.217-7.056-100.435-28.778-76.921-71.192,19.575-35.309,45.638-49.3,8.082-81.287s-48.044-67.926-20.627-103.806c28.852-37.758-1.143-102.3,44.383-121.165,79.326-32.873,108.631,98.831,91.105,164.435s21.627,58.267,61.872,79.641c54.944,29.18-5.231,73.465,11.218,103.62C1059.979,1196.215,1073.976,1195.065,1095.035,1203.637Z" transform="translate(-823.076 -819.696)" fill="none"/>
    </clipPath>
    <clipPath id="clip-path-3">
      <path id="SVGID-3" data-name="SVGID" d="M1538.6,1292.478q37.152-9.72,74.016-21.165c.449.324,2.663-55.311-26.5-81.142-57.538-49.926-28.421-103.646-21.807-134.3,11.206-43.437-2.488-93.219-47.361-78.66-43.836,13.111-60.786-78.244-60.894-150.05,2.78-35.262-34.428-73.568-68-79.556-34.365-6.947-65.1,18.425-67.651,88.381-6.574,81.4,56.9,123.043,82.844,160.625,25.521,36.889-20.277,74.067,23.24,104.445,36.785,27.2,81.3,44.759,70.194,85.25C1485.1,1226.4,1492.35,1257.342,1538.6,1292.478Z" transform="translate(-1319.931 -746.497)" fill="none"/>
    </clipPath>
    <linearGradient id="linear-gradient-3" x1="1.719" y1="-0.439" x2="2.34" y2="0.508" gradientUnits="objectBoundingBox">
      <stop offset="0" stop-color="#305f72" stop-opacity="0.698"/>
      <stop offset="0.996" stop-color="#305f72"/>
    </linearGradient>
    <linearGradient id="linear-gradient-4" x1="1" y1="0.5" x2="0" y2="0.5" gradientUnits="objectBoundingBox">
      <stop offset="0.494" stop-color="#ebeff2"/>
      <stop offset="1" stop-color="#fff"/>
    </linearGradient>
    <linearGradient id="linear-gradient-5" x1="1" y1="0.5" x2="0" y2="0.5" gradientUnits="objectBoundingBox">
      <stop offset="0" stop-color="#ff9085"/>
      <stop offset="1" stop-color="#fb6fbb"/>
    </linearGradient>
    <linearGradient id="linear-gradient-6" x1="-5.703" y1="-2.317" x2="-5.883" y2="2.72" gradientUnits="objectBoundingBox">
      <stop offset="0" stop-color="#311944"/>
      <stop offset="1" stop-color="#a03976"/>
    </linearGradient>
    <linearGradient id="linear-gradient-7" x1="-23.048" y1="1.249" x2="-22.926" y2="-4.967" xlink:href="#linear-gradient-2"/>
    <linearGradient id="linear-gradient-8" x1="-9.313" y1="-1.424" x2="-9.599" y2="1.528" xlink:href="#linear-gradient-6"/>
    <linearGradient id="linear-gradient-9" x1="-16.174" y1="1.435" x2="-16.088" y2="-2.947" xlink:href="#linear-gradient-2"/>
    <linearGradient id="linear-gradient-10" x1="-2.615" y1="0.505" x2="-3.617" y2="0.505" gradientUnits="objectBoundingBox">
      <stop offset="0" stop-color="#305f72"/>
      <stop offset="0.996" stop-color="#3e4177"/>
    </linearGradient>
    <linearGradient id="linear-gradient-11" x1="-2.804" y1="0.505" x2="-3.878" y2="0.505" gradientUnits="objectBoundingBox">
      <stop offset="0" stop-color="#305f72"/>
      <stop offset="0.996" stop-color="#070404"/>
    </linearGradient>
    <linearGradient id="linear-gradient-12" x1="1" y1="0.5" x2="0" y2="0.5" gradientUnits="objectBoundingBox">
      <stop offset="0" stop-color="#070404"/>
      <stop offset="0.996" stop-color="#305f72"/>
    </linearGradient>
    <linearGradient id="linear-gradient-13" x1="1.357" y1="1.609" x2="-0.258" y2="-0.329" gradientUnits="objectBoundingBox">
      <stop offset="0" stop-color="#f19895"/>
      <stop offset="0.996" stop-color="#ec8689"/>
    </linearGradient>
    <linearGradient id="linear-gradient-14" x1="0.522" y1="1.099" x2="0.778" y2="4.328" xlink:href="#linear-gradient-2"/>
    <linearGradient id="linear-gradient-15" x1="-18.589" y1="7.788" x2="-17.839" y2="6.113" gradientUnits="objectBoundingBox">
      <stop offset="0" stop-color="#444b8c"/>
      <stop offset="0.996" stop-color="#3e4177"/>
    </linearGradient>
    <linearGradient id="linear-gradient-16" x1="0.56" y1="-0.008" x2="0.062" y2="4.489" xlink:href="#linear-gradient-2"/>
    <linearGradient id="linear-gradient-17" x1="1" y1="0.5" x2="0" y2="0.5" xlink:href="#linear-gradient-2"/>
    <linearGradient id="linear-gradient-18" x1="0.423" y1="-0.006" x2="1.84" y2="6.781" xlink:href="#linear-gradient-2"/>
    <linearGradient id="linear-gradient-19" x1="2.779" y1="2.147" x2="-0.488" y2="-0.229" xlink:href="#linear-gradient-13"/>
    <linearGradient id="linear-gradient-21" x1="1" y1="0.5" x2="0" y2="0.5" gradientUnits="objectBoundingBox">
      <stop offset="0" stop-color="#444b8c"/>
      <stop offset="0.996" stop-color="#26264f"/>
    </linearGradient>
    <linearGradient id="linear-gradient-22" x1="1" y1="0.5" x2="0" y2="0.5" xlink:href="#linear-gradient-11"/>
    <linearGradient id="linear-gradient-23" x1="9.605" y1="2.114" x2="10.109" y2="1.571" xlink:href="#linear-gradient-21"/>
    <linearGradient id="linear-gradient-24" x1="10.936" y1="1.37" x2="10.212" y2="2.137" xlink:href="#linear-gradient-21"/>
    <linearGradient id="linear-gradient-25" x1="100.129" y1="-29.607" x2="99.924" y2="-31.338" xlink:href="#linear-gradient-2"/>
    <linearGradient id="linear-gradient-26" x1="0.965" y1="-0.814" x2="0.409" y2="0.733" gradientUnits="objectBoundingBox">
      <stop offset="0" stop-color="#305f72" stop-opacity="0.6"/>
      <stop offset="0.996" stop-color="#305f72"/>
    </linearGradient>
    <linearGradient id="linear-gradient-27" x1="0.515" y1="1.007" x2="0.493" y2="-0.03" gradientUnits="objectBoundingBox">
      <stop offset="0" stop-color="#305f72"/>
      <stop offset="0.996" stop-color="#305f72"/>
    </linearGradient>
    <linearGradient id="linear-gradient-28" x1="3.045" y1="-3.101" x2="3.121" y2="-2.125" xlink:href="#linear-gradient-3"/>
    <linearGradient id="linear-gradient-29" x1="3.063" y1="-3.42" x2="3.163" y2="-1.22" gradientUnits="objectBoundingBox">
      <stop offset="0.005" stop-color="#305f72" stop-opacity="0.698"/>
      <stop offset="0.996" stop-color="#305f72"/>
    </linearGradient>
    <linearGradient id="linear-gradient-30" x1="0.661" y1="1.014" x2="0.439" y2="-0.022" xlink:href="#linear-gradient-2"/>
    <linearGradient id="linear-gradient-31" x1="-129.467" y1="7.654" x2="-130.401" y2="4.592" xlink:href="#linear-gradient-2"/>
    <linearGradient id="linear-gradient-32" x1="-0.74" y1="0.831" x2="0.434" y2="0.511" xlink:href="#linear-gradient-6"/>
    <linearGradient id="linear-gradient-33" x1="-1.229" y1="0.823" x2="0.728" y2="0.477" xlink:href="#linear-gradient-6"/>
    <linearGradient id="linear-gradient-34" x1="0.505" y1="0.117" x2="0.487" y2="1.536" xlink:href="#linear-gradient-5"/>
    <filter id="Ellipse_35" x="44.714" y="623.032" width="565.759" height="84.468" filterUnits="userSpaceOnUse">
      <feOffset dy="3" input="SourceAlpha"/>
      <feGaussianBlur stdDeviation="7.5" result="blur"/>
      <feFlood/>
      <feComposite operator="in" in2="blur"/>
      <feComposite in="SourceGraphic"/>
    </filter>
  </defs>
  <g id="Group_270" data-name="Group 270" transform="translate(0)">
    <g id="Group_269" data-name="Group 269" transform="translate(0)">
      <path id="Path_828" data-name="Path 828" d="M703.684,482.352c167.639-4.843,312.849,114.152,334.788,270.288,23.987,170.714-108.034,324.315-270.48,348.916-202.056,30.6-398.038-146.425-380.441-338.472C400.809,618.395,533.276,487.275,703.684,482.352Z" transform="translate(-386.449 -482.209)" fill="#f4f7fa"/>
      <g id="Group_252" data-name="Group 252" transform="translate(32.568 59.428)">
        <g id="Group_242" data-name="Group 242" transform="translate(0 120.099)">
          <g id="Group_241" data-name="Group 241">
            <path id="Path_829" data-name="Path 829" d="M1636.252,1684.954c5.064-2.42,13.948-12.149,15.219-15.64,8.453-23.233,27.107-65.7,17.509-90.01-1.639-4.152-21.849-1.87-25.776-4.886-13.238-1.673-17.935-1.433-29.738-9.205-34.848-22.949,2.249-99.7-69.905-98.709-52.851.725-87.909,30.523-107.178-45.567s-122.772-192.295-184.295-114.607c-35.308,44.585,31.23,92.827,23.352,147.109-7.487,51.582,23.3,81.918,79.144,93.065s37.4,39.868,37.54,86.5c.172,56.02,80.987,39.425,117.643,28.581C1539.285,1652.857,1620.341,1650.536,1636.252,1684.954Z" transform="translate(-1241.684 -1280.636)" fill="url(#linear-gradient)"/>
            <g id="Group_240" data-name="Group 240" transform="translate(0.003)">
              <g id="Group_239" data-name="Group 239" clip-path="url(#clip-path)">
                <g id="Group_238" data-name="Group 238" transform="translate(23.007 -14.627)">
                  <path id="Path_830" data-name="Path 830" d="M1687.339,1613.61l.109-.793a450.577,450.577,0,0,1-133.993-40.152,466.627,466.627,0,0,1-112.517-76.278c-66.326-60.528-117.654-140.866-148.438-232.329l-.759.255c30.826,91.592,82.23,172.046,148.656,232.665a467.448,467.448,0,0,0,112.71,76.408A451.381,451.381,0,0,0,1687.339,1613.61Z" transform="translate(-1291.742 -1253.151)" fill="#fcfdfe"/>
                  <path id="Path_831" data-name="Path 831" d="M1745.509,2753.014c40.531-29.816,116.374-55.165,169.066-56.507l-.021-.8c-24.572.625-56.69,6.928-88.118,17.293-32.593,10.749-61.5,24.73-81.4,39.369Z" transform="translate(-1620.796 -2362.88)" fill="#fcfdfe"/>
                  <path id="Path_832" data-name="Path 832" d="M1517.9,2234.243l.324-.732c-25.086-11.115-43.586-34.476-54.987-69.433-8.352-25.611-12.77-56.738-13.131-92.517l-.8.008c.362,35.861,4.793,67.068,13.171,92.757C1473.955,2199.509,1492.6,2223.032,1517.9,2234.243Z" transform="translate(-1157.953 -1879.08)" fill="#fcfdfe"/>
                  <path id="Path_833" data-name="Path 833" d="M2565.964,2204.232l.361-.714c-46.055-23.3-99.843-15.926-136.855-5.632l.214.772C2496.493,2180.076,2540.667,2191.433,2565.964,2204.232Z" transform="translate(-2426.447 -1969.409)" fill="#fcfdfe"/>
                  <path id="Path_834" data-name="Path 834" d="M2752.712,1359.571l.741-.3c-9.5-23.144-21.481-72.553,5.047-143.434l-.751-.281c-8.948,23.912-14.41,48.771-15.793,71.889C2740.365,1314.042,2743.983,1338.31,2752.712,1359.571Z" transform="translate(-2688.806 -1215.552)" fill="#fcfdfe"/>
                </g>
              </g>
            </g>
          </g>
        </g>
        <g id="Group_247" data-name="Group 247" transform="translate(252.139 16.459)">
          <g id="Group_246" data-name="Group 246">
            <path id="Path_835" data-name="Path 835" d="M1066.448,1273.463c4.853.305,15.679-3.309,18.113-5.415,16.2-14.014,48.226-38.281,51.217-60.724.511-3.833-15.744-10.632-17.444-14.57-9.311-6.85-12.967-8.649-18.62-19.51-16.689-32.065,43.757-74.493-11.259-104.18-40.3-21.745-79.4-13.985-61.88-79.69s-11.786-197.3-91.111-164.463c-45.525,18.844-15.525,83.416-44.383,121.167-27.423,35.874-16.926,71.814,20.63,103.806s11.48,45.943-8.083,81.292c-23.5,42.463,44.652,64,76.964,71.252C1006.613,1208.272,1068.926,1240.708,1066.448,1273.463Z" transform="translate(-875.649 -819.727)" fill="url(#linear-gradient-2)"/>
            <g id="Group_245" data-name="Group 245" transform="translate(0.003)">
              <g id="Group_244" data-name="Group 244" clip-path="url(#clip-path-2)">
                <g id="Group_243" data-name="Group 243" transform="translate(-7.904 -11.573)">
                  <path id="Path_836" data-name="Path 836" d="M1152.143,1199.465l.482-.64a390.277,390.277,0,0,1-84.443-86.892,404.223,404.223,0,0,1-52.958-105.168c-24.653-73.771-29.6-156.2-14.318-238.39l-.787-.146c-15.312,82.319-10.351,164.891,14.346,238.79a404.969,404.969,0,0,0,53.063,105.375A391.064,391.064,0,0,0,1152.143,1199.465Z" transform="translate(-910.614 -768.229)" fill="#fcfdfe"/>
                  <path id="Path_837" data-name="Path 837" d="M1436.006,2299.23l.372-.709c-40.553-21.271-108.836-34.117-152.208-28.637l.1.794C1327.512,2265.214,1395.578,2278.023,1436.006,2299.23Z" transform="translate(-1260.197 -1931.243)" fill="#fcfdfe"/>
                  <path id="Path_838" data-name="Path 838" d="M1041.391,2077.018l.64-.482c-14.285-18.979-18.427-44.446-12.311-75.691,4.482-22.9,14.267-48.309,29.084-75.531l-.7-.383c-14.855,27.293-24.668,52.783-29.166,75.76C1022.772,2032.168,1026.963,2057.849,1041.391,2077.018Z" transform="translate(-824.61 -1664.836)" fill="#fcfdfe"/>
                  <path id="Path_839" data-name="Path 839" d="M1717.473,1567.477l.663-.447c-25.029-37.076-68.855-54.187-101.214-62.012l-.188.778C1648.955,1513.587,1692.588,1530.614,1717.473,1567.477Z" transform="translate(-1616.735 -1339.343)" fill="#fcfdfe"/>
                  <path id="Path_840" data-name="Path 840" d="M1415.1,966.846c2.572-21.513,14.345-63.939,64.3-106.372l-.518-.611c-16.863,14.322-31.485,30.833-42.287,47.748-12.429,19.464-19.929,39.362-22.294,59.14Z" transform="translate(-1332.49 -839.258)" fill="#fcfdfe"/>
                </g>
              </g>
            </g>
          </g>
        </g>
        <g id="Group_251" data-name="Group 251" transform="translate(119.47 0)">
          <g id="Group_250" data-name="Group 250">
            <g id="Group_249" data-name="Group 249" clip-path="url(#clip-path-3)">
              <path id="Path_841" data-name="Path 841" d="M1538.6,1292.478q37.152-9.72,74.016-21.165c.449.324,2.663-55.311-26.5-81.142-57.538-49.926-28.421-103.646-21.807-134.3,11.051-43.389-2.158-87.6-44.635-83.584-47.214,3.529-64.33-73.374-63.62-145.126,2.78-35.262-34.428-73.568-68-79.556-34.365-6.947-65.1,18.425-67.651,88.381-6.574,81.4,56.9,123.043,82.844,160.625,25.521,36.889-20.277,74.067,23.24,104.445,36.785,27.2,81.3,44.759,70.194,85.25C1485.1,1226.4,1492.35,1257.342,1538.6,1292.478Z" transform="translate(-1319.931 -746.497)" fill="url(#linear-gradient-3)"/>
              <g id="Group_248" data-name="Group 248" transform="translate(-8.888 -19.289)">
                <path id="Path_842" data-name="Path 842" d="M1679.229,1225.5l.794-.1c-.046-.486-36.781-112.888-90.647-220.393-7.733-17.516-15.976-35.128-23.948-52.16-21.349-45.611-43.425-92.774-56.725-140.7-14.869-53.574-17.136-103.055-6.932-151.27l-.784-.166c-10.232,48.344-7.961,97.949,6.943,151.65,13.319,47.987,35.409,95.182,56.771,140.823,7.969,17.028,16.211,34.636,23.949,52.161C1642.553,1112.926,1679.1,1224.856,1679.229,1225.5Z" transform="translate(-1417.529 -660.714)" fill="#fcfdfe"/>
                <path id="Path_843" data-name="Path 843" d="M2287.857,1193.124l.534-.6c-31.513-28.091-70.272-68.676-91.094-90.479-15.756-16.5-16.764-17.464-17.31-17.315l.1.386-.105.377c.754.374,7.8,7.757,16.731,17.1C2217.549,1124.412,2256.321,1165.011,2287.857,1193.124Z" transform="translate(-2179.987 -989.379)" fill="#fcfdfe"/>
                <path id="Path_844" data-name="Path 844" d="M2033.911,1031.869c1.868-36.479,14.043-61.664,23.927-76.367,10.858-16.15,21.75-23.939,22.83-24.147a.291.291,0,0,1-.173-.036l.369-.71c-.229-.119-.508-.045-1.109.3-2.952,1.689-13.742,10.218-24.242,26.685-13.23,20.748-20.976,46.418-22.4,74.235Z" transform="translate(-1939.432 -869.879)" fill="#fcfdfe"/>
                <path id="Path_845" data-name="Path 845" d="M1558.07,1911.474l.846-.2c-7.631-32.832-3.828-69.47,11.3-108.9a311.359,311.359,0,0,1,31.8-60.839c.913-1.369,1.287-1.934,1.385-2.156l-.795-.35c-.071.162-.619.984-1.313,2.025a312.13,312.13,0,0,0-31.884,61.009C1554.213,1841.661,1550.4,1878.471,1558.07,1911.474Z" transform="translate(-1354.288 -1496.564)" fill="#beb8f2"/>
                <path id="Path_846" data-name="Path 846" d="M1920.2,2210.152l.63-.494c-35.53-45.391-99.461-41.741-99.979-41.54l-.255.406.317.362.083-.385.082.383C1821.679,2168.788,1884.72,2164.819,1920.2,2210.152Zm-99.118-42.049-.085.39Z" transform="translate(-1731.619 -1829.051)" fill="#fcfdfe"/>
                <path id="Path_847" data-name="Path 847" d="M1410.411,2813.314l.859-.127c-2.131-14.431.321-39.7,24.108-78.125,1.273-2.057,1.273-2.057,1.209-2.306l-.842.217.421-.108-.415-.11c-.059.15-.547.938-1.111,1.85C1410.714,2773.255,1408.258,2798.74,1410.411,2813.314Z" transform="translate(-1155.02 -2266.837)" fill="#beb8f2"/>
                <path id="Path_848" data-name="Path 848" d="M1635.24,2810.773l.8-.332c-4.4-10.646-19.328-30.812-69.849-46.255-.7-.215-1.153-.352-1.316-.414l-.31.812c.169.065.64.209,1.372.434C1616.12,2780.356,1630.9,2800.268,1635.24,2810.773Z" transform="translate(-1389.255 -2290.88)" fill="#beb8f2"/>
              </g>
            </g>
          </g>
        </g>
      </g>
      <g id="Group_255" data-name="Group 255" transform="translate(4.753 272.48)">
        <g id="Group_254" data-name="Group 254">
          <path id="Path_849" data-name="Path 849" d="M614.5,3031.011l598.817-5.177v15.316c0,4.157-2.612,7.691-6.149,8.321l-169.328,30.158a23.433,23.433,0,0,1-6.075.282l-410.758-34.385c-3.667-.307-6.507-3.852-6.507-8.124Z" transform="translate(-614.502 -2726.357)" fill="#bfc8d6"/>
          <g id="Group_253" data-name="Group 253" transform="translate(204.149)">
            <path id="Path_850" data-name="Path 850" d="M560.2,1974.1l380.6,28.017c6.81.5,12.348-4.826,12.348-11.9V1706.8a12.591,12.591,0,0,0-12.348-12.809H560.2c-5.611,0-10.147,5.184-10.147,11.579v256.206C550.048,1968.168,554.584,1973.687,560.2,1974.1Z" transform="translate(-543.979 -1693.989)" fill="#bfc8d6"/>
            <path id="Path_851" data-name="Path 851" d="M587.183,1974.1l380.6,28.017c6.811.5,12.348-4.826,12.348-11.9V1706.8a12.591,12.591,0,0,0-12.348-12.809h-380.6c-5.611,0-10.148,5.184-10.148,11.579v256.206C577.036,1968.168,581.572,1973.687,587.183,1974.1Z" transform="translate(-577.036 -1693.989)" fill="#fff"/>
            <path id="Path_852" data-name="Path 852" d="M659.036,2012.761l354.485,24.336a9.456,9.456,0,0,0,10.046-9.767V1779.2a10.315,10.315,0,0,0-10.046-10.5l-354.485-1.528c-4.628-.02-8.373,4.228-8.373,9.488v226.005C650.664,2007.922,654.408,2012.443,659.036,2012.761Z" transform="translate(-637.032 -1750.713)" fill="#d8dee8"/>
            <path id="Path_853" data-name="Path 853" d="M1499.045,1712.037a4.4,4.4,0,1,0,4.378-4.765A4.6,4.6,0,0,0,1499.045,1712.037Z" transform="translate(-1312.041 -1704.285)" fill="#fff"/>
            <path id="Path_854" data-name="Path 854" d="M964.337,2002.116l-378.671-27.875-1.927-.142a10.215,10.215,0,0,1-6.7-3.392c27.25-1.491,44.175-11.162,55.093-21.154,21.926-20.066,18.123-39.854,41.767-53.047,29.491-16.456,52.679,4.4,75.058-16.177,13.567-12.473,6.906-21.774,23.6-40.413,18.49-20.644,30.529-13.7,49.111-32.285,23.5-23.493,11.745-41.772,31.984-58.639,24.553-20.462,51.031-1.523,74.4-21.147,10.081-8.464,15.612-20.769,18.5-33.856h17.782a12.591,12.591,0,0,1,12.348,12.809v283.419C976.683,1997.29,971.147,2002.617,964.337,2002.116Z" transform="translate(-573.592 -1693.988)" fill="#fff" opacity="0.48" style="mix-blend-mode: soft-light;isolation: isolate"/>
          </g>
          <path id="Path_855" data-name="Path 855" d="M810.867,2932.511,1213.318,2962l-175.477,31.253a23.454,23.454,0,0,1-6.075.283L614.5,2958.608l189.963-25.9A30.653,30.653,0,0,1,810.867,2932.511Z" transform="translate(-614.502 -2653.953)" fill="url(#linear-gradient-4)"/>
          <path id="Path_856" data-name="Path 856" d="M1314.409,2979.177l-335.053-24.918-103.7,14.023,332.167,26.636Z" transform="translate(-774.317 -2670.875)" fill="#d8dee8"/>
        </g>
      </g>
      <g id="Group_259" data-name="Group 259" transform="translate(152.293 203.06)">
        <path id="Path_857" data-name="Path 857" d="M737.114,1413.063c-.121-11.645,8.125-21.2,18.552-21.334l371.362-4.735c.4,0,.79,0,1.187.015a22.618,22.618,0,0,1,17.979,10.151,23.288,23.288,0,0,1,3.827,13.121l-.023,16.907h0l-.352,263.233a22.937,22.937,0,0,1-.352,4.635c-.078.372-.1.737-.2,1.1a21.454,21.454,0,0,1-1.524,4.143,21.042,21.042,0,0,1-13.939,11.1,22.324,22.324,0,0,1-6.863.594l-282.108-20.008h0l-86.115-6.164c-10.348-.735-18.726-10.665-18.844-22.138l-2.435-235.51h0Z" transform="translate(-726.315 -1386.603)" fill="#b7c0ce"/>
        <g id="Group_258" data-name="Group 258" transform="translate(0 0)">
          <path id="Path_858" data-name="Path 858" d="M792.47,1389.968l373.362-4.7a23.174,23.174,0,0,1,23.39,23.358l-.311,280.815a21.4,21.4,0,0,1-23.224,21.607l-370.236-26.2c-10.407-.736-18.9-10.651-19.019-22.156l-2.676-251.33C773.632,1399.679,781.985,1390.1,792.47,1389.968Z" transform="translate(-773.755 -1385.261)" fill="#fff"/>
          <path id="Path_859" data-name="Path 859" d="M1193.031,1729.561a14.58,14.58,0,0,0,15.778-14.712l.25-280.283a15.794,15.794,0,0,0-15.891-15.9l-373.29,3.987c-7.131.076-12.844,6.608-12.76,14.557l2.637,251.757c.082,7.833,5.888,14.6,12.969,15.086Z" transform="translate(-801.096 -1411.156)" fill="#f4f7fa"/>
          <path id="Path_860" data-name="Path 860" d="M792.47,1389.968l373.362-4.7a23.174,23.174,0,0,1,23.39,23.358l-.019,16.948-415.286.945-.161-15.157C773.632,1399.679,781.985,1390.1,792.47,1389.968Z" transform="translate(-773.755 -1385.261)" fill="#d8dee8"/>
          <path id="Path_861" data-name="Path 861" d="M891.179,1453.653a7.556,7.556,0,0,0,7.557,7.615,7.688,7.688,0,0,0,7.588-7.723,7.554,7.554,0,0,0-7.586-7.618A7.691,7.691,0,0,0,891.179,1453.653Z" transform="translate(-517.261 -1432.285)" fill="#fff"/>
          <path id="Path_862" data-name="Path 862" d="M1009.108,1454.674a7.487,7.487,0,0,0,7.46,7.563,7.6,7.6,0,0,0,7.48-7.67,7.485,7.485,0,0,0-7.489-7.567A7.606,7.606,0,0,0,1009.108,1454.674Z" transform="translate(-661.502 -1433.117)" fill="#fff"/>
          <path id="Path_863" data-name="Path 863" d="M1125.445,1455.681a7.42,7.42,0,0,0,7.366,7.513,7.522,7.522,0,0,0,7.374-7.618,7.416,7.416,0,0,0-7.394-7.516A7.524,7.524,0,0,0,1125.445,1455.681Z" transform="translate(-803.798 -1433.939)" fill="#fff"/>
          <path id="Path_864" data-name="Path 864" d="M896.524,1891.625l364.052,17.869.052-155.269-365.514-3.4Z" transform="translate(-872.449 -1668.622)" fill="url(#linear-gradient-5)"/>
          <path id="Path_865" data-name="Path 865" d="M895.473,2447.547l363.8,20.341,0-11.831-363.912-19.244Z" transform="translate(-871.156 -2200.362)" fill="#d8dee8"/>
          <path id="Path_866" data-name="Path 866" d="M895.516,2564.592l363.527,23.025,0-11.812-363.638-21.931Z" transform="translate(-870.935 -2291.1)" fill="#d8dee8"/>
          <g id="Group_256" data-name="Group 256" transform="translate(22.429 58.736)">
            <path id="Path_867" data-name="Path 867" d="M895.075,1648.456l199.44.535,0,11.964-199.377-1.145Z" transform="translate(-728.758 -1648.01)" fill="#d8dee8"/>
            <path id="Path_868" data-name="Path 868" d="M2451.29,1646.527l.1,10.906-20.282-.117-.109-10.843Z" transform="translate(-2431.003 -1646.473)" fill="#d8dee8"/>
          </g>
          <g id="Group_257" data-name="Group 257" transform="translate(108.348)" opacity="0.3" style="mix-blend-mode: soft-light;isolation: isolate">
            <path id="Path_869" data-name="Path 869" d="M827.6,1534.784c42.984-62.975,118.8-40.281,167.049-110.863a154.551,154.551,0,0,0,18.8-38.1l44.037-.555a23.174,23.174,0,0,1,23.39,23.358l-.311,280.816a21.4,21.4,0,0,1-23.224,21.606l-283.585-20.067a224.3,224.3,0,0,0,22.182-40.042C820.582,1593.288,801.88,1572.469,827.6,1534.784Z" transform="translate(-773.755 -1385.261)" fill="#fff"/>
          </g>
          <path id="Path_870" data-name="Path 870" d="M1637.23,1928.864l-.392-103.129c-.025-6.641-5.351-11.093-9.923-8.308l-80.833,49.236c-5,3.045-4.937,12.547.1,15.895l81.219,53.965C1631.98,1939.564,1637.255,1935.464,1637.23,1928.864Z" transform="translate(-1394.593 -1719.596)" fill="#fff"/>
        </g>
      </g>
      <g id="Group_262" data-name="Group 262" transform="translate(10.558 255.205)">
        <path id="Path_871" data-name="Path 871" d="M2452.806,3271.728s20.268,9.271,20.6,10.743-13.047-.525-18.51-.327-9.952-1.425-9.452-3.737,2.426-8.127,2.426-8.127Z" transform="translate(-2292.092 -2898.561)" fill="url(#linear-gradient-6)"/>
        <path id="Path_872" data-name="Path 872" d="M2541.165,3239.614l-1.256,9.133s-3.216,1.135-5.37-.222l-.9-10.021Z" transform="translate(-2379.69 -2873.93)" fill="url(#linear-gradient-7)"/>
        <path id="Path_873" data-name="Path 873" d="M2896.721,3243.4l-2.369,3.782a4.521,4.521,0,0,0-.549,3.542c.819,3.152,2.452,9.3,3.167,10.9.973,2.183,14.1,3.51,14.1,3.51s1.175-1.645-1.547-3.642-4.473-2.313-5.428-5.253-1.577-11.248-1.577-11.248Z" transform="translate(-2830.802 -2877.723)" fill="url(#linear-gradient-8)"/>
        <path id="Path_874" data-name="Path 874" d="M2925.429,3196.85c-.864.686-5.111,13.476-5.111,13.476s-1.37,1.742-3.957-.841-1.17-1.158-1.17-1.158l.517-12.588Z" transform="translate(-2849.663 -2840.781)" fill="url(#linear-gradient-9)"/>
        <path id="Path_875" data-name="Path 875" d="M2527.386,2383.287c1.005,27.253.978,56.86-.666,88.485-1.852,35.612-5.478,68.522-10.021,98.352-1.662.049-3.409.053-5.233,0q-1.847-.056-3.579-.182a226.775,226.775,0,0,1-7.461-24.062,231.37,231.37,0,0,1-5.181-28.166c-3.833-30.875.753-33.557-2.364-56.438-2.76-20.265-6.752-21.066-11.371-49.84-5.012-31.22-1.214-35.893.632-37.58C2490,2366.674,2508.4,2371.619,2527.386,2383.287Z" transform="translate(-2354.307 -2201.112)" fill="url(#linear-gradient-10)"/>
        <path id="Path_876" data-name="Path 876" d="M2496.829,2373.869c7.493-6.85,24.584-2.651,42.618,7.874-20.831,22.4-23.131,36.955-20.662,46.41,2.789,10.685,11.34,13.781,11.279,25.458-.075,14.35-13.034,18.12-12.8,33.305.158,10.041,5.849,9.95,7.163,22.355,1.555,14.678-5.892,19.716-3.51,30.579,1.025,4.673,3.967,10.783,12.373,17.091-.618,4.457-1.251,8.869-1.91,13.2-1.662.048-3.409.053-5.233,0-1.232-.036-2.426-.1-3.579-.182a226.46,226.46,0,0,1-7.461-24.062,231.377,231.377,0,0,1-5.181-28.166c-3.833-30.875.753-33.556-2.363-56.438-2.76-20.265-6.752-21.066-11.371-49.84C2491.185,2380.228,2494.982,2375.556,2496.829,2373.869Z" transform="translate(-2368.993 -2201.126)" opacity="0.3" fill="url(#linear-gradient-11)" style="mix-blend-mode: multiply;isolation: isolate"/>
        <path id="Path_877" data-name="Path 877" d="M2638.517,2372.611a611.914,611.914,0,0,0-84.317,179.342,10.936,10.936,0,0,1-5.991.914,11.147,11.147,0,0,1-6.775-3.682,176.22,176.22,0,0,1-1.451-43.456,149.716,149.716,0,0,1,6.189-32.645c4.977-15.918,8.374-16.805,14.858-33.644,6.73-17.478,5.12-21.847,11.577-43.724a288.988,288.988,0,0,1,14.4-38.351Z" transform="translate(-2478.307 -2190.923)" fill="url(#linear-gradient-12)"/>
        <path id="Path_878" data-name="Path 878" d="M2409.357,1931.827c-.17,6.359-10.622,11.96-19.037,13.678-19.676,4.016-42.489-10.281-53.315-26.1-2.127-3.105-4.489-6.871-5.058-6.579-1.288.659,10.541,20.095,15.67,42.2,2.625,11.308,1.937,16.6,6.842,24.133,1.112,1.705,2.481,3.481,2,5.5-1.206,5.053-12.761,6.365-20.777,7.275a184.788,184.788,0,0,1-24.156.754c-12.49-.182-13.474-.831-16.324.568-8.687,4.263-8.1,14.479-14.636,15.84-5.49,1.145-11.059-4.986-12.824-6.93-9.177-10.1-8.687-22.284-10.316-34.57-3.784-28.564-19.3-59.858-34.483-79.669-4.6-6.008-7.805-9.169-8.005-14.752-.587-16.392,25.38-34.486,47-36.565,5.927-.57,16.538-.39,26.487.548,3.976.374,8.209.926,12.759,1.722,11.034,1.93,18.715,3.274,26.544,6.855,31.566,14.443,24.677,46.594,58.844,68.823C2398.319,1922.2,2409.535,1925.168,2409.357,1931.827Z" transform="translate(-2176.219 -1787.014)" fill="url(#linear-gradient-13)"/>
        <path id="Path_879" data-name="Path 879" d="M2727.317,1762.107s-1.355,7.566-4.476,12.952c-2.82,4.868-14.481,6.612-16.911,7.46s3.666,5.078,10.146,6.612,25.441,2.537,29.154.5-2.411-2.665-6.871-5.009-5.952-11.876-4.571-15.927S2727.317,1762.107,2727.317,1762.107Z" transform="translate(-2623.518 -1729.515)" fill="url(#linear-gradient-14)"/>
        <g id="Group_260" data-name="Group 260" transform="translate(98.377 15.681)">
          <path id="Path_880" data-name="Path 880" d="M2732.087,1701.62c4.7-3.361,6.006-12.452,3.394-14.492-.747-.583-1.459-.315-12.075,3.943-5.271,2.115-7.864,3.24-8.718,5.569a7.384,7.384,0,0,0,.139,4.853,18.562,18.562,0,0,0,2.159,3.6c1.14,1.641,1.064,1.586,1.413,2.063a25.89,25.89,0,0,0,5.427,5.311,18.106,18.106,0,0,1,.864-3.007,15.93,15.93,0,0,1,1.921-3.573C2728.462,1703.414,2730.561,1702.712,2732.087,1701.62Z" transform="translate(-2714.342 -1686.899)" fill="url(#linear-gradient-15)"/>
          <path id="Path_881" data-name="Path 881" d="M2734.683,1752.388a9.769,9.769,0,0,0,8.777,3.963c5.1-.557,5.351-12.068,1.975-14.361a6.467,6.467,0,0,0-5.079-.431c-1.037.34-1.372.792-3.076,1.314-1.572.482-2.028.325-2.491.75-.578.531-.963,1.789.186,5.1a2.786,2.786,0,0,0-3.021-.846,1.75,1.75,0,0,0-.653.694C2730.643,1749.914,2731.914,1751.536,2734.683,1752.388Z" transform="translate(-2728.992 -1729.022)" fill="url(#linear-gradient-16)"/>
        </g>
        <path id="Path_882" data-name="Path 882" d="M2283.737,2144.841c-14.266-3.213-19.951-3.11-27.006-8.793-11.745-9.464-13.51-23.868-20.335-23.692-3.225.083-5.846,3.378-7.71,6.6l5.155,8.074c.007-.1.03-.182.087-.211.569-.292,2.931,3.474,5.057,6.579,10.828,15.815,33.64,30.112,53.317,26.1,5.642-1.151,12.185-4.052,15.945-7.753A243.581,243.581,0,0,0,2283.737,2144.841Z" transform="translate(-2078.2 -2001.005)" opacity="0.3" fill="url(#linear-gradient-17)" style="mix-blend-mode: multiply;isolation: isolate"/>
        <path id="Path_883" data-name="Path 883" d="M2143.881,2315.324s8.05-.8,12.847-2.853,7.9.895,7.455,2.935-8.333,4.88-11.485,4.981S2143.881,2315.324,2143.881,2315.324Z" transform="translate(-1915.108 -2155.585)" fill="url(#linear-gradient-18)"/>
        <path id="Path_884" data-name="Path 884" d="M2879.818,2015.357c-8.643.771-28.1,1.123-41.858-11.607-22.908-21.191-11.543-61.53-3.57-78.878,9.142-19.89,23.693-31.024,32.535-37.79,10.971-8.394,17.667-13.518,25.723-12.37,20.834,2.967,35.264,45.668,23.826,57.894-3.744,4-7.452,1.736-18.289,5.187-3.528,1.124-29.867,9.513-34.452,28.911-3.209,13.577,4.962,29.475,19.506,40.153Z" transform="translate(-2824.419 -1816.675)" fill="url(#linear-gradient-19)"/>
        <path id="Path_885" data-name="Path 885" d="M2589.706,2149.29c-9.785-6.184-11.233-12.451-22.19-16.685-14.234-5.5-21.074,1.486-28.131-4.156-8.4-6.715-.964-18.412-7.248-38.712-1.067-3.446-9.169-29.616-27.76-32.951-8.669-1.555-20.119,1.767-24.531,9.113-3.453,5.749-.236,10.034-4.434,16.381s-9.213,4.792-14.561,10.082c-8.492,8.4-9.794,26.114-2.126,36.132,3.575,4.673,8.223,6.52,16.967,10a82.361,82.361,0,0,0,14.581,4.283c-10.707-10.276-16.263-23.528-13.526-35.1,2.858-12.092,14.168-19.906,23.138-24.348,8.976,16.891,16.312,36.465,18.754,54.9,1.628,12.286,1.138,24.466,10.315,34.57,1.766,1.944,7.335,8.074,12.824,6.93,6.538-1.363,5.949-11.578,14.636-15.841,2.851-1.4,3.834-.751,16.324-.569a184.738,184.738,0,0,0,24.156-.754c7.129-.809,17.039-1.944,20-5.737C2604.019,2156.475,2595.431,2152.908,2589.706,2149.29Z" transform="translate(-2437.43 -1957.642)" opacity="0.3" fill="url(#linear-gradient-17)" style="mix-blend-mode: multiply;isolation: isolate"/>
        <g id="Group_261" data-name="Group 261" transform="translate(59.596 0)">
          <path id="Path_886" data-name="Path 886" d="M2087.064,2282l-1.007-2.961a8.78,8.78,0,0,1,5.892-11.238l190.462-58.018,5.8,19.67-189.5,58.368A9.4,9.4,0,0,1,2087.064,2282Z" transform="translate(-2085.587 -2076.527)" fill="url(#linear-gradient-21)"/>
          <path id="Path_887" data-name="Path 887" d="M1460.158,1697.125c-14.562-57.531-71.626-92.2-128.06-75.953-57.47,16.547-90.373,78.816-72.911,137.514,17.051,57.319,75.525,88.241,130.089,70.557C1442.9,1811.864,1474.39,1753.347,1460.158,1697.125Zm-184.4,56.483c-14.431-49.123,13.1-101.152,61.095-115.113,47.266-13.75,95.286,15.111,107.678,63.415,12.154,47.377-14.386,96.76-59.664,111.308C1338.925,1827.981,1289.91,1801.764,1275.763,1753.609Z" transform="translate(-1074.071 -1617.162)" fill="url(#linear-gradient-22)"/>
          <path id="Path_888" data-name="Path 888" d="M2282.411,2209.783l-24.285,7.4c-1.667,7.745-4.906,12.184-8.166,14.887-12.266,10.167-28.646-.922-51.5,11-11.467,5.983-9.288,9.79-20.036,13.965-17.77,6.9-25.9-2.659-41.63,3.623-15.906,6.354-17.475,20.086-26.5,19.593-3.86-.21-8.828-3.018-14.366-13.662l-3.984,1.214a8.78,8.78,0,0,0-5.892,11.238l1.007,2.961a9.4,9.4,0,0,0,11.651,5.819l189.5-58.367Z" transform="translate(-2085.587 -2076.527)" fill="#d8dee8" opacity="0.3" style="mix-blend-mode: multiply;isolation: isolate"/>
          <path id="Path_889" data-name="Path 889" d="M1443.753,1719.067c-14.562-57.53-71.626-92.2-128.061-75.952-57.47,16.547-90.373,78.816-72.912,137.513,17.052,57.32,75.526,88.242,130.09,70.557C1426.492,1833.806,1457.984,1775.289,1443.753,1719.067Zm-184.395,56.483c-14.431-49.123,13.1-101.152,61.094-115.113,47.266-13.751,95.287,15.111,107.678,63.416,12.154,47.377-14.386,96.76-59.663,111.308C1322.52,1849.924,1273.5,1823.706,1259.358,1775.551Z" transform="translate(-1053.976 -1634.17)" fill="url(#linear-gradient-23)"/>
          <path id="Path_890" data-name="Path 890" d="M1457.319,1742.619c-13.8-54.267-67.672-86.872-120.857-71.5-54.105,15.635-85.105,74.271-68.726,129.575,16.016,54.079,71.141,83.348,122.663,66.7C1441.079,1851.016,1470.824,1795.72,1457.319,1742.619Zm-178.879,54.794c-14.432-49.123,13.1-101.152,61.094-115.113,47.266-13.75,95.286,15.112,107.678,63.416,12.154,47.377-14.386,96.76-59.663,111.308C1341.6,1871.786,1292.586,1845.568,1278.44,1797.413Z" transform="translate(-1073.058 -1656.032)" fill="url(#linear-gradient-24)"/>
        </g>
        <path id="Path_891" data-name="Path 891" d="M2916,2466.415l1.925-4.784a9.852,9.852,0,0,0,5.721-1.657,7.44,7.44,0,0,1,4.623-1.106c.725.2,3.462.082.342,1.57s-3.1,2.594-1.794,3.816,6.248,3.849,8.029,3.975-1.44,2.881-3.235,3.233a11.085,11.085,0,0,1-8.385-1.349C2921.894,2469.329,2916,2466.415,2916,2466.415Z" transform="translate(-2859.865 -2269.555)" fill="url(#linear-gradient-25)"/>
      </g>
      <g id="Group_265" data-name="Group 265" transform="translate(428.589 129.051)">
        <g id="Group_263" data-name="Group 263" transform="translate(8.223 23.708)">
          <path id="Path_892" data-name="Path 892" d="M634.326,1294.174c36.935,24.33,79.364,25.675,97.224,3.788l.015.008.064-.1a34.152,34.152,0,0,0,2.074-2.8,36.073,36.073,0,0,0,2.178-3.8l20.71-32.17,4.3-6.687L718.175,1225.2a124.112,124.112,0,0,0-24.506-21.087,122.854,122.854,0,0,0-32.642-15.32l-42.757-27.229-23.7,41.252c-.088.136-.193.264-.281.4a33.7,33.7,0,0,0-2.418,4.309,36.756,36.756,0,0,0-2.563,7.344C583.5,1239.5,601.379,1272.463,634.326,1294.174Z" transform="translate(-588.226 -1161.561)" fill="url(#linear-gradient-26)"/>
          <path id="Path_893" data-name="Path 893" d="M652.536,1478.208a105.91,105.91,0,0,0,32.542,15.523c11.8,3.165,28.078,5.185,40.13,2.265,20.041-4.856,27.62-19.218,37.882-34.964,3.955-6.068,8.309-11.9,11.935-18.176-12.023.331-26.726,6.567-37.18,12.176-9.032,4.846-17.275,11.731-27.169,14.809-21.814,6.786-47.819-3.358-61.937-20.618-8.627-10.547-8.252-26.028-18.686-35.416-6.745-6.068-16.1-8.51-22.339-15.189,1.118,1.2-.575,11.185-.488,13.241a56.236,56.236,0,0,0,2.329,13.928c3.2,10.581,9.4,20.07,16.538,28.411A140.374,140.374,0,0,0,652.536,1478.208Z" transform="translate(-606.63 -1345.314)" opacity="0.3" fill="url(#linear-gradient-27)" style="mix-blend-mode: multiply;isolation: isolate"/>
        </g>
        <path id="Path_894" data-name="Path 894" d="M422.434,1059.944l135.032,8.914,75,112.64,4.053,2.345-1.013,1.75h0l-140.388-9.237-77.952-117.123h0l1.013-1.75Z" transform="translate(-417.169 -1057.178)" fill="url(#linear-gradient-28)"/>
        <path id="Path_895" data-name="Path 895" d="M556.066,1065.4l78.009,117.156-140.446-9.271L415.62,1056.129Z" transform="translate(-414.374 -1056.129)" fill="url(#linear-gradient-29)"/>
        <g id="Group_264" data-name="Group 264" transform="translate(110.385 52.328)">
          <path id="Path_896" data-name="Path 896" d="M645.526,1433.877a2,2,0,0,0,2-1.878l4.3-69.411a2,2,0,0,0-.551-1.508l-68.5-71.621a2,2,0,0,0-2.893,2.768l67.9,70.988-4.247,68.536a2,2,0,0,0,1.875,2.122C645.444,1433.876,645.485,1433.877,645.526,1433.877Z" transform="translate(-579.322 -1288.841)" fill="url(#linear-gradient-30)"/>
        </g>
        <path id="Path_897" data-name="Path 897" d="M587.823,1903.524l-1.593-2.436a3.016,3.016,0,0,0-5.281.438l-1.022,2.714a4.319,4.319,0,0,0-.187,2.085l1.476,22.175c.032.477,1.913.739,4.453.57s4.369-.678,4.338-1.155l-1.481-22.239A4.436,4.436,0,0,0,587.823,1903.524Z" transform="translate(-407.201 -1710.035)" fill="url(#linear-gradient-31)"/>
      </g>
      <g id="Group_268" data-name="Group 268" transform="translate(209.157 28.502)">
        <g id="Group_266" data-name="Group 266" transform="translate(0 78.909)">
          <path id="Path_898" data-name="Path 898" d="M2083.8,1009.662a5.294,5.294,0,0,1-4.779-9.411c.124-.063.251-.116.379-.167a30.477,30.477,0,0,1-1.008-4.337c-.137,0-.276,0-.416-.015a5.522,5.522,0,0,1-4.855-5.62,4.677,4.677,0,0,1,5.062-4.736c.143.013.283.035.423.06a27.963,27.963,0,0,1,1.173-4.142c-.126-.074-.251-.15-.374-.236a5.522,5.522,0,0,1-1.673-7.235,4.677,4.677,0,0,1,6.811-1.292c.12.084.233.175.344.267a24.746,24.746,0,0,1,3.038-2.836c-.077-.127-.152-.255-.221-.389-1.319-2.6-3.043-5.438-.624-6.619,5.6-2.732,8-.393,9.316,2.206.068.134.127.271.184.408a24.772,24.772,0,0,1,4.082-.779c-.009-.145-.015-.289-.012-.436.057-2.86-.792-4.408,1.957-4.461,5.994-.117,8.016,2.485,7.959,5.345,0,.149-.015.3-.03.441a27.845,27.845,0,0,1,4.036,1.5c.063-.128.127-.254.2-.378a4.677,4.677,0,0,1,6.811-1.292,5.521,5.521,0,0,1,1.673,7.236c-.073.121-.152.233-.233.345a30.523,30.523,0,0,1,2.907,3.373c.115-.073.234-.144.358-.207a5.294,5.294,0,0,1,4.778,9.411c-.125.063-.252.116-.379.167a30.436,30.436,0,0,1,1.008,4.337c.138,0,.276,0,.416.015a5.523,5.523,0,0,1,4.854,5.62,4.677,4.677,0,0,1-5.062,4.736c-.143-.013-.284-.035-.423-.06a27.907,27.907,0,0,1-1.172,4.142c.126.074.251.15.374.236a5.521,5.521,0,0,1,1.673,7.235c-1.419,2.355-6.115,3.449-8.458,1.807-.12-.084,1.415-.69,1.3-.783a24.751,24.751,0,0,1-3.039,2.836c.077.127.153.255.221.39a4.889,4.889,0,1,1-8.692,4.413c-.068-.135-.127-.271-.184-.408a24.7,24.7,0,0,1-4.082.779c.009.145.015.289.013.436a4.677,4.677,0,0,1-5.062,4.736,5.522,5.522,0,0,1-4.854-5.62c0-.15.015-.3.031-.441a27.9,27.9,0,0,1-4.036-1.5c-.062.128-.127.254-.2.377a4.677,4.677,0,0,1-6.811,1.292,5.522,5.522,0,0,1-1.673-7.236c.073-.12.152-.233.233-.344a30.444,30.444,0,0,1-2.907-3.373C2084.04,1009.528,2083.922,1009.6,2083.8,1009.662Zm29.919.38c8.714-4.424,11.9-15.66,7.1-25.1s-15.738-13.5-24.453-9.074-11.895,15.66-7.1,25.1S2105,1014.467,2113.718,1010.042Z" transform="translate(-2070.538 -959.888)" fill="url(#linear-gradient-32)"/>
          <path id="Path_899" data-name="Path 899" d="M2191.586,1014.295a5.522,5.522,0,0,1-4.854-5.62,4.676,4.676,0,0,1,5.062-4.736c.143.013.283.035.423.06a28,28,0,0,1,1.172-4.142c-.126-.073-.251-.15-.374-.236-2.343-1.641-5.241-5.607-3.588-7.8,3.137-4.169,6.384-2.365,8.726-.723.121.084.233.175.344.267a24.791,24.791,0,0,1,3.038-2.836c-.077-.127-.153-.255-.221-.39a5.455,5.455,0,0,1-.308-4.3q3.4,5.974,6.688,12c-6.952,5.094-9.165,15.133-4.819,23.692,3.682,7.253,11,11.325,18.149,10.815.319.827.632,1.658.973,2.477.927,2.222,1.979,4.4,3.033,6.572q-.995.188-2,.293c.009.144.016.289.013.436-.058,2.86-1.794,5.29-6.757,5.026-2.745-.146-3.217-3.051-3.16-5.911,0-.149.015-.3.03-.441a27.87,27.87,0,0,1-4.035-1.5c-.062.128-.127.254-.2.377-1.419,2.355-6.34,3.355-8.684,1.714s-1.219-5.3.2-7.658c.073-.121.152-.234.233-.345a30.369,30.369,0,0,1-2.906-3.373c-.117.073-.234.144-.359.207a5.294,5.294,0,0,1-4.778-9.411c.125-.063.252-.116.379-.167a30.367,30.367,0,0,1-1.007-4.337C2191.865,1014.31,2191.727,1014.307,2191.586,1014.295Z" transform="translate(-2184.149 -978.451)" fill="url(#linear-gradient-33)"/>
          <path id="Path_900" data-name="Path 900" d="M2095.279,1009.965a5.294,5.294,0,0,1-4.778-9.411c.124-.063.251-.116.379-.167a30.389,30.389,0,0,1-1.008-4.337c-.137,0-.275,0-.416-.015a5.522,5.522,0,0,1-4.854-5.62,4.677,4.677,0,0,1,5.063-4.737c.143.013.283.036.423.06a27.932,27.932,0,0,1,1.172-4.142c-.126-.073-.251-.15-.374-.236a5.522,5.522,0,0,1-1.673-7.235,4.677,4.677,0,0,1,6.811-1.292c.12.084.233.175.344.267a24.721,24.721,0,0,1,3.038-2.836c-.077-.127-.153-.255-.221-.39a4.889,4.889,0,1,1,8.691-4.413c.068.135.127.271.184.408a24.737,24.737,0,0,1,4.082-.78c-.008-.144-.015-.289-.012-.436a4.677,4.677,0,0,1,5.062-4.736,5.522,5.522,0,0,1,4.855,5.62c0,.15-.016.3-.031.441a27.938,27.938,0,0,1,4.036,1.5c.062-.127.128-.254.2-.377a4.677,4.677,0,0,1,6.811-1.292,5.523,5.523,0,0,1,1.673,7.236c-.073.121-.153.234-.234.345a30.407,30.407,0,0,1,2.907,3.373c.116-.073.234-.144.358-.207a5.294,5.294,0,0,1,4.778,9.411c-.125.063-.251.116-.379.167a30.428,30.428,0,0,1,1.008,4.337c.137,0,.275,0,.416.015a5.522,5.522,0,0,1,4.854,5.621,4.676,4.676,0,0,1-5.062,4.736c-.143-.013-.283-.036-.423-.06a27.942,27.942,0,0,1-1.172,4.142c.126.074.251.15.374.236a5.523,5.523,0,0,1,1.673,7.235,4.677,4.677,0,0,1-6.811,1.292c-.12-.084-.233-.175-.344-.267a24.792,24.792,0,0,1-3.038,2.836c.077.127.152.255.221.39a4.889,4.889,0,1,1-8.692,4.413c-.068-.135-.127-.271-.184-.408a24.734,24.734,0,0,1-4.082.779c.008.145.015.289.012.436a4.677,4.677,0,0,1-5.062,4.737,5.523,5.523,0,0,1-4.854-5.62c0-.15.016-.3.03-.441a27.894,27.894,0,0,1-4.035-1.5c-.063.127-.127.254-.2.377a4.675,4.675,0,0,1-6.81,1.292,5.523,5.523,0,0,1-1.674-7.236c.073-.12.153-.233.233-.345a30.381,30.381,0,0,1-2.907-3.373C2095.521,1009.831,2095.4,1009.9,2095.279,1009.965Zm29.92.38c8.714-4.425,11.895-15.66,7.1-25.1s-15.739-13.5-24.452-9.074-11.9,15.66-7.1,25.1S2116.484,1014.769,2125.2,1010.345Z" transform="translate(-2084.601 -959.897)" fill="url(#linear-gradient-34)"/>
        </g>
        <g id="Group_267" data-name="Group 267" transform="translate(83.739 0)">
          <path id="Path_901" data-name="Path 901" d="M1438.353,706.466c-4.7,2.387-10.608.2-13.193-4.9s-.869-11.153,3.833-13.54c.244-.124.492-.228.742-.327a59.651,59.651,0,0,1-1.974-8.5c-.269,0-.54-.005-.815-.03a10.816,10.816,0,0,1-9.509-11.009,9.16,9.16,0,0,1,9.916-9.278c.281.025.556.069.83.118a54.687,54.687,0,0,1,2.3-8.113c-.247-.145-.492-.294-.732-.462a10.817,10.817,0,0,1-3.277-14.174,9.16,9.16,0,0,1,13.342-2.53c.235.165.457.343.675.523a48.444,48.444,0,0,1,5.951-5.555c-.151-.248-.3-.5-.433-.763-2.585-5.091-5.962-10.652-1.224-12.965,10.961-5.351,15.665-.77,18.25,4.32.134.264.249.532.36.8a48.452,48.452,0,0,1,8-1.527c-.017-.283-.03-.566-.024-.854.112-5.6-1.55-8.634,3.834-8.738,11.741-.228,15.7,4.868,15.591,10.47-.006.293-.031.579-.059.863a54.622,54.622,0,0,1,7.905,2.934c.122-.25.249-.5.394-.74a9.161,9.161,0,0,1,13.342-2.53,10.817,10.817,0,0,1,3.277,14.173c-.142.237-.3.457-.457.675a59.651,59.651,0,0,1,5.694,6.607c.227-.143.458-.282.7-.406,4.7-2.387,10.608-.2,13.193,4.9s.869,11.153-3.833,13.54c-.243.124-.492.227-.741.327a59.58,59.58,0,0,1,1.974,8.5c.27,0,.54.005.815.03a10.818,10.818,0,0,1,9.509,11.01,9.161,9.161,0,0,1-9.916,9.278c-.28-.025-.556-.069-.829-.118a54.712,54.712,0,0,1-2.3,8.113c.246.144.492.294.732.462a10.817,10.817,0,0,1,3.277,14.174c-2.779,4.613-11.98,6.756-16.57,3.54-.235-.165,2.771-1.353,2.553-1.534a48.465,48.465,0,0,1-5.952,5.556c.151.248.3.5.433.763,2.585,5.091.868,11.152-3.833,13.54s-10.608.2-13.193-4.9c-.134-.264-.249-.532-.36-.8a48.48,48.48,0,0,1-8,1.526c.017.283.03.567.024.854a9.16,9.16,0,0,1-9.916,9.278,10.817,10.817,0,0,1-9.509-11.01c.006-.293.03-.579.059-.863a54.64,54.64,0,0,1-7.905-2.933c-.122.25-.249.5-.395.739a9.16,9.16,0,0,1-13.342,2.53,10.818,10.818,0,0,1-3.277-14.174c.142-.236.3-.457.457-.675a59.649,59.649,0,0,1-5.694-6.607C1438.827,706.2,1438.6,706.343,1438.353,706.466Zm58.609.743c17.07-8.667,23.3-30.676,13.916-49.16s-30.83-26.441-47.9-17.774-23.3,30.676-13.916,49.16S1479.892,715.877,1496.962,707.21Z" transform="translate(-1412.379 -608.964)" fill="url(#linear-gradient-32)"/>
          <path id="Path_902" data-name="Path 902" d="M1649.5,715.542a10.817,10.817,0,0,1-9.509-11.01,9.16,9.16,0,0,1,9.915-9.278c.28.025.556.07.83.118a54.7,54.7,0,0,1,2.3-8.113c-.247-.144-.492-.294-.732-.462-4.589-3.215-10.267-10.984-7.029-15.287,6.145-8.167,12.5-4.632,17.094-1.417.235.165.457.343.675.523a48.433,48.433,0,0,1,5.952-5.555c-.151-.248-.3-.5-.433-.763a10.682,10.682,0,0,1-.6-8.422q6.649,11.7,13.1,23.513c-13.618,9.979-17.953,29.644-9.442,46.41,7.213,14.207,21.552,22.185,35.553,21.185.624,1.62,1.238,3.248,1.906,4.852,1.815,4.353,3.877,8.617,5.941,12.875q-1.948.367-3.91.574c.017.283.03.567.024.854-.112,5.6-3.514,10.362-13.235,9.847-5.378-.285-6.3-5.976-6.189-11.578.006-.293.03-.579.059-.864a54.655,54.655,0,0,1-7.905-2.934c-.122.25-.249.5-.394.739-2.779,4.613-12.421,6.573-17.01,3.357s-2.388-10.388.391-15c.142-.236.3-.457.457-.675a59.627,59.627,0,0,1-5.694-6.607c-.228.143-.458.282-.7.405-4.7,2.387-10.609.2-13.193-4.9s-.869-11.153,3.833-13.54c.244-.124.492-.228.741-.327a59.614,59.614,0,0,1-1.974-8.5C1650.044,715.571,1649.773,715.566,1649.5,715.542Z" transform="translate(-1634.931 -645.327)" fill="url(#linear-gradient-33)"/>
          <path id="Path_903" data-name="Path 903" d="M1460.842,707.06c-4.7,2.387-10.608.2-13.193-4.9s-.869-11.153,3.833-13.54c.244-.124.492-.228.741-.327a59.6,59.6,0,0,1-1.974-8.5c-.27,0-.54-.005-.815-.03a10.817,10.817,0,0,1-9.509-11.01,9.16,9.16,0,0,1,9.916-9.278c.281.025.556.069.83.118a54.692,54.692,0,0,1,2.3-8.113c-.247-.144-.492-.294-.732-.462a10.817,10.817,0,0,1-3.277-14.174,9.16,9.16,0,0,1,13.341-2.53c.235.165.456.343.675.523a48.43,48.43,0,0,1,5.952-5.555c-.151-.248-.3-.5-.433-.763-2.585-5.091-.869-11.153,3.833-13.54s10.608-.2,13.193,4.9c.134.264.249.532.36.8a48.466,48.466,0,0,1,8-1.527c-.016-.283-.029-.567-.024-.854a9.161,9.161,0,0,1,9.916-9.278,10.817,10.817,0,0,1,9.509,11.01c-.006.293-.03.579-.059.864a54.658,54.658,0,0,1,7.905,2.933c.122-.25.249-.5.394-.739a9.16,9.16,0,0,1,13.342-2.53,10.817,10.817,0,0,1,3.277,14.174c-.142.236-.3.457-.457.675a59.6,59.6,0,0,1,5.694,6.607c.227-.143.458-.282.7-.406,4.7-2.387,10.608-.2,13.193,4.9s.869,11.153-3.833,13.54c-.243.124-.492.228-.741.327a59.672,59.672,0,0,1,1.973,8.5c.27,0,.54.005.815.03a10.817,10.817,0,0,1,9.509,11.01,9.16,9.16,0,0,1-9.916,9.278c-.28-.025-.556-.069-.83-.118a54.628,54.628,0,0,1-2.3,8.113c.247.144.492.294.732.461a10.817,10.817,0,0,1,3.277,14.174,9.16,9.16,0,0,1-13.342,2.53c-.235-.165-.457-.343-.675-.523a48.485,48.485,0,0,1-5.951,5.555c.151.248.3.5.433.763,2.584,5.091.868,11.153-3.833,13.54s-10.608.2-13.193-4.9c-.134-.264-.249-.531-.36-.8a48.479,48.479,0,0,1-8,1.526c.017.283.03.567.024.854a9.161,9.161,0,0,1-9.916,9.278,10.817,10.817,0,0,1-9.509-11.01c.006-.293.03-.579.059-.863a54.665,54.665,0,0,1-7.905-2.934c-.122.25-.249.5-.395.739a9.16,9.16,0,0,1-13.342,2.531,10.818,10.818,0,0,1-3.277-14.174c.143-.236.3-.457.457-.675a59.581,59.581,0,0,1-5.695-6.607C1461.316,706.8,1461.086,706.937,1460.842,707.06Zm58.609.744c17.07-8.667,23.3-30.676,13.916-49.16s-30.83-26.441-47.9-17.774-23.3,30.677-13.917,49.16S1502.381,716.471,1519.451,707.8Z" transform="translate(-1439.924 -608.983)" fill="url(#linear-gradient-34)"/>
        </g>
      </g>
    </g>
    <g transform="matrix(1, 0, 0, 1, 0, 0)" filter="url(#Ellipse_35)">
      <ellipse id="Ellipse_35-2" data-name="Ellipse 35" cx="260.379" cy="19.734" rx="260.379" ry="19.734" transform="translate(67.21 642.53)" fill="rgba(0,0,0,0.05)"/>
    </g>
  </g>
</svg>
