<svg xmlns="http://www.w3.org/2000/svg" xmlns:xlink="http://www.w3.org/1999/xlink" width="615.028" height="429.424" viewBox="0 0 615.028 429.424">
  <defs>
    <filter id="Ellipse_35" x="31.758" y="346.036" width="551.512" height="83.388" filterUnits="userSpaceOnUse">
      <feOffset dy="3" input="SourceAlpha"/>
      <feGaussianBlur stdDeviation="7.5" result="blur"/>
      <feFlood/>
      <feComposite operator="in" in2="blur"/>
      <feComposite in="SourceGraphic"/>
    </filter>
  </defs>
  <g id="Group_270" data-name="Group 270" transform="translate(-10.426 -243.279)">
    <g transform="matrix(1, 0, 0, 1, 10.43, 243.28)" filter="url(#Ellipse_35)">
      <ellipse id="Ellipse_35-2" data-name="Ellipse 35" cx="253.256" cy="19.194" rx="253.256" ry="19.194" transform="translate(54.26 365.54)" fill="rgba(0,0,0,0.05)"/>
    </g>
    <g id="Group_177" data-name="Group 177" transform="translate(10.426 243.279)">
      <path id="Path_435" data-name="Path 435" d="M31.336,437.691c-4.7,9.448-9.5,21.241-8.98,29.842H577.85c13.321-13.636,15.653-34.33,6.494-46.139-12.173-15.694-34.2-32.6-28.983-47.084s27.825-30.181,16.231-52.516-38.839-15.694-40-33.8,12.752-31.992,1.738-42.857-34.78,3.017-46.953-12.677,16.231-56.138-6.957-74.851-51.591,12.073-66.662,1.811-20.868-38.029-43.475-40.443S344.94,143.12,324.65,144.327,291.03,116.56,266.1,121.39s-19.13,33.8-43.475,38.631-51.011-4.225-67.822,6.64,4.058,39.236-11.014,51.309-38.837-4.226-55.069,12.676,0,37.425-6.956,48.895-30.144,4.225-41.737,24.145,17.39,57.344,5.8,67.606S22.351,379.44,19.743,394.23,39.452,421.393,31.336,437.691Z" transform="translate(-8.819 -118.82)" fill="#f19895" fill-rule="evenodd"/>
      <g id="Group_172" data-name="Group 172" transform="translate(0 158.583)">
        <path id="Path_436" data-name="Path 436" d="M146.137,393.606C165.749,338.282,93.363,259.5,34.49,243.625,23.834,312.264,79.14,394.49,146.137,393.606Z" transform="translate(-5.013 -242.575)" fill="#615f9d" fill-rule="evenodd"/>
        <path id="Path_437" data-name="Path 437" d="M34.49,243.625C23.834,312.264,79.14,394.49,146.137,393.606,133.747,349.012,71.321,272.2,34.49,243.625Z" transform="translate(-5.013 -242.575)" fill="#3f508d" fill-rule="evenodd"/>
        <path id="Path_438" data-name="Path 438" d="M34.2,243.625c39.013,36.347,92.042,101.139,110.023,149.988.537,0,1.08,0,1.623-.006C133.458,349.012,71.033,272.2,34.2,243.625Z" transform="translate(-4.725 -242.575)" fill="#9083bf" fill-rule="evenodd"/>
        <path id="Path_439" data-name="Path 439" d="M116.288,333.713l-41.076-9,40.459,7.788Z" transform="translate(6.72 -219.947)" fill="#9083bf" fill-rule="evenodd"/>
        <path id="Path_440" data-name="Path 440" d="M102.6,331.9c.216-.642.439-32.119.439-32.119l-1.2,30.824Z" transform="translate(14.149 -226.904)" fill="#9083bf" fill-rule="evenodd"/>
        <path id="Path_441" data-name="Path 441" d="M100.85,311.046s-39.43-7.11-38.626-7.191,39.3,8.246,39.3,8.246Z" transform="translate(3.092 -225.767)" fill="#9083bf" fill-rule="evenodd"/>
        <path id="Path_442" data-name="Path 442" d="M84.966,303.335c.629-.485-4.729-28.237-4.729-28.237l3.489,27.958Z" transform="translate(8.122 -233.792)" fill="#9083bf" fill-rule="evenodd"/>
        <path id="Path_443" data-name="Path 443" d="M77.677,284.481l-28.313-8.645,28.959,9.688Z" transform="translate(-0.493 -233.586)" fill="#9083bf" fill-rule="evenodd"/>
        <path id="Path_444" data-name="Path 444" d="M62.572,274.6c-.04-.4-5.385-18.352-5.385-18.352l4.4,17.766Z" transform="translate(1.689 -239.053)" fill="#9083bf" fill-rule="evenodd"/>
        <path id="Path_445" data-name="Path 445" d="M55.675,262.056c-.487-.386-17.646-8.265-16.955-7.9S56,263.052,56,263.052Z" transform="translate(-3.47 -239.639)" fill="#9083bf" fill-rule="evenodd"/>
        <path id="Path_446" data-name="Path 446" d="M134.192,391.771c41.075-22.711,39.537-108.248,12.727-148.967-42.779,35.427-53.292,113.964-12.727,148.967Z" transform="translate(16.065 -242.804)" fill="#615f9d" fill-rule="evenodd"/>
        <path id="Path_447" data-name="Path 447" d="M146.918,242.8c-42.779,35.427-53.292,113.964-12.727,148.967C150.428,358.51,153.8,279.436,146.918,242.8Z" transform="translate(16.065 -242.804)" fill="#3f508d" fill-rule="evenodd"/>
        <path id="Path_448" data-name="Path 448" d="M141.57,242.8c4.066,42.442,1.44,109.338-13.7,148.108q.485.43.977.859C145.08,358.51,148.452,279.436,141.57,242.8Z" transform="translate(21.413 -242.804)" fill="#9083bf" fill-rule="evenodd"/>
        <path id="Path_449" data-name="Path 449" d="M139.925,340.249l-19.807-27.172L140.2,339.2Z" transform="translate(19.251 -223.193)" fill="#9083bf" fill-rule="evenodd"/>
        <path id="Path_450" data-name="Path 450" d="M136.314,331.765c.471-.269,17.293-18.99,17.293-18.99l-17.068,17.814Z" transform="translate(23.771 -223.278)" fill="#9083bf" fill-rule="evenodd"/>
        <path id="Path_451" data-name="Path 451" d="M142.708,318.5s-19.823-25.167-19.3-24.791,19.144,25.774,19.144,25.774Z" transform="translate(20.166 -228.6)" fill="#9083bf" fill-rule="evenodd"/>
        <path id="Path_452" data-name="Path 452" d="M140.069,305.46c.634.042,12.147-19.407,12.147-19.407l-12.739,18.578Z" transform="translate(24.653 -230.735)" fill="#9083bf" fill-rule="evenodd"/>
        <path id="Path_453" data-name="Path 453" d="M142.927,290.312l-12.358-20.191,12.194,21.156Z" transform="translate(22.168 -235.181)" fill="#9083bf" fill-rule="evenodd"/>
        <path id="Path_454" data-name="Path 454" d="M140.612,276.384c.188-.263,6.508-13.838,6.508-13.838l-6.783,12.966Z" transform="translate(24.893 -237.295)" fill="#9083bf" fill-rule="evenodd"/>
        <path id="Path_455" data-name="Path 455" d="M141.653,265.221c-.087-.487-6.175-14.3-5.959-13.718s5.625,14.485,5.625,14.485Z" transform="translate(23.596 -240.382)" fill="#9083bf" fill-rule="evenodd"/>
        <path id="Path_456" data-name="Path 456" d="M150.8,379.547c-10.473-45.749-93.1-67.91-139.648-53.394,22.225,50.9,94.8,82.708,139.648,53.394Z" transform="translate(-11.156 -220.777)" fill="#615f9d" fill-rule="evenodd"/>
        <path id="Path_457" data-name="Path 457" d="M11.156,325.189c22.225,50.9,94.8,82.708,139.648,53.394C123.324,353.79,48.264,328.7,11.156,325.189Z" transform="translate(-11.156 -219.814)" fill="#3f508d" fill-rule="evenodd"/>
        <path id="Path_458" data-name="Path 458" d="M11.156,325.189c41.912,7.818,105.479,28.827,138.553,54.1.367-.229.73-.462,1.095-.7C123.324,353.79,48.264,328.7,11.156,325.189Z" transform="translate(-11.156 -219.814)" fill="#9083bf" fill-rule="evenodd"/>
        <path id="Path_459" data-name="Path 459" d="M105.18,353.459,73.593,364.986,104.242,352.9Z" transform="translate(6.268 -212.079)" fill="#9083bf" fill-rule="evenodd"/>
        <path id="Path_460" data-name="Path 460" d="M94.985,355.577c-.13-.526-13.471-21.867-13.471-21.867l12.4,21.321Z" transform="translate(8.478 -217.436)" fill="#9083bf" fill-rule="evenodd"/>
        <path id="Path_461" data-name="Path 461" d="M85.043,344.694s-29.665,12.1-29.159,11.7,30.064-11.278,30.064-11.278Z" transform="translate(1.324 -214.371)" fill="#9083bf" fill-rule="evenodd"/>
        <path id="Path_462" data-name="Path 462" d="M71.015,343.742c.219-.6-15.294-17.035-15.294-17.035l14.336,17.375Z" transform="translate(1.28 -219.39)" fill="#9083bf" fill-rule="evenodd"/>
        <path id="Path_463" data-name="Path 463" d="M58.015,335.514,35.2,341.81l23.7-5.873Z" transform="translate(-4.447 -216.932)" fill="#9083bf" fill-rule="evenodd"/>
        <path id="Path_464" data-name="Path 464" d="M43.582,333.937c-.2-.253-11.5-10.079-11.5-10.079l10.586,10.1Z" transform="translate(-5.317 -220.185)" fill="#9083bf" fill-rule="evenodd"/>
        <path id="Path_465" data-name="Path 465" d="M33.553,328.853c-.5-.051-15.457,1.983-14.833,1.937s15.475-1.4,15.475-1.4Z" transform="translate(-9.05 -218.791)" fill="#9083bf" fill-rule="evenodd"/>
      </g>
      <g id="Group_173" data-name="Group 173" transform="translate(432.778 173.681)">
        <path id="Path_466" data-name="Path 466" d="M382.381,405.409C362.769,350.085,435.155,271.3,494.028,255.428c10.656,68.64-44.649,150.865-111.647,149.981Z" transform="translate(-341.254 -254.379)" fill="#ad5f9d" fill-rule="evenodd"/>
        <path id="Path_467" data-name="Path 467" d="M493.313,255.428c10.656,68.64-44.649,150.865-111.647,149.981C394.055,360.815,456.482,284,493.313,255.428Z" transform="translate(-340.539 -254.379)" fill="#8b508d" fill-rule="evenodd"/>
        <path id="Path_468" data-name="Path 468" d="M493.313,255.428C454.3,291.775,401.27,356.567,383.289,405.416q-.808,0-1.623-.006C394.055,360.815,456.482,284,493.313,255.428Z" transform="translate(-340.539 -254.379)" fill="#dc83bf" fill-rule="evenodd"/>
        <path id="Path_469" data-name="Path 469" d="M395.83,345.516l41.076-9L396.447,344.3Z" transform="translate(-336.587 -231.752)" fill="#dc83bf" fill-rule="evenodd"/>
        <path id="Path_470" data-name="Path 470" d="M400.819,343.7c-.216-.642-.439-32.118-.439-32.118l1.2,30.824Z" transform="translate(-335.317 -238.708)" fill="#dc83bf" fill-rule="evenodd"/>
        <path id="Path_471" data-name="Path 471" d="M410.882,322.849s39.43-7.11,38.626-7.19-39.3,8.245-39.3,8.245Z" transform="translate(-332.573 -237.571)" fill="#dc83bf" fill-rule="evenodd"/>
        <path id="Path_472" data-name="Path 472" d="M419.233,315.137c-.629-.485,4.729-28.236,4.729-28.236l-3.489,27.959Z" transform="translate(-330.07 -245.596)" fill="#dc83bf" fill-rule="evenodd"/>
        <path id="Path_473" data-name="Path 473" d="M431.8,296.284l28.312-8.645-28.959,9.688Z" transform="translate(-326.73 -245.39)" fill="#dc83bf" fill-rule="evenodd"/>
        <path id="Path_474" data-name="Path 474" d="M441.759,286.4c.04-.4,5.385-18.351,5.385-18.351l-4.4,17.765Z" transform="translate(-323.77 -250.857)" fill="#dc83bf" fill-rule="evenodd"/>
        <path id="Path_475" data-name="Path 475" d="M451.256,273.859c.487-.386,17.646-8.265,16.955-7.9s-17.28,8.893-17.28,8.893Z" transform="translate(-321.21 -251.443)" fill="#dc83bf" fill-rule="evenodd"/>
        <path id="Path_476" data-name="Path 476" d="M381.506,403.574c-41.075-22.711-39.537-108.248-12.727-148.966,42.779,35.426,53.292,113.963,12.727,148.966Z" transform="translate(-349.512 -254.608)" fill="#ad5f9d" fill-rule="evenodd"/>
        <path id="Path_477" data-name="Path 477" d="M365.311,254.608c42.78,35.426,53.292,113.963,12.727,148.966-16.236-33.261-19.609-112.335-12.727-148.966Z" transform="translate(-346.044 -254.608)" fill="#8b508d" fill-rule="evenodd"/>
        <path id="Path_478" data-name="Path 478" d="M365.311,254.608c-4.066,42.44-1.44,109.337,13.7,148.106-.325.286-.648.574-.977.859-16.236-33.261-19.609-112.335-12.727-148.966Z" transform="translate(-346.044 -254.608)" fill="#dc83bf" fill-rule="evenodd"/>
        <path id="Path_479" data-name="Path 479" d="M367.613,352.052l19.807-27.172L367.336,351Z" transform="translate(-344.538 -234.998)" fill="#dc83bf" fill-rule="evenodd"/>
        <path id="Path_480" data-name="Path 480" d="M370.615,343.568c-.471-.269-17.293-18.99-17.293-18.99l17.068,17.814Z" transform="translate(-348.449 -235.082)" fill="#dc83bf" fill-rule="evenodd"/>
        <path id="Path_481" data-name="Path 481" d="M364.661,330.3s19.823-25.167,19.3-24.791-19.144,25.774-19.144,25.774Z" transform="translate(-345.285 -240.404)" fill="#dc83bf" fill-rule="evenodd"/>
        <path id="Path_482" data-name="Path 482" d="M365.866,317.263c-.634.042-12.147-19.407-12.147-19.407l12.739,18.58Z" transform="translate(-348.338 -242.539)" fill="#dc83bf" fill-rule="evenodd"/>
        <path id="Path_483" data-name="Path 483" d="M362.925,302.115l12.358-20.191L363.088,303.08Z" transform="translate(-345.769 -246.985)" fill="#dc83bf" fill-rule="evenodd"/>
        <path id="Path_484" data-name="Path 484" d="M364.023,288.187c-.187-.263-6.507-13.837-6.507-13.837l6.783,12.965Z" transform="translate(-347.278 -249.099)" fill="#dc83bf" fill-rule="evenodd"/>
        <path id="Path_485" data-name="Path 485" d="M362.8,277.024c.087-.487,6.175-14.3,5.959-13.718s-5.625,14.485-5.625,14.485Z" transform="translate(-345.803 -252.186)" fill="#dc83bf" fill-rule="evenodd"/>
        <path id="Path_486" data-name="Path 486" d="M382.82,391.35c10.473-45.749,93.1-67.909,139.648-53.394-22.225,50.905-94.8,82.708-139.648,53.394Z" transform="translate(-340.217 -232.581)" fill="#ad5f9d" fill-rule="evenodd"/>
        <path id="Path_487" data-name="Path 487" d="M522.468,336.992c-22.225,50.905-94.8,82.708-139.648,53.394C410.3,365.593,485.36,340.5,522.468,336.992Z" transform="translate(-340.217 -231.618)" fill="#8b508d" fill-rule="evenodd"/>
        <path id="Path_488" data-name="Path 488" d="M522.468,336.992c-41.912,7.818-105.479,28.828-138.553,54.1-.367-.229-.73-.462-1.095-.7C410.3,365.593,485.36,340.5,522.468,336.992Z" transform="translate(-340.217 -231.618)" fill="#dc83bf" fill-rule="evenodd"/>
        <path id="Path_489" data-name="Path 489" d="M404.868,365.262l31.587,11.526-30.649-12.081Z" transform="translate(-334.064 -223.884)" fill="#dc83bf" fill-rule="evenodd"/>
        <path id="Path_490" data-name="Path 490" d="M411.11,367.38c.131-.526,13.471-21.867,13.471-21.867l-12.4,21.322Z" transform="translate(-332.322 -229.24)" fill="#dc83bf" fill-rule="evenodd"/>
        <path id="Path_491" data-name="Path 491" d="M424.673,356.5s29.665,12.1,29.158,11.7-30.063-11.277-30.063-11.277Z" transform="translate(-328.79 -226.175)" fill="#dc83bf" fill-rule="evenodd"/>
        <path id="Path_492" data-name="Path 492" d="M435.478,355.546c-.219-.6,15.294-17.035,15.294-17.035l-14.336,17.375Z" transform="translate(-325.523 -231.194)" fill="#dc83bf" fill-rule="evenodd"/>
        <path id="Path_493" data-name="Path 493" d="M450.312,347.317l22.817,6.3-23.7-5.873Z" transform="translate(-321.629 -228.737)" fill="#dc83bf" fill-rule="evenodd"/>
        <path id="Path_494" data-name="Path 494" d="M462.083,345.74c.2-.252,11.5-10.078,11.5-10.078L463,345.764Z" transform="translate(-318.098 -231.989)" fill="#dc83bf" fill-rule="evenodd"/>
        <path id="Path_495" data-name="Path 495" d="M472.983,340.657c.5-.052,15.457,1.981,14.833,1.935s-15.475-1.4-15.475-1.4Z" transform="translate(-315.235 -230.595)" fill="#dc83bf" fill-rule="evenodd"/>
      </g>
      <g id="Group_176" data-name="Group 176" transform="translate(27.481 28.37)">
        <path id="Path_496" data-name="Path 496" d="M44.554,294.342c-1.357,3.767,19.724,18.97,23.024,18.8s25.586-13.923,25.586-13.923l-1.331-2.662s-21.559,9.761-23.567,9.222c-7.894-2.114-20.283-20.96-23.712-11.439Z" transform="translate(-29.335 -98.953)" fill="#dd8dc6" fill-rule="evenodd"/>
        <path id="Path_497" data-name="Path 497" d="M249.925,238.647c22.989,0,41.738-2.751,41.738-6.128s-18.75-6.127-41.738-6.127-41.737,2.754-41.737,6.127,18.747,6.128,41.737,6.128Z" transform="translate(16.347 -117.17)" fill="#20282e" fill-rule="evenodd"/>
        <rect id="Rectangle_39" data-name="Rectangle 39" width="162.661" height="162.659" transform="translate(183.59 140.346)" fill="#f3bb54"/>
        <path id="Path_498" data-name="Path 498" d="M181.461,400.744a235.414,235.414,0,0,0-18.834-87.909,168.765,168.765,0,0,0-8.229-16.829H182.38V400.744Z" transform="translate(1.336 -97.744)" fill="#d1def6"/>
        <rect id="Rectangle_40" data-name="Rectangle 40" width="66.224" height="54.865" transform="translate(231.81 248.14)" fill="#fcdec9"/>
        <rect id="Rectangle_41" data-name="Rectangle 41" width="61.889" height="52.697" transform="translate(233.978 250.307)" fill="#e28a19"/>
        <rect id="Rectangle_42" data-name="Rectangle 42" width="84.899" height="104.741" transform="translate(98.816 198.264)" fill="#dca632"/>
        <rect id="Rectangle_43" data-name="Rectangle 43" width="84.902" height="104.741" transform="translate(346.172 198.264)" fill="#dca632"/>
        <path id="Path_499" data-name="Path 499" d="M260.83,218.6l-95.378,42.452H356.207Z" transform="translate(4.421 -119.345)" fill="#a76b58"/>
        <path id="Path_500" data-name="Path 500" d="M176.177,259.934v7.53l162.661-.053v-7.477l-81-37.323Z" transform="translate(7.414 -118.226)" fill="#f3bb54"/>
        <rect id="Rectangle_44" data-name="Rectangle 44" width="30.943" height="52.697" transform="translate(264.923 250.307)" fill="#d28224"/>
        <rect id="Rectangle_45" data-name="Rectangle 45" width="1.787" height="6.551" transform="translate(266.049 274.7)" fill="#a76b58"/>
        <rect id="Rectangle_46" data-name="Rectangle 46" width="1.787" height="6.551" transform="translate(262.008 274.7)" fill="#a76b58"/>
        <rect id="Rectangle_47" data-name="Rectangle 47" width="23.999" height="33.663" transform="translate(194.839 162.254)" fill="#fcdec9"/>
        <rect id="Rectangle_48" data-name="Rectangle 48" width="21.125" height="30.791" transform="translate(196.276 163.689)" fill="#73d8f5"/>
        <rect id="Rectangle_49" data-name="Rectangle 49" width="1.379" height="30.791" transform="translate(216.021 163.689)" fill="#49a7e2"/>
        <rect id="Rectangle_50" data-name="Rectangle 50" width="25.583" height="2.606" transform="translate(193.946 194.48)" fill="#fbf9f5"/>
        <path id="Path_501" data-name="Path 501" d="M199.433,268.976l-13.339,12.179v16.932L205.84,280.06V268.976Z" transform="translate(10.181 -105.287)" fill="#98e5ff" fill-rule="evenodd"/>
        <path id="Path_502" data-name="Path 502" d="M201.532,268.976V280.06l1.379-1.261v-9.823Z" transform="translate(14.489 -105.287)" fill="#61c0fc" fill-rule="evenodd"/>
        <rect id="Rectangle_51" data-name="Rectangle 51" width="23.999" height="33.663" transform="translate(194.839 208.376)" fill="#fcdec9"/>
        <rect id="Rectangle_52" data-name="Rectangle 52" width="21.125" height="30.789" transform="translate(196.276 209.813)" fill="#73d8f5"/>
        <rect id="Rectangle_53" data-name="Rectangle 53" width="1.379" height="30.789" transform="translate(216.021 209.813)" fill="#49a7e2"/>
        <rect id="Rectangle_54" data-name="Rectangle 54" width="25.583" height="2.609" transform="translate(193.946 240.602)" fill="#fbf9f5"/>
        <path id="Path_503" data-name="Path 503" d="M199.433,305.037l-13.339,12.177v16.934l19.745-18.029V305.037Z" transform="translate(10.181 -95.224)" fill="#98e5ff" fill-rule="evenodd"/>
        <path id="Path_504" data-name="Path 504" d="M201.532,305.037v11.082l1.379-1.259v-9.823Z" transform="translate(14.489 -95.224)" fill="#61c0fc" fill-rule="evenodd"/>
        <rect id="Rectangle_55" data-name="Rectangle 55" width="23.999" height="33.666" transform="translate(194.839 254.498)" fill="#fcdec9"/>
        <rect id="Rectangle_56" data-name="Rectangle 56" width="21.125" height="30.791" transform="translate(196.276 255.935)" fill="#73d8f5"/>
        <rect id="Rectangle_57" data-name="Rectangle 57" width="1.379" height="30.791" transform="translate(216.021 255.935)" fill="#49a7e2"/>
        <rect id="Rectangle_58" data-name="Rectangle 58" width="25.583" height="2.607" transform="translate(193.946 286.727)" fill="#fbf9f5"/>
        <path id="Path_505" data-name="Path 505" d="M199.433,341.1l-13.339,12.177v16.934l19.745-18.029V341.1Z" transform="translate(10.181 -85.161)" fill="#98e5ff" fill-rule="evenodd"/>
        <path id="Path_506" data-name="Path 506" d="M201.532,341.1v11.082l1.379-1.259V341.1Z" transform="translate(14.489 -85.161)" fill="#61c0fc" fill-rule="evenodd"/>
        <rect id="Rectangle_59" data-name="Rectangle 59" width="23.996" height="33.663" transform="translate(233.628 162.254)" fill="#fcdec9"/>
        <rect id="Rectangle_60" data-name="Rectangle 60" width="21.122" height="30.791" transform="translate(235.065 163.689)" fill="#73d8f5"/>
        <rect id="Rectangle_61" data-name="Rectangle 61" width="1.379" height="30.791" transform="translate(254.808 163.689)" fill="#49a7e2"/>
        <rect id="Rectangle_62" data-name="Rectangle 62" width="25.581" height="2.606" transform="translate(232.736 194.48)" fill="#fbf9f5"/>
        <path id="Path_507" data-name="Path 507" d="M229.757,268.976l-13.336,12.179v16.932l19.743-18.026V268.976Z" transform="translate(18.644 -105.287)" fill="#98e5ff" fill-rule="evenodd"/>
        <path id="Path_508" data-name="Path 508" d="M231.857,268.976V280.06l1.379-1.261v-9.823Z" transform="translate(22.952 -105.287)" fill="#61c0fc" fill-rule="evenodd"/>
        <rect id="Rectangle_63" data-name="Rectangle 63" width="23.996" height="33.663" transform="translate(272.417 162.254)" fill="#fcdec9"/>
        <rect id="Rectangle_64" data-name="Rectangle 64" width="21.122" height="30.791" transform="translate(273.854 163.689)" fill="#73d8f5"/>
        <rect id="Rectangle_65" data-name="Rectangle 65" width="1.379" height="30.791" transform="translate(293.598 163.689)" fill="#49a7e2"/>
        <rect id="Rectangle_66" data-name="Rectangle 66" width="25.583" height="2.606" transform="translate(271.523 194.48)" fill="#fbf9f5"/>
        <path id="Path_509" data-name="Path 509" d="M260.084,268.976l-13.336,12.179v16.932l19.743-18.026V268.976Z" transform="translate(27.107 -105.287)" fill="#98e5ff" fill-rule="evenodd"/>
        <path id="Path_510" data-name="Path 510" d="M262.183,268.976V280.06l1.379-1.261v-9.823Z" transform="translate(31.415 -105.287)" fill="#61c0fc" fill-rule="evenodd"/>
        <rect id="Rectangle_67" data-name="Rectangle 67" width="23.999" height="33.663" transform="translate(311.204 162.254)" fill="#fcdec9"/>
        <rect id="Rectangle_68" data-name="Rectangle 68" width="21.125" height="30.791" transform="translate(312.641 163.689)" fill="#73d8f5"/>
        <rect id="Rectangle_69" data-name="Rectangle 69" width="1.379" height="30.791" transform="translate(332.387 163.689)" fill="#49a7e2"/>
        <rect id="Rectangle_70" data-name="Rectangle 70" width="25.583" height="2.606" transform="translate(310.312 194.48)" fill="#fbf9f5"/>
        <path id="Path_511" data-name="Path 511" d="M290.411,268.976l-13.339,12.179v16.932l19.745-18.026V268.976Z" transform="translate(35.569 -105.287)" fill="#98e5ff" fill-rule="evenodd"/>
        <path id="Path_512" data-name="Path 512" d="M292.509,268.976V280.06l1.379-1.261v-9.823Z" transform="translate(39.877 -105.287)" fill="#61c0fc" fill-rule="evenodd"/>
        <rect id="Rectangle_71" data-name="Rectangle 71" width="23.996" height="33.663" transform="translate(233.628 208.376)" fill="#fcdec9"/>
        <rect id="Rectangle_72" data-name="Rectangle 72" width="21.122" height="30.789" transform="translate(235.065 209.813)" fill="#73d8f5"/>
        <rect id="Rectangle_73" data-name="Rectangle 73" width="1.379" height="30.789" transform="translate(254.808 209.813)" fill="#49a7e2"/>
        <rect id="Rectangle_74" data-name="Rectangle 74" width="25.581" height="2.609" transform="translate(232.736 240.602)" fill="#fbf9f5"/>
        <path id="Path_513" data-name="Path 513" d="M229.757,305.037l-13.336,12.177v16.934l19.743-18.029V305.037Z" transform="translate(18.644 -95.224)" fill="#98e5ff" fill-rule="evenodd"/>
        <path id="Path_514" data-name="Path 514" d="M231.857,305.037v11.082l1.379-1.259v-9.823Z" transform="translate(22.952 -95.224)" fill="#61c0fc" fill-rule="evenodd"/>
        <rect id="Rectangle_75" data-name="Rectangle 75" width="23.996" height="33.663" transform="translate(272.417 208.376)" fill="#fcdec9"/>
        <rect id="Rectangle_76" data-name="Rectangle 76" width="21.122" height="30.789" transform="translate(273.854 209.813)" fill="#73d8f5"/>
        <rect id="Rectangle_77" data-name="Rectangle 77" width="1.379" height="30.789" transform="translate(293.598 209.813)" fill="#49a7e2"/>
        <rect id="Rectangle_78" data-name="Rectangle 78" width="25.583" height="2.609" transform="translate(271.523 240.602)" fill="#fbf9f5"/>
        <path id="Path_515" data-name="Path 515" d="M260.084,305.037l-13.336,12.177v16.934l19.743-18.029V305.037Z" transform="translate(27.107 -95.224)" fill="#98e5ff" fill-rule="evenodd"/>
        <path id="Path_516" data-name="Path 516" d="M262.183,305.037v11.082l1.379-1.259v-9.823Z" transform="translate(31.415 -95.224)" fill="#61c0fc" fill-rule="evenodd"/>
        <rect id="Rectangle_79" data-name="Rectangle 79" width="23.999" height="33.663" transform="translate(311.204 208.376)" fill="#fcdec9"/>
        <rect id="Rectangle_80" data-name="Rectangle 80" width="21.125" height="30.789" transform="translate(312.641 209.813)" fill="#73d8f5"/>
        <rect id="Rectangle_81" data-name="Rectangle 81" width="1.379" height="30.789" transform="translate(332.387 209.813)" fill="#49a7e2"/>
        <rect id="Rectangle_82" data-name="Rectangle 82" width="25.583" height="2.609" transform="translate(310.312 240.602)" fill="#fbf9f5"/>
        <path id="Path_517" data-name="Path 517" d="M290.411,305.037l-13.339,12.177v16.934l19.745-18.029V305.037Z" transform="translate(35.569 -95.224)" fill="#98e5ff" fill-rule="evenodd"/>
        <path id="Path_518" data-name="Path 518" d="M292.509,305.037v11.082l1.379-1.259v-9.823Z" transform="translate(39.877 -95.224)" fill="#61c0fc" fill-rule="evenodd"/>
        <rect id="Rectangle_83" data-name="Rectangle 83" width="23.999" height="33.666" transform="translate(311.204 253.039)" fill="#fcdec9"/>
        <rect id="Rectangle_84" data-name="Rectangle 84" width="21.125" height="30.791" transform="translate(312.641 254.477)" fill="#73d8f5"/>
        <rect id="Rectangle_85" data-name="Rectangle 85" width="1.379" height="30.791" transform="translate(332.387 254.477)" fill="#49a7e2"/>
        <rect id="Rectangle_86" data-name="Rectangle 86" width="25.583" height="2.607" transform="translate(310.312 285.268)" fill="#fbf9f5"/>
        <path id="Path_519" data-name="Path 519" d="M290.411,339.956l-13.339,12.179v16.932l19.745-18.029V339.956Z" transform="translate(35.569 -85.479)" fill="#98e5ff" fill-rule="evenodd"/>
        <path id="Path_520" data-name="Path 520" d="M292.509,339.956v11.082l1.379-1.259v-9.823Z" transform="translate(39.877 -85.479)" fill="#61c0fc" fill-rule="evenodd"/>
        <rect id="Rectangle_87" data-name="Rectangle 87" width="23.997" height="33.666" transform="translate(109.973 210.156)" fill="#fcdec9"/>
        <rect id="Rectangle_88" data-name="Rectangle 88" width="21.122" height="30.791" transform="translate(111.41 211.593)" fill="#73d8f5"/>
        <rect id="Rectangle_89" data-name="Rectangle 89" width="1.379" height="30.791" transform="translate(131.153 211.593)" fill="#49a7e2"/>
        <rect id="Rectangle_90" data-name="Rectangle 90" width="25.581" height="2.607" transform="translate(109.081 242.384)" fill="#fbf9f5"/>
        <path id="Path_521" data-name="Path 521" d="M133.081,306.428,119.744,318.6v16.934l19.743-18.029V306.428Z" transform="translate(-8.334 -94.835)" fill="#98e5ff" fill-rule="evenodd"/>
        <path id="Path_522" data-name="Path 522" d="M135.18,306.428V317.51l1.379-1.259v-9.823Z" transform="translate(-4.027 -94.835)" fill="#61c0fc" fill-rule="evenodd"/>
        <rect id="Rectangle_91" data-name="Rectangle 91" width="23.996" height="33.666" transform="translate(148.762 210.156)" fill="#fcdec9"/>
        <rect id="Rectangle_92" data-name="Rectangle 92" width="21.122" height="30.791" transform="translate(150.2 211.593)" fill="#73d8f5"/>
        <rect id="Rectangle_93" data-name="Rectangle 93" width="1.379" height="30.791" transform="translate(169.943 211.593)" fill="#49a7e2"/>
        <rect id="Rectangle_94" data-name="Rectangle 94" width="25.583" height="2.607" transform="translate(147.868 242.384)" fill="#fbf9f5"/>
        <path id="Path_523" data-name="Path 523" d="M163.408,306.428,150.071,318.6v16.934l19.743-18.029V306.428Z" transform="translate(0.129 -94.835)" fill="#98e5ff" fill-rule="evenodd"/>
        <path id="Path_524" data-name="Path 524" d="M165.507,306.428V317.51l1.379-1.259v-9.823Z" transform="translate(4.436 -94.835)" fill="#61c0fc" fill-rule="evenodd"/>
        <rect id="Rectangle_95" data-name="Rectangle 95" width="23.997" height="33.666" transform="translate(109.973 256.278)" fill="#fcdec9"/>
        <rect id="Rectangle_96" data-name="Rectangle 96" width="21.122" height="30.791" transform="translate(111.41 257.715)" fill="#73d8f5"/>
        <rect id="Rectangle_97" data-name="Rectangle 97" width="1.379" height="30.791" transform="translate(131.153 257.715)" fill="#49a7e2"/>
        <rect id="Rectangle_98" data-name="Rectangle 98" width="25.581" height="2.606" transform="translate(109.081 288.506)" fill="#fbf9f5"/>
        <path id="Path_525" data-name="Path 525" d="M133.081,342.488l-13.336,12.179V371.6l19.743-18.029V342.488Z" transform="translate(-8.334 -84.773)" fill="#98e5ff" fill-rule="evenodd"/>
        <path id="Path_526" data-name="Path 526" d="M135.18,342.488V353.57l1.379-1.259v-9.823Z" transform="translate(-4.027 -84.773)" fill="#61c0fc" fill-rule="evenodd"/>
        <rect id="Rectangle_99" data-name="Rectangle 99" width="23.996" height="33.666" transform="translate(148.762 256.278)" fill="#fcdec9"/>
        <rect id="Rectangle_100" data-name="Rectangle 100" width="21.122" height="30.791" transform="translate(150.2 257.715)" fill="#73d8f5"/>
        <rect id="Rectangle_101" data-name="Rectangle 101" width="1.379" height="30.791" transform="translate(169.943 257.715)" fill="#49a7e2"/>
        <rect id="Rectangle_102" data-name="Rectangle 102" width="25.583" height="2.606" transform="translate(147.868 288.506)" fill="#fbf9f5"/>
        <path id="Path_527" data-name="Path 527" d="M163.408,342.488l-13.337,12.179V371.6l19.743-18.029V342.488Z" transform="translate(0.129 -84.773)" fill="#98e5ff" fill-rule="evenodd"/>
        <path id="Path_528" data-name="Path 528" d="M165.507,342.488V353.57l1.379-1.259v-9.823Z" transform="translate(4.436 -84.773)" fill="#61c0fc" fill-rule="evenodd"/>
        <rect id="Rectangle_103" data-name="Rectangle 103" width="23.996" height="33.666" transform="translate(357.331 210.156)" fill="#fcdec9"/>
        <rect id="Rectangle_104" data-name="Rectangle 104" width="21.122" height="30.791" transform="translate(358.768 211.593)" fill="#73d8f5"/>
        <rect id="Rectangle_105" data-name="Rectangle 105" width="1.379" height="30.791" transform="translate(378.511 211.593)" fill="#49a7e2"/>
        <rect id="Rectangle_106" data-name="Rectangle 106" width="25.581" height="2.607" transform="translate(356.439 242.384)" fill="#fbf9f5"/>
        <path id="Path_529" data-name="Path 529" d="M326.471,306.428,313.135,318.6v16.934l19.743-18.029V306.428Z" transform="translate(45.633 -94.835)" fill="#98e5ff" fill-rule="evenodd"/>
        <path id="Path_530" data-name="Path 530" d="M328.571,306.428V317.51l1.379-1.259v-9.823Z" transform="translate(49.941 -94.835)" fill="#61c0fc" fill-rule="evenodd"/>
        <rect id="Rectangle_107" data-name="Rectangle 107" width="23.996" height="33.666" transform="translate(396.121 210.156)" fill="#fcdec9"/>
        <rect id="Rectangle_108" data-name="Rectangle 108" width="21.122" height="30.791" transform="translate(397.558 211.593)" fill="#73d8f5"/>
        <rect id="Rectangle_109" data-name="Rectangle 109" width="1.379" height="30.791" transform="translate(417.301 211.593)" fill="#49a7e2"/>
        <rect id="Rectangle_110" data-name="Rectangle 110" width="25.583" height="2.607" transform="translate(395.226 242.384)" fill="#fbf9f5"/>
        <path id="Path_531" data-name="Path 531" d="M356.8,306.428,343.461,318.6v16.934L363.2,317.51V306.428Z" transform="translate(54.096 -94.835)" fill="#98e5ff" fill-rule="evenodd"/>
        <path id="Path_532" data-name="Path 532" d="M358.9,306.428V317.51l1.379-1.259v-9.823Z" transform="translate(58.404 -94.835)" fill="#61c0fc" fill-rule="evenodd"/>
        <rect id="Rectangle_111" data-name="Rectangle 111" width="23.996" height="33.666" transform="translate(357.331 256.278)" fill="#fcdec9"/>
        <rect id="Rectangle_112" data-name="Rectangle 112" width="21.122" height="30.791" transform="translate(358.768 257.715)" fill="#73d8f5"/>
        <rect id="Rectangle_113" data-name="Rectangle 113" width="1.379" height="30.791" transform="translate(378.511 257.715)" fill="#49a7e2"/>
        <rect id="Rectangle_114" data-name="Rectangle 114" width="25.581" height="2.606" transform="translate(356.439 288.506)" fill="#fbf9f5"/>
        <path id="Path_533" data-name="Path 533" d="M326.471,342.488l-13.336,12.179V371.6l19.743-18.029V342.488Z" transform="translate(45.633 -84.773)" fill="#98e5ff" fill-rule="evenodd"/>
        <path id="Path_534" data-name="Path 534" d="M328.571,342.488V353.57l1.379-1.259v-9.823Z" transform="translate(49.941 -84.773)" fill="#61c0fc" fill-rule="evenodd"/>
        <rect id="Rectangle_115" data-name="Rectangle 115" width="23.996" height="33.666" transform="translate(396.121 256.278)" fill="#fcdec9"/>
        <rect id="Rectangle_116" data-name="Rectangle 116" width="21.122" height="30.791" transform="translate(397.558 257.715)" fill="#73d8f5"/>
        <rect id="Rectangle_117" data-name="Rectangle 117" width="1.379" height="30.791" transform="translate(417.301 257.715)" fill="#49a7e2"/>
        <rect id="Rectangle_118" data-name="Rectangle 118" width="25.583" height="2.606" transform="translate(395.226 288.506)" fill="#fbf9f5"/>
        <path id="Path_535" data-name="Path 535" d="M356.8,342.488l-13.336,12.179V371.6L363.2,353.57V342.488Z" transform="translate(54.096 -84.773)" fill="#98e5ff" fill-rule="evenodd"/>
        <path id="Path_536" data-name="Path 536" d="M358.9,342.488V353.57l1.379-1.259v-9.823Z" transform="translate(58.404 -84.773)" fill="#61c0fc" fill-rule="evenodd"/>
        <path id="Path_537" data-name="Path 537" d="M112.157,281.848h84.774v18.111H101.8Z" transform="translate(-13.341 -101.695)" fill="#a76b58" fill-rule="evenodd"/>
        <path id="Path_538" data-name="Path 538" d="M388.123,281.848H303.349v18.111h95.125Z" transform="translate(42.902 -101.695)" fill="#a76b58" fill-rule="evenodd"/>
        <path id="Path_539" data-name="Path 539" d="M123.433,389.171c-.675-1.013-12.684-6.785-12.684-6.785,12.092-6,22.569-12.975,21.638-12.637,34.859-12.572,86.092-40.216,124.134-22.125,11.141,5.3,17.142,11.253,19.066,13.38v12.049Z" transform="translate(-10.845 -85.004)" fill="#dbedf7" fill-rule="evenodd"/>
        <path id="Path_540" data-name="Path 540" d="M391.775,389.171c.674-1.013,12.684-6.785,12.684-6.785-11.586-5.833-22.569-12.975-21.638-12.637-34.859-12.572-86.094-40.216-124.135-22.125-11.139,5.3-17.141,11.253-19.063,13.38v12.049Z" transform="translate(25.119 -85.004)" fill="#dbedf7" fill-rule="evenodd"/>
        <path id="Path_541" data-name="Path 541" d="M242.637,387.038a6.034,6.034,0,0,0,5.514-3.8l.647-1.49,1.61-.21c.164-.019.328-.041.49-.063l.9-.109a.154.154,0,0,1,.033,0l4.6-.565-1.555,4.363a12.9,12.9,0,0,1-24.474,0l-1.55-4.348,4.583.547.029,0,.9.109.506.065,1.61.21.645,1.49a6.038,6.038,0,0,0,5.517,3.792Z" transform="translate(22.113 -74.08)" fill="#47323e" fill-rule="evenodd"/>
        <path id="Path_542" data-name="Path 542" d="M278.092,370.641c-44.221-48.679-105.442,4.7-164.838,9.333q-5.74,10.3-11.485,20.607c87.994-2.021,135.548-14.334,176.322-6.371,40.771-7.963,88.326,4.35,176.321,6.371q-5.742-10.3-11.485-20.607c-59.4-4.634-120.617-58.012-164.836-9.333Z" transform="translate(-13.35 -82.593)" fill="#b3c9d2" stroke="#dbedf7" stroke-miterlimit="10" stroke-width="0.013" fill-rule="evenodd"/>
        <path id="Path_543" data-name="Path 543" d="M233.91,383.215a43.5,43.5,0,0,1,1.631-6.088,24.161,24.161,0,0,1,4.533-7.891c.521-.608,1.065-1.2,1.624-1.769.558.573,1.1,1.161,1.623,1.769a24.162,24.162,0,0,1,4.533,7.891,43.348,43.348,0,0,1,1.632,6.088c.34,1.711.613,3.443.839,5.179l.881-.109c-1.7-13.027-4.848-17.423-9.509-22.082-4.663,4.658-7.81,9.055-9.51,22.082l.88.109c.228-1.736.5-3.468.842-5.179Z" transform="translate(23.044 -78.155)" fill="#ec9250" fill-rule="evenodd"/>
        <path id="Path_544" data-name="Path 544" d="M241.711,389.156a8.9,8.9,0,0,1-8.14-5.517c-.164-.019-.331-.041-.5-.063l-.88-.109-.026,0a10.037,10.037,0,0,0,19.086,0l-.042.005-.881.109c-.159.019-.32.041-.48.063a8.9,8.9,0,0,1-8.14,5.517Z" transform="translate(23.039 -73.338)" fill="#a76b58" fill-rule="evenodd"/>
        <path id="Path_545" data-name="Path 545" d="M241.513,393.7c4.786,0,8-3.609,8.62-5.579-.226-1.736-.5-3.468-.839-5.179a43.354,43.354,0,0,0-1.632-6.088,24.164,24.164,0,0,0-4.533-7.891c-.521-.608-1.065-1.2-1.623-1.769-.559.573-1.1,1.161-1.624,1.769a24.163,24.163,0,0,0-4.533,7.891,43.517,43.517,0,0,0-1.631,6.088c-.341,1.711-.614,3.443-.842,5.179a8.991,8.991,0,0,0,8.637,5.579Z" transform="translate(23.236 -77.879)" fill="#304344" fill-rule="evenodd"/>
        <path id="Path_546" data-name="Path 546" d="M98.534,395.522l170.013-8.741-1.664-3.545L98.348,391.893Z" transform="translate(-14.305 -73.401)" fill="#47323e" fill-rule="evenodd"/>
        <path id="Path_547" data-name="Path 547" d="M418.271,395.478,248.257,386.74l1.666-3.544,168.535,8.654Z" transform="translate(27.528 -73.413)" fill="#47323e" fill-rule="evenodd"/>
        <path id="Path_548" data-name="Path 548" d="M198.663,374.021c-22.41,5.07-58.453,15.583-80.36,13.893a36.588,36.588,0,0,1-11.829-2.609c10.286,2.566,17.578,2.438,28.066,1.054,23.773-3.137,48.379-11.642,72.4-15.931,25.424-4.538,40.668-7.788,58.756,4.383-22.556-7.612-26.393-9.989-67.034-.791Z" transform="translate(-12.037 -78.115)" fill="#9baeb8" fill-rule="evenodd"/>
        <path id="Path_549" data-name="Path 549" d="M257.022,365.882c-10.392-4.539-15.917-6.264-27.507-6.23-25.9.075-60.283,13.245-86.195,19.371a84.434,84.434,0,0,1-11.752,2.185,35.64,35.64,0,0,1,3.735-1.113c13.069-3.508,25.612-7.627,38.5-11.639,22.418-6.976,62.4-18.385,83.214-2.573Z" transform="translate(-5.035 -80.47)" fill="#9baeb8" fill-rule="evenodd"/>
        <path id="Path_550" data-name="Path 550" d="M254.066,381.5c-12.109-5.112-19.723-6.464-32.539-5.683-14.433.877-31.858,5.082-46.187,8.075-10.212,2.131-26.5,5.628-36.593,5.671,5.189-1.239,10.913-2.062,16.233-3.157,14.247-2.929,28.854-7.129,42.956-9.712,18.277-3.347,39.772-6.052,56.13,4.805Z" transform="translate(-3.032 -76.05)" fill="#9baeb8" fill-rule="evenodd"/>
        <path id="Path_551" data-name="Path 551" d="M315.6,374.207c22.413,5.072,58.453,15.584,80.36,13.895a36.67,36.67,0,0,0,11.83-2.609c-10.286,2.566-17.578,2.438-28.068,1.054-23.771-3.138-48.378-11.642-72.4-15.932C281.9,366.076,266.66,362.826,248.57,375c22.557-7.613,26.393-9.991,67.034-.792Z" transform="translate(27.616 -78.063)" fill="#9baeb8" fill-rule="evenodd"/>
        <path id="Path_552" data-name="Path 552" d="M249.879,366.069c10.392-4.541,15.917-6.265,27.506-6.23,25.9.074,60.283,13.245,86.195,19.371a84.835,84.835,0,0,0,11.752,2.185,35.293,35.293,0,0,0-3.735-1.117c-13.068-3.506-25.609-7.625-38.5-11.636-22.417-6.976-62.4-18.386-83.213-2.573Z" transform="translate(27.981 -80.418)" fill="#9baeb8" fill-rule="evenodd"/>
        <path id="Path_553" data-name="Path 553" d="M250.623,381.691c12.109-5.111,19.724-6.464,32.539-5.685,14.434.88,31.858,5.083,46.188,8.076,10.211,2.133,26.506,5.63,36.593,5.672-5.189-1.239-10.914-2.061-16.233-3.155-14.249-2.93-28.855-7.131-42.956-9.713-18.278-3.346-39.774-6.051-56.132,4.805Z" transform="translate(28.189 -75.998)" fill="#9baeb8" fill-rule="evenodd"/>
        <path id="Path_554" data-name="Path 554" d="M274.237,376.63c-33.58-44.849-116.008-15.745-158.651,4l22.659-27.085c42.625-24.117,135.992-49.453,135.992,23.086Z" transform="translate(-9.495 -88.582)" fill="#fbffff" fill-rule="evenodd"/>
        <path id="Path_555" data-name="Path 555" d="M270,377.937c-40.2-35.2-82.355-31.052-139.231-10.694,2.628-3.975,12.517-21.223,16.119-27.36s46.879-20.941,78.968-13.847C270.266,335.851,270,379.2,270,377.937Z" transform="translate(-5.258 -89.889)" fill="#ebfdff" fill-rule="evenodd"/>
        <path id="Path_556" data-name="Path 556" d="M188.755,289.177c-12.447,13.6-25.168,27.23-37.381,40.943,31.965,6.455,74.875,11.335,112.876,57.578,0-22.15,2.195-38.8-17.833-57.015-15.823-14.4-39.161-22.859-57.663-41.506Z" transform="translate(0.492 -99.65)" fill="#fbffff"/>
        <path id="Path_557" data-name="Path 557" d="M239.623,376.63c33.579-44.849,116.007-15.745,158.652,4l-22.661-27.085c-42.626-24.117-135.991-49.453-135.991,23.086Z" transform="translate(25.119 -88.582)" fill="#fbffff" fill-rule="evenodd"/>
        <path id="Path_558" data-name="Path 558" d="M239.635,381.433c40.2-35.2,79.485-48.109,133.654-37.548-2.627-3.975-15.724-26.122-19.325-32.257,0,0-45.28,3.014-76.1,16.212-41.4,17.736-38.232,54.857-38.232,53.593Z" transform="translate(25.107 -93.384)" fill="#ebfdff" fill-rule="evenodd"/>
        <path id="Path_559" data-name="Path 559" d="M328.266,361.746h108.11c2.659,0,5.326.88,5.914,1.966,2.435,4.487,5.064,9.322,7.906,14.561,3.1,5.715,6.7,8.589,10.427,15.456,1,1.847-1.3,6.764-4.878,6.764H310.112c-4.344,0-6.159-4.358-4.919-6.668,3.122-5.811,7.3-10.491,9.862-15.576,2.658-5.275,5.173-10.1,7.456-14.568.55-1.073,3.118-1.934,5.756-1.934Z" transform="translate(43.31 -79.398)" fill="#3b4851" fill-rule="evenodd"/>
        <path id="Path_560" data-name="Path 560" d="M328.188,358.7H436.3c2.659,0,5.326.88,5.914,1.965,2.435,4.487,5.064,9.322,7.906,14.562,3.1,5.715,6.494,11.959,10.222,18.826,1,1.847-1.091,3.392-4.674,3.392H310.034c-3.552,0-5.657-1.521-4.717-3.359,3.514-6.869,6.723-13.145,9.659-18.884,2.691-5.26,5.172-10.1,7.456-14.569.55-1.073,3.118-1.934,5.756-1.934Z" transform="translate(43.389 -80.248)" fill="#b4cbcb" fill-rule="evenodd"/>
        <path id="Path_561" data-name="Path 561" d="M326.512,360.992q26.135,0,52.343.015,26.1.01,52.308.019,2.1,4.451,4.423,9.369l5.193,11.013q-30.811,0-61.621,0-30.834,0-61.666.005,2.583-5.85,4.882-11.051,2.181-4.94,4.138-9.373Z" transform="translate(46.849 -79.609)" fill="#2c3e48" fill-rule="evenodd"/>
        <path id="Path_562" data-name="Path 562" d="M347.09,378.587c8.109,0,16.2,0,24.342,0,8.08,0,16.2,0,24.324,0,.678,3.525,1.392,7.229,2.149,11.139q-13.175,0-26.3,0-13.173,0-26.318.005.946-5.852,1.807-11.141Z" transform="translate(54.604 -74.701)" fill="#2c3e48" fill-rule="evenodd"/>
        <path id="Path_563" data-name="Path 563" d="M322.5,299.206H435.169a3.247,3.247,0,0,1,3.239,3.236v69.627a3.247,3.247,0,0,1-3.239,3.236H322.5a3.245,3.245,0,0,1-3.236-3.236V302.442a3.246,3.246,0,0,1,3.236-3.236Z" transform="translate(47.343 -96.851)" fill="#eafdff" fill-rule="evenodd"/>
        <rect id="Rectangle_119" data-name="Rectangle 119" width="112.064" height="69.019" transform="translate(370.144 205.895)" fill="#212c36"/>
        <rect id="Rectangle_120" data-name="Rectangle 120" width="57.447" height="0.81" transform="translate(376.377 212.449)" fill="#00afff"/>
        <rect id="Rectangle_121" data-name="Rectangle 121" width="48.143" height="0.81" transform="translate(385.682 216.09)" fill="#00afff"/>
        <rect id="Rectangle_122" data-name="Rectangle 122" width="48.143" height="0.81" transform="translate(385.682 219.731)" fill="#00afff"/>
        <rect id="Rectangle_123" data-name="Rectangle 123" width="34.741" height="0.81" transform="translate(385.682 223.372)" fill="#00afff"/>
        <rect id="Rectangle_124" data-name="Rectangle 124" width="57.447" height="0.808" transform="translate(376.377 227.015)" fill="#00afff"/>
        <rect id="Rectangle_125" data-name="Rectangle 125" width="62.557" height="0.808" transform="translate(376.377 230.656)" fill="#00afff"/>
        <rect id="Rectangle_126" data-name="Rectangle 126" width="57.447" height="0.808" transform="translate(376.377 234.297)" fill="#00afff"/>
        <rect id="Rectangle_127" data-name="Rectangle 127" width="34.741" height="0.808" transform="translate(376.377 237.938)" fill="#00afff"/>
        <rect id="Rectangle_128" data-name="Rectangle 128" width="69.332" height="0.808" transform="translate(376.377 241.579)" fill="#00afff"/>
        <rect id="Rectangle_129" data-name="Rectangle 129" width="48.143" height="0.808" transform="translate(385.682 245.22)" fill="#00afff"/>
        <rect id="Rectangle_130" data-name="Rectangle 130" width="48.143" height="0.808" transform="translate(385.682 248.861)" fill="#00afff"/>
        <rect id="Rectangle_131" data-name="Rectangle 131" width="48.143" height="0.808" transform="translate(385.682 252.502)" fill="#00afff"/>
        <rect id="Rectangle_132" data-name="Rectangle 132" width="57.447" height="0.81" transform="translate(376.377 256.143)" fill="#00afff"/>
        <rect id="Rectangle_133" data-name="Rectangle 133" width="67.816" height="0.81" transform="translate(376.377 259.784)" fill="#00afff"/>
        <rect id="Rectangle_134" data-name="Rectangle 134" width="57.447" height="0.81" transform="translate(376.377 263.425)" fill="#00afff"/>
        <rect id="Rectangle_135" data-name="Rectangle 135" width="33.427" height="0.81" transform="translate(376.377 267.066)" fill="#00afff"/>
        <rect id="Rectangle_136" data-name="Rectangle 136" width="33.427" height="0.81" transform="translate(376.377 270.706)" fill="#00afff"/>
        <path id="Path_564" data-name="Path 564" d="M247.437,179.28h-7.7c-2.049,0-2.371.877-1.256,1.6h0a6.476,6.476,0,0,0,3.149.813h3.914a6.476,6.476,0,0,0,3.149-.813h0c1.114-.72.793-1.6-1.255-1.6Z" transform="translate(24.623 -130.318)" fill="#e8fce1"/>
        <path id="Path_565" data-name="Path 565" d="M246.113,141a16.5,16.5,0,0,0-11.13,28.675,4.2,4.2,0,0,0,.1.532l4.473,17a1.626,1.626,0,0,0,1.563,1.046H251.1a1.628,1.628,0,0,0,1.564-1.046l4.474-17a4.423,4.423,0,0,0,.1-.532A16.5,16.5,0,0,0,246.113,141Z" transform="translate(22.326 -141)" fill="#f9e791"/>
        <path id="Path_566" data-name="Path 566" d="M243.282,166.256a11.567,11.567,0,1,1,7.837-3.061l.521-2.806a1.36,1.36,0,0,0,.494-.616c.3-.794-.286-1.938-1.509-2.769-.081.1-.164.2-.246.308,1.118.725,1.642,1.708,1.385,2.339a1.022,1.022,0,0,1-.462.491q-.318,1.727-.637,3.453a11.529,11.529,0,0,1-7.383,2.66Zm-2.932-20.418a6.213,6.213,0,1,0,6.212,6.214,6.215,6.215,0,0,0-6.212-6.214Z" transform="translate(22.912 -140.407)" fill="#fbfcad"/>
        <path id="Path_567" data-name="Path 567" d="M239.822,157.672a6.213,6.213,0,1,1,6.212-6.212,6.214,6.214,0,0,1-6.212,6.212Zm-1.663-10.524a2.919,2.919,0,1,0,2.92,2.92,2.92,2.92,0,0,0-2.92-2.92Z" transform="translate(23.441 -139.815)" fill="#fbffd2"/>
        <path id="Path_568" data-name="Path 568" d="M237.8,152.572a2.919,2.919,0,1,1,2.92-2.919,2.919,2.919,0,0,1-2.92,2.919Z" transform="translate(23.797 -139.4)" fill="#fcffff"/>
        <path id="Path_569" data-name="Path 569" d="M237.232,156.623c-.257-.632.267-1.614,1.385-2.339-.082-.1-.165-.206-.247-.308-1.223.831-1.807,1.975-1.508,2.769a1.329,1.329,0,0,0,.492.617q1.569,8.451,3.14,16.9h.37q-1.587-8.574-3.171-17.148a1.01,1.01,0,0,1-.462-.491Z" transform="translate(24.327 -137.379)" fill="#94a1a9"/>
        <path id="Path_570" data-name="Path 570" d="M247.043,153.975c-.081.1-.164.2-.246.308,1.118.725,1.642,1.708,1.385,2.339a1.022,1.022,0,0,1-.462.491q-1.587,8.574-3.172,17.148h.37q1.571-8.451,3.14-16.9a1.36,1.36,0,0,0,.494-.617c.3-.794-.286-1.938-1.509-2.769Z" transform="translate(26.494 -137.379)" fill="#94a1a9"/>
        <path id="Path_571" data-name="Path 571" d="M236,171.127a.93.93,0,0,0-.243,1.812c-.971.3-.776,1.953.224,1.953h.024c-.882.4-.641,1.917.312,1.917h.121c-.88.4-.64,1.919.313,1.919h.281c-.88.4-.638,1.92.315,1.92h.357l.017.064a1.047,1.047,0,0,0,.253,1.833h12.885a1.048,1.048,0,0,0,.255-1.833l.015-.064h.357c.953,0,1.195-1.52.315-1.92h.281c.953,0,1.193-1.519.312-1.919h.121c.954,0,1.2-1.518.315-1.917h.024c1,0,1.193-1.651.224-1.953.817-.255.877-1.755.063-1.812Z" transform="translate(23.863 -132.593)" fill="#3b4851"/>
        <path id="Path_572" data-name="Path 572" d="M248.963,154.8a4.2,4.2,0,0,0-1.512-1.14,1.562,1.562,0,0,0-.684-.115,1.144,1.144,0,0,0-.652.267,2.692,2.692,0,0,0-.75,1.166c-.183.476-.445.574-.762.452a2.905,2.905,0,0,1-.9-.792,5.6,5.6,0,0,0-.792-.774.6.6,0,0,0-.953.141,5.54,5.54,0,0,0-.432.73,1.867,1.867,0,0,1-.363.55c-.352.307-.734.118-1.663-.952-.38-.435-.668-.288-.88-.1-.059.052-.107.1-.152.141a1.563,1.563,0,0,1-.2.175l-.247-.347a1.644,1.644,0,0,0,.146-.134c.054-.052.113-.109.168-.157.365-.316.858-.573,1.482.147.71.816.948,1.007,1.063.908h0a1.739,1.739,0,0,0,.263-.426,6.055,6.055,0,0,1,.463-.783.97.97,0,0,1,1.549-.238,6,6,0,0,1,.861.835,2.872,2.872,0,0,0,.734.679c.072.027.141-.023.212-.206a3.11,3.11,0,0,1,.881-1.347,1.581,1.581,0,0,1,.886-.361,2.023,2.023,0,0,1,.868.143,4.676,4.676,0,0,1,1.692,1.271Z" transform="translate(24.673 -137.62)" fill="#94a1a9"/>
        <path id="Path_573" data-name="Path 573" d="M236.359,171.529H252.01a.378.378,0,0,1,.377.377h0a.377.377,0,0,1-.377.376H236.359a.378.378,0,0,1-.377-.376h0a.379.379,0,0,1,.377-.377Z" transform="translate(24.103 -132.481)" fill="#566670" fill-rule="evenodd"/>
        <path id="Path_574" data-name="Path 574" d="M236.359,172.93H252.01a.378.378,0,0,1,.377.376h0a.377.377,0,0,1-.377.377H236.359a.378.378,0,0,1-.377-.377h0a.379.379,0,0,1,.377-.376Z" transform="translate(24.103 -132.09)" fill="#566670" fill-rule="evenodd"/>
        <path id="Path_575" data-name="Path 575" d="M236.359,174.436H252.01a.377.377,0,0,1,.377.376h0a.378.378,0,0,1-.377.377H236.359a.379.379,0,0,1-.377-.377h0a.378.378,0,0,1,.377-.376Z" transform="translate(24.103 -131.669)" fill="#566670" fill-rule="evenodd"/>
        <path id="Path_576" data-name="Path 576" d="M236.652,176.024h14.9a.378.378,0,0,1,.376.376h0a.378.378,0,0,1-.376.377h-14.9a.378.378,0,0,1-.376-.377h0a.378.378,0,0,1,.376-.376Z" transform="translate(24.185 -131.226)" fill="#566670" fill-rule="evenodd"/>
        <path id="Path_577" data-name="Path 577" d="M237.264,177.576H250.6a.377.377,0,0,1,.376.377h0a.377.377,0,0,1-.376.376H237.264a.377.377,0,0,1-.376-.376h0a.376.376,0,0,1,.376-.377Z" transform="translate(24.356 -130.793)" fill="#566670" fill-rule="evenodd"/>
        <path id="Path_578" data-name="Path 578" d="M237.9,178.886h11.716a.378.378,0,0,1,.376.376h0a.378.378,0,0,1-.376.377H237.9a.378.378,0,0,1-.377-.377h0a.379.379,0,0,1,.377-.376Z" transform="translate(24.532 -130.428)" fill="#566670" fill-rule="evenodd"/>
        <path id="Path_579" data-name="Path 579" d="M108.67,328.318l3.847-4.579a.534.534,0,0,0-.065-.752l-1.34-1.126a.535.535,0,0,0-.752.065l-3.849,4.577a.532.532,0,0,0,.065.752l1.34,1.128a.538.538,0,0,0,.753-.065Z" transform="translate(-12.062 -90.564)" fill="#4a4e53" fill-rule="evenodd"/>
        <path id="Path_580" data-name="Path 580" d="M109.014,330.036l5.211-6.194a.355.355,0,0,0-.041-.5l-8.618-7.246a.352.352,0,0,0-.5.044l-5.208,6.194a.355.355,0,0,0,.041.5l8.616,7.246a.351.351,0,0,0,.5-.044Z" transform="translate(-13.906 -92.16)" fill="#ebfdff" fill-rule="evenodd"/>
        <rect id="Rectangle_137" data-name="Rectangle 137" width="3.107" height="11.087" transform="matrix(0.644, -0.765, 0.765, 0.644, 86.699, 230.121)" fill="#fbffff"/>
        <path id="Path_581" data-name="Path 581" d="M101.569,333.406l4.628-3.6a.524.524,0,0,0,.091-.733l-1.054-1.356a.522.522,0,0,0-.735-.091l-4.626,3.6a.529.529,0,0,0-.092.735l1.054,1.355a.526.526,0,0,0,.735.092Z" transform="translate(-13.936 -88.951)" fill="#4a4e53" fill-rule="evenodd"/>
        <path id="Path_582" data-name="Path 582" d="M101.612,335.07l6.264-4.871a.347.347,0,0,0,.06-.485L101.161,321a.346.346,0,0,0-.485-.06l-6.262,4.871a.347.347,0,0,0-.06.485l6.774,8.709a.345.345,0,0,0,.485.06Z" transform="translate(-15.44 -90.805)" fill="#ebfdff" fill-rule="evenodd"/>
        <rect id="Rectangle_138" data-name="Rectangle 138" width="3.046" height="10.866" transform="translate(79.699 235.11) rotate(-37.895)" fill="#fbffff"/>
        <path id="Path_583" data-name="Path 583" d="M93.155,336.954l4.933-1.857a.47.47,0,0,0,.275-.605l-.542-1.444a.471.471,0,0,0-.608-.275l-4.933,1.855a.472.472,0,0,0-.275.608l.542,1.444a.474.474,0,0,0,.608.275Z" transform="translate(-16.084 -87.492)" fill="#4a4e53" fill-rule="evenodd"/>
        <path id="Path_584" data-name="Path 584" d="M92.811,338.308l6.677-2.512a.314.314,0,0,0,.184-.4l-3.494-9.286a.313.313,0,0,0-.4-.18l-6.679,2.51a.313.313,0,0,0-.18.4l3.493,9.286a.312.312,0,0,0,.4.183Z" transform="translate(-16.943 -89.399)" fill="#ebfdff" fill-rule="evenodd"/>
        <rect id="Rectangle_139" data-name="Rectangle 139" width="2.738" height="9.771" transform="matrix(0.936, -0.351, 0.351, 0.936, 72.757, 239.317)" fill="#fbffff"/>
        <path id="Path_585" data-name="Path 585" d="M99.1,400.024V389a38.5,38.5,0,0,1-16.528-73.276l-4.745-9.956A49.531,49.531,0,0,0,99.1,400.024Z" transform="translate(-27.916 -95.021)" fill="#b7d5ee"/>
        <path id="Path_586" data-name="Path 586" d="M77.826,305.765l3.482,7.306c-14.185,8.1-23.1,22.354-23.1,37.671C58.21,372.66,75.9,390.9,99.1,394.589v5.435a49.531,49.531,0,0,1-21.273-94.259Z" transform="translate(-27.916 -95.021)" fill="#f2ffff"/>
        <rect id="Rectangle_140" data-name="Rectangle 140" width="83.031" height="8.555" transform="translate(35.365 312.672)" fill="#4a4e54"/>
        <path id="Path_587" data-name="Path 587" d="M65.837,387.7h68.836l-7.352-10.173H73.188Z" transform="translate(-23.378 -74.995)" fill="#1a292e"/>
        <rect id="Rectangle_141" data-name="Rectangle 141" width="64.522" height="9.954" transform="translate(49.644 266.031)" fill="#3b4851"/>
        <path id="Path_588" data-name="Path 588" d="M79.359,384.46l22.895-.731v-9.954l9.218-7.048v-9.956H80v9.956Z" transform="translate(-19.604 -80.787)" fill="#1b252c"/>
        <path id="Path_589" data-name="Path 589" d="M72.306,378.105a13.555,13.555,0,1,0,13.559-13.554,13.554,13.554,0,0,0-13.559,13.554Z" transform="translate(-21.573 -78.616)" fill="#16242d"/>
        <path id="Path_590" data-name="Path 590" d="M74.461,377.5a10.8,10.8,0,1,0,10.8-10.8,10.8,10.8,0,0,0-10.8,10.8Z" transform="translate(-20.971 -78.014)" fill="#566670"/>
        <rect id="Rectangle_142" data-name="Rectangle 142" width="64.522" height="2.279" transform="translate(49.644 266.031)" fill="#8597a2"/>
        <rect id="Rectangle_143" data-name="Rectangle 143" width="30.661" height="51.922" transform="matrix(0.82, -0.572, 0.572, 0.82, 41.05, 199.859)" fill="#eaffff"/>
        <rect id="Rectangle_144" data-name="Rectangle 144" width="19.401" height="8.761" transform="matrix(0.821, -0.572, 0.572, 0.821, 40.662, 189.449)" fill="#3b4851"/>
        <rect id="Rectangle_145" data-name="Rectangle 145" width="11.895" height="8.762" transform="translate(38.736 180.121) rotate(-34.885)" fill="#1e312d"/>
        <rect id="Rectangle_146" data-name="Rectangle 146" width="5.367" height="19.748" transform="translate(41.627 210.148) rotate(-34.867)" fill="#3b4851"/>
        <rect id="Rectangle_147" data-name="Rectangle 147" width="31.309" height="6.262" transform="translate(67.262 238.235) rotate(-34.806)" fill="#4a4e53"/>
        <path id="Path_591" data-name="Path 591" d="M86.366,286.531l-8.512,5.891,22.825,33.154,8.509-5.891Z" transform="translate(-20.024 -100.388)" fill="#fbffff" fill-rule="evenodd"/>
        <path id="Path_592" data-name="Path 592" d="M77.589,376.633a6.8,6.8,0,1,0,6.8-6.8,6.8,6.8,0,0,0-6.8,6.8Z" transform="translate(-20.098 -77.141)" fill="#3b4851"/>
        <path id="Path_593" data-name="Path 593" d="M117.974,340.73l51.043-19.508a6.122,6.122,0,0,1,7.906,3.457l24.192,63.3a6.119,6.119,0,0,1-3.583,7.848l-51.046,19.507a6.116,6.116,0,0,1-7.9-3.455l-24.195-63.3a6.122,6.122,0,0,1,3.585-7.85Z" transform="translate(-9.938 -90.821)" fill="#7b8b97" fill-rule="evenodd"/>
        <path id="Path_594" data-name="Path 594" d="M118.355,340.727l50.221-19.195a6.014,6.014,0,0,1,7.772,3.384l23.729,62.089a6.014,6.014,0,0,1-3.535,7.7L146.323,413.9a6.014,6.014,0,0,1-7.772-3.383l-23.729-62.089a6.012,6.012,0,0,1,3.533-7.7Z" transform="translate(-9.815 -90.733)" fill="#e3f5ff" fill-rule="evenodd"/>
        <path id="Path_595" data-name="Path 595" d="M183.324,343.17l-6.979-18.254a6.01,6.01,0,0,0-7.769-3.384l-50.221,19.195a6.012,6.012,0,0,0-3.533,7.7l6.927,18.123Z" transform="translate(-9.815 -90.733)" fill="#c9dbe5" fill-rule="evenodd"/>
        <path id="Path_596" data-name="Path 596" d="M173.288,338.305a2.587,2.587,0,0,1-1.3,3.407l-42.861,16.381a2.587,2.587,0,0,1-3.244-1.67l-3.46-9.059a2.586,2.586,0,0,1,1.3-3.406l42.863-16.382a2.587,2.587,0,0,1,3.24,1.673Z" transform="translate(-7.643 -88.974)" fill="#485a64" fill-rule="evenodd"/>
        <path id="Path_597" data-name="Path 597" d="M171.869,337.828a2.328,2.328,0,0,1-1.346,3.008l-41.087,15.7a2.334,2.334,0,0,1-3.012-1.346l-2.966-7.764a2.332,2.332,0,0,1,1.346-3.01l41.087-15.7a2.33,2.33,0,0,1,3.01,1.346Z" transform="translate(-7.341 -88.658)" fill="#2c3e48" fill-rule="evenodd"/>
        <rect id="Rectangle_148" data-name="Rectangle 148" width="10.39" height="10.387" rx="1.822" transform="matrix(0.934, -0.357, 0.357, 0.934, 120.566, 274.9)" fill="#485a64"/>
        <path id="Rectangle_149" data-name="Rectangle 149" d="M1.823,0H8.565a1.822,1.822,0,0,1,1.822,1.822V8.569A1.821,1.821,0,0,1,8.567,10.39H1.822A1.822,1.822,0,0,1,0,8.568V1.823A1.823,1.823,0,0,1,1.823,0Z" transform="translate(133.183 270.078) rotate(-20.923)" fill="#485a64"/>
        <path id="Rectangle_150" data-name="Rectangle 150" d="M1.821,0H8.566a1.822,1.822,0,0,1,1.822,1.822V8.567A1.822,1.822,0,0,1,8.566,10.39H1.822A1.822,1.822,0,0,1,0,8.568V1.821A1.821,1.821,0,0,1,1.821,0Z" transform="matrix(0.934, -0.357, 0.357, 0.934, 145.724, 265.284)" fill="#485a64"/>
        <rect id="Rectangle_151" data-name="Rectangle 151" width="10.39" height="10.39" rx="1.822" transform="matrix(0.934, -0.357, 0.357, 0.934, 158.265, 260.49)" fill="#485a64"/>
        <path id="Rectangle_152" data-name="Rectangle 152" d="M1.823,0H8.565a1.822,1.822,0,0,1,1.822,1.822V8.567A1.822,1.822,0,0,1,8.565,10.39H1.822A1.822,1.822,0,0,1,0,8.568V1.823A1.823,1.823,0,0,1,1.823,0Z" transform="translate(124.893 286.221) rotate(-20.923)" fill="#485a64"/>
        <path id="Rectangle_153" data-name="Rectangle 153" d="M1.822,0H8.568A1.822,1.822,0,0,1,10.39,1.822V8.566A1.824,1.824,0,0,1,8.566,10.39H1.822A1.822,1.822,0,0,1,0,8.567V1.822A1.822,1.822,0,0,1,1.822,0Z" transform="matrix(0.934, -0.357, 0.357, 0.934, 137.509, 281.398)" fill="#485a64"/>
        <path id="Rectangle_154" data-name="Rectangle 154" d="M1.823,0H8.565a1.824,1.824,0,0,1,1.824,1.824V8.567A1.824,1.824,0,0,1,8.565,10.39H1.823A1.823,1.823,0,0,1,0,8.567V1.823A1.823,1.823,0,0,1,1.823,0Z" transform="translate(150.051 276.605) rotate(-20.923)" fill="#485a64"/>
        <path id="Rectangle_155" data-name="Rectangle 155" d="M1.821,0H8.566a1.822,1.822,0,0,1,1.822,1.822V8.565a1.823,1.823,0,0,1-1.823,1.823H1.823A1.823,1.823,0,0,1,0,8.565V1.821A1.821,1.821,0,0,1,1.821,0Z" transform="translate(162.593 271.813) rotate(-20.915)" fill="#485a64"/>
        <path id="Rectangle_156" data-name="Rectangle 156" d="M1.822,0H8.567A1.823,1.823,0,0,1,10.39,1.823V8.565a1.822,1.822,0,0,1-1.822,1.822H1.823A1.823,1.823,0,0,1,0,8.565V1.822A1.822,1.822,0,0,1,1.822,0Z" transform="translate(129.22 297.543) rotate(-20.915)" fill="#485a64"/>
        <path id="Rectangle_157" data-name="Rectangle 157" d="M1.823,0H8.566a1.823,1.823,0,0,1,1.823,1.823V8.565a1.823,1.823,0,0,1-1.823,1.823H1.822A1.822,1.822,0,0,1,0,8.565V1.823A1.823,1.823,0,0,1,1.823,0Z" transform="matrix(0.934, -0.357, 0.357, 0.934, 141.836, 292.722)" fill="#485a64"/>
        <rect id="Rectangle_158" data-name="Rectangle 158" width="10.39" height="10.387" rx="1.822" transform="translate(154.378 287.928) rotate(-20.915)" fill="#485a64"/>
        <path id="Rectangle_159" data-name="Rectangle 159" d="M1.823,0H8.565a1.822,1.822,0,0,1,1.822,1.822V8.565a1.823,1.823,0,0,1-1.823,1.823H1.823A1.823,1.823,0,0,1,0,8.565V1.823A1.823,1.823,0,0,1,1.823,0Z" transform="translate(133.547 308.864) rotate(-20.923)" fill="#485a64"/>
        <path id="Rectangle_160" data-name="Rectangle 160" d="M1.824,0H8.568A1.822,1.822,0,0,1,10.39,1.822V8.567A1.822,1.822,0,0,1,8.568,10.39H1.823A1.823,1.823,0,0,1,0,8.567V1.824A1.824,1.824,0,0,1,1.824,0Z" transform="matrix(0.934, -0.357, 0.357, 0.934, 146.163, 304.042)" fill="#485a64"/>
        <path id="Rectangle_161" data-name="Rectangle 161" d="M1.824,0H8.566a1.822,1.822,0,0,1,1.822,1.822V8.569A1.821,1.821,0,0,1,8.567,10.39H1.822A1.822,1.822,0,0,1,0,8.568V1.824A1.824,1.824,0,0,1,1.824,0Z" transform="translate(158.705 299.249) rotate(-20.923)" fill="#485a64"/>
        <path id="Path_598" data-name="Path 598" d="M179.9,378.163l-5.042-13.277a2.341,2.341,0,0,0-.129-.26l-1.2-3.135a2.33,2.33,0,0,0-3.01-1.346l-5.35,2.045a2.331,2.331,0,0,0-1.346,3.008l2.045,5.349a1.947,1.947,0,0,0,.11.219l4.217,11.1a2.333,2.333,0,0,0,3.01,1.346l5.35-2.045a2.33,2.33,0,0,0,1.343-3.008Z" transform="translate(3.924 -79.888)" fill="#fca219" fill-rule="evenodd"/>
        <path id="Path_599" data-name="Path 599" d="M286.6,313.754l1.4,1.589-.048.919-2.185,1.943-.924-.051-1.406-1.584.051-.919,2.18-1.951Z" transform="translate(37.347 -92.806)" fill="#a2b6c3" fill-rule="evenodd"/>
        <path id="Path_600" data-name="Path 600" d="M210.249,384.111c-1.378,1.229-2.7,1.992-2.947,1.714s.66-1.507,2.043-2.733,2.691-1.99,2.943-1.707-.66,1.5-2.039,2.727Z" transform="translate(16.088 -73.935)" fill="#1e2e38" fill-rule="evenodd"/>
        <path id="Path_601" data-name="Path 601" d="M264.287,362.46c-18.251,16.249-35.2,29.589-46.009,36.535l-5.533-6.216c8.164-9.937,23.372-25.219,41.622-41.463,18.687-16.641,36.029-30.237,46.783-37.039.07.068,1.253-.936,3.791,2.008,2.439,2.822,1.5,3.936,1.553,4-8.008,9.9-23.517,25.542-42.206,42.18Z" transform="translate(17.618 -92.677)" fill="#3f515d" fill-rule="evenodd"/>
        <path id="Path_602" data-name="Path 602" d="M288.794,317.108l.087-.052c-.528-.648-1.253-1.4-1.83-1.473-1.013-.13-22.106,16.977-26.54,21.182-7.017,6.646-6.559,9.635-16.717,10.951,0,0,42.429-34.8,43.015-34.937,2.027-.473,3.286,1.28,4.427,2.705l5.65,6.366q-.894,1.055-1.888,2.226l-5.431-6.1Z" transform="translate(26.283 -93.085)" fill="#a2b6c3" fill-rule="evenodd"/>
        <path id="Path_603" data-name="Path 603" d="M252.809,356.873c-.725.643-1.447,1.275-2.173,1.9l-9.859-11.087c.7-.648,1.42-1.289,2.132-1.935Z" transform="translate(25.441 -83.861)" fill="#a2b6c3" fill-rule="evenodd"/>
        <path id="Path_604" data-name="Path 604" d="M219.643,381.843c-4.542,2.932-8,4.727-10.014,5.141l-1.774-2.007c.627-1.943,2.818-5.176,6.255-9.35Z" transform="translate(16.254 -75.525)" fill="#a2b6c3" fill-rule="evenodd"/>
        <path id="Path_605" data-name="Path 605" d="M172.638,206.6l87.207-12.611L347.052,206.6v2.086l-87.207,12.611-87.207-12.611Z" transform="translate(6.426 -126.214)" fill="#3b4851" fill-rule="evenodd"/>
        <path id="Path_606" data-name="Path 606" d="M172.638,208.226l87.207-12.613,87.207,12.613-87.207,12.611Z" transform="translate(6.426 -125.76)" fill="#20282e" fill-rule="evenodd"/>
        <path id="Path_607" data-name="Path 607" d="M212.038,207.346H287.8l3.859,30.488-.032-.23c-.829-3.277-19.183-5.9-41.706-5.9-4.241,0-8.334.095-12.19.267-5.32.237-10.188.628-14.373,1.135-8.891,1.077-14.688,2.686-15.145,4.495Z" transform="translate(16.353 -122.485)" fill="#232d35"/>
        <path id="Path_608" data-name="Path 608" d="M249.079,214.883c20.864,0,37.881-2.751,37.881-6.127s-17.017-6.127-37.881-6.127-37.878,2.754-37.878,6.127,17.015,6.127,37.878,6.127Z" transform="translate(17.187 -123.801)" fill="#232d35" fill-rule="evenodd"/>
        <path id="Path_609" data-name="Path 609" d="M303.6,203.063v65.928a1.31,1.31,0,0,0,1.3,1.3h0a1.31,1.31,0,0,0,1.3-1.3V201.758a1.308,1.308,0,0,0-1.3-1.3H285.57Z" transform="translate(37.941 -124.408)" fill="#e43624" fill-rule="evenodd"/>
        <path id="Path_610" data-name="Path 610" d="M301.709,242.015c4.557,0,8.33,20.772-.056,29.132-8.434-8.41-4.528-29.132.056-29.132Z" transform="translate(41.044 -112.811)" fill="#e43624" fill-rule="evenodd"/>
        <path id="Path_611" data-name="Path 611" d="M300.219,240.9h1.792a1.226,1.226,0,0,1,1.223,1.221h0a1.226,1.226,0,0,1-1.223,1.223h-1.792A1.226,1.226,0,0,1,299,242.118h0a1.226,1.226,0,0,1,1.223-1.221Z" transform="translate(41.688 -113.123)" fill="#e76557" fill-rule="evenodd"/>
        <path id="Path_612" data-name="Path 612" d="M285.717,211.516c-20.521,8.132-45.43,12.9-72.286,12.9q-1.836,0-3.657-.028l-1.563,12.346c.83-3.277,19.186-5.9,41.708-5.9s40.878,2.62,41.706,5.9l-3.239-25.6-.084-.665q-1.28.535-2.585,1.051Z" transform="translate(16.353 -121.615)" fill="#263039" fill-rule="evenodd"/>
        <g id="Group_174" data-name="Group 174" transform="translate(342.283 34.423)">
          <path id="Path_613" data-name="Path 613" d="M367.565,226.415s-2.126,2.48-2.191,3.24.455,2.715.759,2.3a4.635,4.635,0,0,0,.357-1.707l.591-.716a29.143,29.143,0,0,0-.21,4.522c.2.7.586.684.586.684s.054.61.451.712a.548.548,0,0,0,.73-.343s.109.145.412-.019a1.386,1.386,0,0,0,.487-.564s.226.1.485-.215a1.268,1.268,0,0,0,.316-.594c.017-.068.417-2.9.463-3.024a5.158,5.158,0,0,0-.662-4.446c-1.563-1.823-.939-.523-2.573.174Z" transform="translate(-282.073 -151.895)" fill="#f2bfa9" fill-rule="evenodd"/>
          <path id="Path_614" data-name="Path 614" d="M325.865,193.274a1.735,1.735,0,0,0,1.862-.43,1.677,1.677,0,0,0,.834-2.109c-.308-.536-.91-1-1.124-1.411a1.792,1.792,0,0,0-2.515-.984c-1.367.523-2.03.746-2.057,2.221s1.789,2.746,3,2.713Z" transform="translate(-293.934 -162.266)" fill="#f0bea7" fill-rule="evenodd"/>
          <path id="Path_615" data-name="Path 615" d="M339.6,277.192a31.569,31.569,0,0,0-1.005,3.7s-8.705,3.835-7.475,4.734c1.915,1.4,9-.408,11.512-.948l-.013-3.988Z" transform="translate(-291.663 -137.417)" fill="#20282e" fill-rule="evenodd"/>
          <path id="Path_616" data-name="Path 616" d="M359.227,276.426a31.779,31.779,0,0,1,1.007,3.7s8.706,3.833,7.473,4.734c-1.911,1.4-10.922-.31-10.918-1.091l.013-3.988Z" transform="translate(-284.467 -137.631)" fill="#20282e" fill-rule="evenodd"/>
          <path id="Path_617" data-name="Path 617" d="M344.038,223.195c-3.6,19.813-5.2,49.076-7.1,72.763a24.229,24.229,0,0,0,4.024-.2c4.75-19.741,9.028-40.1,13.781-59.837,2.539,19.444,4.983,40.024,7.522,59.469.68.211,2.764-.3,3.507-.408s1.063-69.737.927-70.557-22.662-1.228-22.662-1.228Z" transform="translate(-290.007 -152.486)" fill="#7d3f50" fill-rule="evenodd"/>
          <path id="Path_618" data-name="Path 618" d="M352.053,182.764c.166,1.558.265,6.582-2.805,7.677a9.5,9.5,0,0,0-2.435,1.416c.087,4.735,11.116,5.989,15.726,1.7l-1.828-2.171c-3.86-.782-2.2-7.282-2-10.392Z" transform="translate(-287.251 -164.262)" fill="#f0af96" fill-rule="evenodd"/>
          <path id="Path_619" data-name="Path 619" d="M344.222,197.321c.5,17.443-2.553,30.215-3.253,39.815-.3,4.969,26.023,8.426,26.006,4.3-.492-14.141-.68-29.186.886-42.19L367.809,191c-.237-.05-.471-.1-.7-.159l-4.762-1.512a9.346,9.346,0,0,1-7.39,2.274c-4.547-.569-4.073-3.222-4.073-3.222-2.076.333-4.108.762-6.187,1.095Z" transform="translate(-288.883 -162.201)" fill="#305f72" fill-rule="evenodd"/>
          <path id="Path_620" data-name="Path 620" d="M360.451,176.515c.177.728-.74,3.822-1.531,5.591s-3.04,2.753-3.024,2.492.561-6.541.561-6.541Z" transform="translate(-284.717 -165.512)" fill="#7d6673" fill-rule="evenodd"/>
          <path id="Path_621" data-name="Path 621" d="M347.3,186.247c.779,4.313,2.662,5.6,5.734,4.1a13.226,13.226,0,0,0,5.789-6.023,2.3,2.3,0,0,0,2.433-1.342,2.564,2.564,0,0,0-.343-3.327,1.468,1.468,0,0,0-.638-.242,31.188,31.188,0,0,0-.082-3.879c-.122-2.455-6.718-4.832-9.6-3.329-3.6,1.875-3.844,10.968-3.289,14.043Z" transform="translate(-287.179 -166.846)" fill="#f2bfa9" fill-rule="evenodd"/>
          <path id="Path_622" data-name="Path 622" d="M357.865,177.2c.283.289-.366,4.814.133,4.834s2.247-2.057,2.247-2.057.091-.123.638.242a1.764,1.764,0,0,1,.683,1s2.2-4.209,1.945-5.152-2.1-2.137-2.1-2.137a4.631,4.631,0,0,0-1.188-2.158c-1.04-1.158-4.08-1.4-8.136-1.986-4.016-.579-6.884,1.936-3.237,4.757,3.354,2.6,9.017,2.66,9.017,2.66Z" transform="translate(-287.151 -167.414)" fill="#7d6673" fill-rule="evenodd"/>
          <path id="Path_623" data-name="Path 623" d="M362.211,190.427c5.84,2.517,9.51,26.578,9.954,46.838l-3.769-.884a126.371,126.371,0,0,0-7.369-37.592Z" transform="translate(-283.285 -161.63)" fill="#305f72" fill-rule="evenodd" opacity="0.9"/>
          <path id="Path_624" data-name="Path 624" d="M349.09,189.236c-6.23,6.505-11.812,18.27-11.812,18.27-.446-.656-8.013-13.361-9.37-17.074l-2.7,2.539c1.353,3.3,8.69,21.152,11.292,21.445,5.117.577,11.818-13.746,13.772-16.82Z" transform="translate(-293.279 -161.962)" fill="#305f72" fill-rule="evenodd" opacity="0.9"/>
          <path id="Path_625" data-name="Path 625" d="M315.674,177.232c-.257-.058-3.237-.15-3.237-.15l-1.653,4.993,2.307,2.009Z" transform="translate(-297.306 -165.354)" fill="#fcffff" fill-rule="evenodd"/>
          <path id="Path_626" data-name="Path 626" d="M324.529,184.048a10.5,10.5,0,0,1-.61,4.495c-.673,1.9-1.956,3.13-1.967,3.925-.017.828,2.153,2.261,3.108,1.278.771-.793,3.079-8.955,2.869-9.12a31.986,31.986,0,0,0-3.4-.578Z" transform="translate(-294.189 -163.41)" fill="#20323c" fill-rule="evenodd"/>
          <path id="Path_627" data-name="Path 627" d="M315.9,172.593c.077-.16.256.045.791.409s.106.074.545.976c.926,1.911,13.057,9.2,15.372,10.275a8.592,8.592,0,0,1,2.242,1.343l-2.273,6.229a10.3,10.3,0,0,1-2.472-.495c-2.48-.615-16.492-2.58-18.415-1.678a6.566,6.566,0,0,1-1.91.239,83.836,83.836,0,0,1,6.12-17.3Z" transform="translate(-297.586 -166.622)" fill="#cbdfea" fill-rule="evenodd"/>
          <path id="Path_628" data-name="Path 628" d="M315.9,172.593c.077-.16.256.045.791.409s.106.074.545.976a96.857,96.857,0,0,0-5.546,15.674c-.906.425-.393.466-1.036.414s-.912,0-.874-.175a83.832,83.832,0,0,1,6.12-17.3Z" transform="translate(-297.587 -166.622)" fill="#ed9c19" fill-rule="evenodd"/>
          <path id="Path_629" data-name="Path 629" d="M327.97,181.6c.1.051.188.095.265.13,1.449.675,2.318.748,2.8,1.133l-1.209,3.413-1.205,3.414c-.623-.008-1.343-.5-2.894-.883-.084-.019-.18-.044-.289-.065Z" transform="translate(-293.215 -164.095)" fill="#ed9c19" fill-rule="evenodd"/>
          <path id="Path_630" data-name="Path 630" d="M327.056,184.985c.042-.235.055-.376.028-.4a13.641,13.641,0,0,0-2.105-.4Z" transform="translate(-293.344 -163.371)" fill="#c37542" fill-rule="evenodd"/>
          <path id="Path_631" data-name="Path 631" d="M315.328,172.584c.077-.16,1.174,1.055,1.335,1.385.926,1.911,13.057,9.2,15.372,10.275a8.588,8.588,0,0,1,2.242,1.343l-1.155,3.56-21.3-8.169a85.615,85.615,0,0,1,3.5-8.393Z" transform="translate(-297.015 -166.613)" fill="#e4f7ff" fill-rule="evenodd"/>
          <path id="Path_632" data-name="Path 632" d="M315.328,172.593c.077-.16.256.045.79.409s.106.074.545.976q-1.688,3.7-3.093,7.678l-1.746-.67a85.616,85.616,0,0,1,3.5-8.393Z" transform="translate(-297.015 -166.622)" fill="#f1bb48" fill-rule="evenodd"/>
          <path id="Path_633" data-name="Path 633" d="M327.726,181.6c.1.051.188.095.265.13,1.449.675,2.318.748,2.805,1.133l-1.209,3.413-.171.487-3.1-1.19Z" transform="translate(-292.97 -164.095)" fill="#f1bb48" fill-rule="evenodd"/>
          <path id="Path_634" data-name="Path 634" d="M310.007,177.108l-7.2-4.179.726-.9Z" transform="translate(-299.532 -166.763)" fill="#3b4952" fill-rule="evenodd"/>
          <path id="Path_635" data-name="Path 635" d="M311.769,175.841l-5.266-7.458.567-.47Z" transform="translate(-298.5 -167.913)" fill="#3b4952" fill-rule="evenodd"/>
          <path id="Path_636" data-name="Path 636" d="M311.507,179.882l-11.26-.648.087,1.152Z" transform="translate(-300.246 -164.754)" fill="#3b4952" fill-rule="evenodd"/>
          <path id="Path_637" data-name="Path 637" d="M311.005,182.182l-9.083,3.59.178.714Z" transform="translate(-299.778 -163.931)" fill="#3b4952" fill-rule="evenodd"/>
          <path id="Path_638" data-name="Path 638" d="M325.279,188.21a3.2,3.2,0,0,1-1.452,3.416c-.341.188-.889.345-1.943-.485-.955-.752.728-3.708,1.468-3.85s1.91.477,1.926.918Z" transform="translate(-294.288 -162.511)" fill="#f0af96" fill-rule="evenodd"/>
          <path id="Path_639" data-name="Path 639" d="M326.9,191.747l.733-.782a9.834,9.834,0,0,0-.954-2.64c-.454-.492-2.2-2.247-2.4-2.062s-.289.683.164,1.591a2.823,2.823,0,0,0,1.346,1.261,6.285,6.285,0,0,0,.041,2.522c.329.994,1.068.109,1.068.109Z" transform="translate(-293.584 -162.796)" fill="#f2bfa9" fill-rule="evenodd"/>
          <path id="Path_640" data-name="Path 640" d="M359.514,175.294l-1.012,2.182c-1.471.157-6.3.647-7.352.133l.945-.55a9.975,9.975,0,0,1-3.609-.586c-1.8-.678-2.282-1.563-2.13-1.563s1.454-.093,1.454-.093-.842-.12-1.76-1.937-1.095-2.675-.917-2.5,1.326.595,1.274.429-.152-1.528-.152-1.528,1.794.221,4.1.405,9.715,1.41,9.741,2.03a35.083,35.083,0,0,1-.587,3.583Z" transform="translate(-287.737 -167.532)" fill="#7d6673" fill-rule="evenodd"/>
        </g>
        <path id="Path_641" data-name="Path 641" d="M418.306,388.9a33.388,33.388,0,0,0-1.057,3.89s-9.162,4.035-7.865,4.981c2.013,1.474,9.471-.428,12.112-1l-.014-4.2Z" transform="translate(72.458 -71.82)" fill="#20282e" fill-rule="evenodd"/>
        <path id="Path_642" data-name="Path 642" d="M438.96,388.1a33.625,33.625,0,0,1,1.058,3.892s9.161,4.034,7.866,4.981c-2.013,1.471-11.495-.325-11.492-1.145l.017-4.2Z" transform="translate(80.029 -72.045)" fill="#20282e" fill-rule="evenodd"/>
        <path id="Path_643" data-name="Path 643" d="M422.977,332.084c-3.791,20.849-5.472,51.641-7.471,76.566a25.473,25.473,0,0,0,4.232-.212c5-20.773,9.5-42.195,14.5-62.967,2.674,20.461,5.244,42.119,7.916,62.578.716.222,2.911-.316,3.691-.428s1.119-73.384.977-74.244-23.847-1.292-23.847-1.292Z" transform="translate(74.201 -87.676)" fill="#3d3c28" fill-rule="evenodd"/>
        <path id="Path_644" data-name="Path 644" d="M454.658,342.6h-1.378v-4.89h-9.309v4.89h-1.378v-5.579a.685.685,0,0,1,.687-.687H453.97a.686.686,0,0,1,.688.687Z" transform="translate(81.76 -86.491)" fill="#20282e"/>
        <path id="Path_645" data-name="Path 645" d="M454.293,342.233v-5.28a.388.388,0,0,0-.389-.388H443.215a.387.387,0,0,0-.388.388v5.28h.776v-4.891h9.913v4.891Z" transform="translate(81.825 -86.426)" fill="#1f3039" fill-rule="evenodd"/>
        <path id="Path_646" data-name="Path 646" d="M469.279,364.026a2.188,2.188,0,0,1-2.2,2.16H435.414a2.188,2.188,0,0,1-2.2-2.16V341.883a2.19,2.19,0,0,1,2.2-2.163h31.662a2.19,2.19,0,0,1,2.2,2.163Z" transform="translate(79.141 -85.545)" fill="#3b4247"/>
        <path id="Path_647" data-name="Path 647" d="M468.291,363.85v-.7a.07.07,0,1,0-.141,0,4.665,4.665,0,0,1-.036.994.07.07,0,0,0,.136.036,1.266,1.266,0,0,0,.041-.325Zm-.416.957a.071.071,0,0,0-.1-.1,1.269,1.269,0,0,1-.578.316.07.07,0,0,0,.031.137,1.425,1.425,0,0,0,.643-.349Zm-1.36.39a.074.074,0,0,0,.065-.043.073.073,0,0,0-.065-.1h-.7a.071.071,0,0,0,0,.142Zm-1.408,0a.074.074,0,0,0,.065-.043.073.073,0,0,0-.065-.1h-.7a.074.074,0,0,0-.066.044.071.071,0,0,0,.066.1Zm-1.408,0a.074.074,0,0,0,.065-.043.072.072,0,0,0-.065-.1H463a.073.073,0,0,0-.065.044.071.071,0,0,0,.065.1Zm-1.408,0a.071.071,0,0,0,0-.142h-.7a.074.074,0,0,0-.065.044.071.071,0,0,0,.065.1Zm-1.408,0a.071.071,0,0,0,0-.142h-.7a.075.075,0,0,0-.065.044.071.071,0,0,0,.065.1Zm-1.407,0a.07.07,0,0,0,.064-.043.071.071,0,0,0-.064-.1h-.7a.075.075,0,0,0-.065.044.071.071,0,0,0,.065.1Zm-1.408,0a.071.071,0,0,0,0-.142h-.7a.077.077,0,0,0-.065.044.071.071,0,0,0,.065.1Zm-1.408,0a.071.071,0,0,0,0-.142h-.7a.071.071,0,0,0,0,.142Zm-1.408,0a.071.071,0,0,0,0-.142h-.7a.071.071,0,0,0,0,.142Zm-1.408,0a.071.071,0,0,0,0-.142h-.7a.071.071,0,0,0-.065.044.07.07,0,0,0,.065.1Zm-1.406,0a.071.071,0,0,0,0-.142h-.7a.071.071,0,0,0,0,.142Zm-1.408,0a.071.071,0,0,0,0-.142h-.7a.071.071,0,0,0-.065.044.07.07,0,0,0,.065.1Zm-1.408,0a.075.075,0,0,0,.065-.043.073.073,0,0,0-.065-.1h-.7a.07.07,0,0,0-.064.044.069.069,0,0,0,.064.1Zm-1.408,0a.075.075,0,0,0,.065-.043.073.073,0,0,0-.065-.1h-.7a.071.071,0,0,0,0,.142Zm-1.408,0a.075.075,0,0,0,.065-.043.073.073,0,0,0-.065-.1h-.7a.071.071,0,0,0,0,.142Zm-1.408,0a.074.074,0,0,0,.065-.043.073.073,0,0,0-.065-.1h-.7a.071.071,0,0,0,0,.142Zm-1.408,0a.074.074,0,0,0,.065-.043.073.073,0,0,0-.065-.1h-.7a.073.073,0,0,0-.065.044.07.07,0,0,0,.065.1Zm-1.408,0a.074.074,0,0,0,.065-.043.072.072,0,0,0-.065-.1h-.7a.074.074,0,0,0-.065.044.07.07,0,0,0,.065.1Zm-1.408,0a.071.071,0,0,0,0-.142h-.7a.073.073,0,0,0-.065.044.071.071,0,0,0,.065.1Zm-1.408,0a.071.071,0,0,0,0-.142h-.7a.074.074,0,0,0-.065.044.071.071,0,0,0,.065.1Zm-1.408,0a.071.071,0,0,0,.065-.043.071.071,0,0,0-.065-.1h-.7a.073.073,0,0,0-.065.044.071.071,0,0,0,.065.1Zm-1.407,0a.071.071,0,0,0,.064-.043.071.071,0,0,0-.064-.1h-.7a.075.075,0,0,0-.065.044.071.071,0,0,0,.065.1Zm-1.408,0a.068.068,0,0,0,.064-.043.07.07,0,0,0-.064-.1h-.3a1.235,1.235,0,0,1-.373-.055.071.071,0,1,0-.044.134,1.428,1.428,0,0,0,.417.063Zm-1.339-.453a.071.071,0,0,0,.1-.1,1.166,1.166,0,0,1-.3-.584.072.072,0,0,0-.141.027,1.327,1.327,0,0,0,.333.654Zm-.354-1.37a.069.069,0,0,0,.043.065.07.07,0,0,0,.1-.065v-.7a.072.072,0,0,0-.042-.065.071.071,0,0,0-.1.065Zm0-1.408a.067.067,0,0,0,.043.065.07.07,0,0,0,.1-.065v-.7a.073.073,0,0,0-.042-.065.072.072,0,0,0-.1.065Zm0-1.408a.067.067,0,0,0,.043.065.07.07,0,0,0,.1-.065v-.7a.072.072,0,0,0-.042-.065.072.072,0,0,0-.1.065Zm0-1.408a.067.067,0,0,0,.043.065.07.07,0,0,0,.1-.065v-.7a.074.074,0,0,0-.042-.065.072.072,0,0,0-.1.065Zm0-1.407a.066.066,0,0,0,.043.064.069.069,0,0,0,.1-.064v-.7a.07.07,0,1,0-.141,0Zm0-1.408a.066.066,0,0,0,.043.064.069.069,0,0,0,.1-.064v-.7a.067.067,0,0,0-.042-.063.069.069,0,0,0-.1.063Zm0-1.408a.067.067,0,0,0,.043.065.07.07,0,0,0,.1-.065v-.7a.069.069,0,0,0-.042-.063.07.07,0,0,0-.1.063Zm0-1.408a.067.067,0,0,0,.043.065.07.07,0,0,0,.1-.065v-.7a.069.069,0,0,0-.042-.063.07.07,0,0,0-.1.063Zm0-1.406a.066.066,0,0,0,.043.063.069.069,0,0,0,.1-.063v-.7a.07.07,0,1,0-.141,0Zm0-1.408a.066.066,0,0,0,.043.063.069.069,0,0,0,.1-.063V350a.07.07,0,1,0-.141,0Zm0-1.408a.066.066,0,0,0,.043.063.069.069,0,0,0,.1-.063v-.7a.07.07,0,0,0-.042-.065.071.071,0,0,0-.1.065Zm0-1.408a.072.072,0,0,0,.043.065.071.071,0,0,0,.1-.065v-.7a.072.072,0,0,0-.042-.065.071.071,0,0,0-.1.065Zm0-1.408a.07.07,0,1,0,.141,0v-.7a.07.07,0,1,0-.141,0Zm0-1.408a.069.069,0,0,0,.043.065.071.071,0,0,0,.1-.065v-.7a.069.069,0,0,0-.042-.064.07.07,0,0,0-.1.064Zm0-1.408a.07.07,0,0,0,.043.065.071.071,0,0,0,.1-.065v-.7a.07.07,0,0,0-.042-.065.071.071,0,0,0-.1.065Zm0-1.408a.069.069,0,0,0,.043.065.07.07,0,0,0,.1-.065,6.011,6.011,0,0,1,.009-.695.07.07,0,0,0-.14-.019,6.366,6.366,0,0,0-.01.714Zm.3-1.387a.071.071,0,0,0,.109.092,1.256,1.256,0,0,1,.537-.381.071.071,0,0,0-.048-.133,1.419,1.419,0,0,0-.6.422Zm1.316-.512a.073.073,0,0,0-.065.044.071.071,0,0,0,.065.1h.7a.07.07,0,0,0,.063-.044.071.071,0,0,0-.063-.1Zm1.406,0a.072.072,0,0,0,0,.143h.7a.068.068,0,0,0,.064-.044.07.07,0,0,0-.064-.1Zm1.408,0a.072.072,0,0,0,0,.143h.7a.068.068,0,0,0,.065-.044.07.07,0,0,0-.065-.1Zm1.408,0a.069.069,0,0,0-.063.044.071.071,0,0,0,.063.1h.7a.069.069,0,0,0,.065-.044.071.071,0,0,0-.065-.1Zm1.408,0a.076.076,0,0,0-.065.044.073.073,0,0,0,.065.1h.7a.072.072,0,0,0,0-.143Zm1.408,0a.076.076,0,0,0-.065.044.073.073,0,0,0,.065.1h.7a.072.072,0,0,0,0-.143Zm1.408,0a.076.076,0,0,0-.065.044.073.073,0,0,0,.065.1h.7a.072.072,0,0,0,0-.143Zm1.408,0a.076.076,0,0,0-.065.044.073.073,0,0,0,.065.1h.7a.073.073,0,0,0,.065-.044.071.071,0,0,0-.065-.1Zm1.408,0a.076.076,0,0,0-.065.044.072.072,0,0,0,.065.1h.7a.074.074,0,0,0,.065-.044.071.071,0,0,0-.065-.1Zm1.407,0a.072.072,0,0,0,0,.143h.7a.076.076,0,0,0,.065-.044.073.073,0,0,0-.065-.1Zm1.408,0a.072.072,0,0,0,0,.143h.7a.076.076,0,0,0,.065-.044.073.073,0,0,0-.065-.1Zm1.408,0a.076.076,0,0,0-.065.044.073.073,0,0,0,.065.1h.7a.077.077,0,0,0,.065-.044.073.073,0,0,0-.065-.1Zm1.408,0a.076.076,0,0,0-.065.044.073.073,0,0,0,.065.1h.7a.077.077,0,0,0,.065-.044.073.073,0,0,0-.065-.1Zm1.408,0a.076.076,0,0,0-.065.044.072.072,0,0,0,.065.1h.7a.072.072,0,0,0,0-.143Zm1.408,0a.073.073,0,0,0-.065.044.072.072,0,0,0,.065.1h.7a.072.072,0,0,0,0-.143Zm1.408,0a.073.073,0,0,0-.065.044.072.072,0,0,0,.065.1h.7a.072.072,0,0,0,0-.143Zm1.406,0a.072.072,0,0,0-.063.044.071.071,0,0,0,.063.1h.7a.068.068,0,0,0,.064-.044.07.07,0,0,0-.064-.1Zm1.408,0a.072.072,0,0,0,0,.143h.7a.068.068,0,0,0,.064-.044.07.07,0,0,0-.064-.1Zm1.408,0a.072.072,0,0,0,0,.143h.7a.068.068,0,0,0,.065-.044.07.07,0,0,0-.065-.1Zm1.408,0a.076.076,0,0,0-.065.044.073.073,0,0,0,.065.1h.7a.072.072,0,0,0,0-.143Zm1.408,0a.076.076,0,0,0-.065.044.073.073,0,0,0,.065.1h.7a.072.072,0,0,0,0-.143Zm1.408,0a.076.076,0,0,0-.065.044.073.073,0,0,0,.065.1h.7a.072.072,0,0,0,0-.143Zm1.408,0a.076.076,0,0,0-.065.044.073.073,0,0,0,.065.1,4.006,4.006,0,0,1,.689.019.07.07,0,0,0,.027-.138,4.046,4.046,0,0,0-.716-.024Zm1.376.34a.07.07,0,0,0-.092.106,1.2,1.2,0,0,1,.367.545.071.071,0,0,0,.136-.044,1.366,1.366,0,0,0-.411-.608Zm.473,1.329a.07.07,0,1,0-.141,0v.7a.068.068,0,0,0,.041.064.071.071,0,0,0,.1-.064Zm0,1.408a.07.07,0,1,0-.141,0v.7a.068.068,0,0,0,.041.064.071.071,0,0,0,.1-.064Zm0,1.406a.067.067,0,0,0-.043-.063.069.069,0,0,0-.1.063v.7a.066.066,0,0,0,.041.065.071.071,0,0,0,.1-.065Zm0,1.408a.067.067,0,0,0-.043-.063.069.069,0,0,0-.1.063v.7a.066.066,0,0,0,.041.065.071.071,0,0,0,.1-.065Zm0,1.408a.065.065,0,0,0-.043-.062.069.069,0,0,0-.1.063v.7a.066.066,0,0,0,.041.065.07.07,0,0,0,.1-.065Zm0,1.408a.072.072,0,0,0-.043-.065.071.071,0,0,0-.1.065v.7a.069.069,0,0,0,.041.065.072.072,0,0,0,.1-.065Zm0,1.408a.07.07,0,1,0-.141,0v.7a.068.068,0,0,0,.041.065.071.071,0,0,0,.1-.065Zm0,1.408a.072.072,0,0,0-.043-.065.071.071,0,0,0-.1.065v.7a.069.069,0,0,0,.041.065.071.071,0,0,0,.1-.065Zm0,1.408a.072.072,0,0,0-.043-.065.071.071,0,0,0-.1.065v.7a.07.07,0,0,0,.041.065.071.071,0,0,0,.1-.065Zm0,1.408a.072.072,0,0,0-.043-.065.07.07,0,0,0-.1.065v.7a.073.073,0,0,0,.041.065.072.072,0,0,0,.1-.065Zm0,1.407a.071.071,0,0,0-.043-.064.07.07,0,0,0-.1.064v.7a.07.07,0,1,0,.141,0Zm0,1.408a.069.069,0,0,0-.043-.064.07.07,0,0,0-.1.064v.7a.07.07,0,1,0,.141,0Zm0,1.408a.072.072,0,0,0-.043-.065.07.07,0,0,0-.1.065v.7a.074.074,0,0,0,.041.065.072.072,0,0,0,.1-.065Zm0,1.408a.072.072,0,0,0-.043-.065.07.07,0,0,0-.1.065v.7a.074.074,0,0,0,.041.065.073.073,0,0,0,.1-.065Zm0,1.408a.072.072,0,0,0-.043-.065.07.07,0,0,0-.1.065v.7a.067.067,0,0,0,.041.063.071.071,0,0,0,.1-.063Z" transform="translate(79.318 -85.369)" fill="#313436"/>
        <path id="Path_648" data-name="Path 648" d="M432.622,339.488c.106,6.858,8.475,12.4,18.788,12.4s18.679-5.539,18.786-12.4Z" transform="translate(78.977 -85.61)" fill="#33373a"/>
        <rect id="Rectangle_162" data-name="Rectangle 162" width="4.4" height="5.633" transform="translate(528.186 263.736)" fill="#9baeb8"/>
        <rect id="Rectangle_163" data-name="Rectangle 163" width="3.171" height="4.4" transform="translate(528.801 264.353)" fill="#c5d8e2"/>
        <path id="Path_649" data-name="Path 649" d="M430.759,289.055c.272,1.709.666,7.252-2.662,8.636a10.6,10.6,0,0,0-2.609,1.7c.367,5.228,12.615,5.984,17.467.988l-2.144-2.295c-4.305-.642-2.842-7.916-2.8-11.362Z" transform="translate(76.987 -100.334)" fill="#f0af96" fill-rule="evenodd"/>
        <path id="Path_650" data-name="Path 650" d="M423.88,303.616c.494,17.443-2.554,30.215-3.253,39.813-.3,4.97,26.021,8.428,26,4.3-.492-14.14-.681-29.184.89-42.19l-.054-8.244c-.237-.054-.472-.106-.706-.162L442,295.622a9.339,9.339,0,0,1-7.39,2.274c-4.548-.569-4.075-3.222-4.075-3.222-2.077.334-4.107.762-6.185,1.095Z" transform="translate(75.629 -98.116)" fill="#f8bf54" fill-rule="evenodd"/>
        <path id="Path_651" data-name="Path 651" d="M439.713,281.584c.237.8-.6,4.263-1.371,6.262s-3.205,3.209-3.2,2.924.248-7.26.248-7.26Z" transform="translate(79.681 -101.769)" fill="#7d6938" fill-rule="evenodd"/>
        <path id="Path_652" data-name="Path 652" d="M425.711,293.1c1.1,4.719,3.255,6.028,6.563,4.2a14.618,14.618,0,0,0,6.052-6.981,2.538,2.538,0,0,0,2.612-1.619c.7-1.4.446-3.039-.567-3.656a1.635,1.635,0,0,0-.719-.23,34.308,34.308,0,0,0-.311-4.28c-.275-2.705-7.7-4.956-10.8-3.132-3.87,2.277-3.624,12.331-2.836,15.7Z" transform="translate(76.916 -103.12)" fill="#f2bfa9" fill-rule="evenodd"/>
        <path id="Path_653" data-name="Path 653" d="M436.967,282.481c.33.3-.13,5.341.425,5.334s2.365-2.4,2.365-2.4.095-.142.719.23a1.955,1.955,0,0,1,.81,1.065s2.19-4.775,1.855-5.8-2.441-2.242-2.441-2.242a5.127,5.127,0,0,0-1.436-2.315c-1.214-1.22-4.584-1.316-9.1-1.731-4.47-.413-7.494,2.526-3.309,5.437,3.854,2.678,10.111,2.422,10.111,2.422Z" transform="translate(76.812 -103.722)" fill="#7d6938" fill-rule="evenodd"/>
        <path id="Path_654" data-name="Path 654" d="M447.4,331.663l-.7,1.792s-1.053,4.245-.583,4.323a.992.992,0,0,0,.989-.721c.087-.338.432-1.268.432-1.268s.53.376.657.46a7.242,7.242,0,0,1,.637,1.227,1.631,1.631,0,0,1-.014.4c-.081.2-1.6,2.92-1.051,2.964.248.019.679-.348,1.077-.757-.139.556-.221,1.041-.041,1.081.405.082,2.007-1.915,2.013-2.5s-1.046-6.146-1.046-6.146l-2.406-.762Z" transform="translate(82.709 -87.794)" fill="#f2bfa9" fill-rule="evenodd"/>
        <path id="Path_655" data-name="Path 655" d="M441.868,296.724c5.84,2.515,9.51,26.574,9.951,46.835l-3.765-.885a126.533,126.533,0,0,0-7.369-37.59Z" transform="translate(81.227 -97.544)" fill="#f8bf54" fill-rule="evenodd"/>
        <path id="Path_656" data-name="Path 656" d="M392.1,300.148a6.741,6.741,0,0,0-1.888.042s-2.643,2.382-3.438,2.575,1.083-2.457.8-2.648a16.786,16.786,0,0,0-2.678-.43h-3.285c-.368,0,.063-.608.83-.99a18.555,18.555,0,0,1,4.289-1.214c.844-.031,4.8.441,4.8.441Z" transform="translate(64.704 -97.332)" fill="#f2bfa9" fill-rule="evenodd"/>
        <path id="Path_657" data-name="Path 657" d="M433.368,295.53c-6.3,4.339-17.445,7.261-17.445,7.261-2.869-.272-20.389-2.863-26.3-4.322l-1.317,2.265c7.706,3.561,24.674,9.15,27.291,9.094,3.542-.077,16.012-3.879,18.954-5.939Z" transform="translate(66.611 -97.877)" fill="#f8bf54" fill-rule="evenodd"/>
        <path id="Path_658" data-name="Path 658" d="M47.592,318.156c-1.8,1.179-4.752,2.313-7.1,11.727s1.48,35.835,1.48,35.835a162.268,162.268,0,0,0-4.623,19.424C36,393.986,34.4,405.92,34.4,405.92l4.2,1.245,11.853-39.248c4.184-13.848,3.965-45.946,2.626-46.693Z" transform="translate(-32.151 -91.563)" fill="#6d4d70" fill-rule="evenodd"/>
        <path id="Path_659" data-name="Path 659" d="M44.714,387.128l-1.088,1.8-.417,1.936s2.026,2.846,4.1,2.643,2.449-1.441,2.449-1.441l-1.844-2.609Z" transform="translate(-29.692 -72.315)" fill="#f7e8e1" fill-rule="evenodd"/>
        <path id="Path_660" data-name="Path 660" d="M43.374,390.071c-.616.13-1.073,3.269-.48,3.93H46.76c1.858,0,6.285.1,7.7,0,1.435-.1,3.639-1.138,1.252-1.707A63.433,63.433,0,0,1,49,389.967c-.54,2.261-4.55,1.117-5.63.1Z" transform="translate(-29.857 -71.523)" fill="#3b4851" fill-rule="evenodd"/>
        <path id="Path_661" data-name="Path 661" d="M40.241,317.253c-1.52,1.521-4.181,3.234-4.562,12.926s8.746,34.785,8.746,34.785a161.469,161.469,0,0,0-.572,19.96c.475,8.933,1.661,24.19,1.661,24.19l4.689.1,2.964-43.819s1.71-21.1,1.9-29.463-3.138-17.391-3.138-17.391Z" transform="translate(-31.797 -91.815)" fill="#7d567c" fill-rule="evenodd"/>
        <path id="Path_662" data-name="Path 662" d="M44.062,275.129c-.431.634-.675,3.919-.562,5.9s1.91,3.728,1.986,3.475,1.833-6.453,1.833-6.453Z" transform="translate(-29.619 -103.57)" fill="#20282e" fill-rule="evenodd"/>
        <path id="Path_663" data-name="Path 663" d="M50,284.146s.48,1.142-.069,5.027a11.791,11.791,0,0,0,1.243,7.379s-.87,3.535-8.682-5.595l3.853-10.336Z" transform="translate(-29.892 -102.037)" fill="#f0af96" fill-rule="evenodd"/>
        <path id="Path_664" data-name="Path 664" d="M55.877,289.433c-2.307,3.838-4.569,4.381-6.961,1.839a13.516,13.516,0,0,1-3.349-7.848,2.346,2.346,0,0,1-1.841-2.163c-.217-1.432.468-2.8,1.534-3.054a1.5,1.5,0,0,1,.7,0,32.084,32.084,0,0,1,1.482-3.675c1.005-2.3,8.169-2.185,10.378.3,2.759,3.1-.3,11.868-1.942,14.606Z" transform="translate(-29.559 -104.197)" fill="#f2bfa9" fill-rule="evenodd"/>
        <path id="Path_665" data-name="Path 665" d="M49.173,277.023c-.376.173-1.4,4.73-1.881,4.569s-1.4-2.779-1.4-2.779-.043-.15-.7,0a1.805,1.805,0,0,0-1.016.706s-.576-4.818.01-5.625,2.781-1.28,2.781-1.28a4.727,4.727,0,0,1,1.919-1.631c1.411-.728,4.4.138,8.488,1.049,4.048.9,5.876,4.341,1.372,5.717-4.145,1.266-9.575-.725-9.575-.725Z" transform="translate(-29.493 -104.803)" fill="#20282e" fill-rule="evenodd"/>
        <path id="Path_666" data-name="Path 666" d="M44.691,288c2.708.849,3.352,4.617,7.466,4.709,0,0,3.782,5.807,4.926,8.136,1.948,3.969-1.92,6.486-2.365,8.962s-.618,25.435.065,26.854-19.948-2.116-18.555-4.794,2.337-13.7,2.795-23.206c.15-3.112-.027-22.447,5.669-20.662Z" transform="translate(-31.659 -100.01)" fill="#fc9ede" fill-rule="evenodd"/>
        <path id="Path_667" data-name="Path 667" d="M54.641,274.788c-.83.449-2.68,2.237-3.453,8.3s-3.419,9.4-7.769,11.547-4.555,15.1-4.266,12.461-5.023-7.287-1.307-15.065,6.091-7.783,5.785-9.524-.267-6.66,1.8-8.621,3.3-1.594,3.538-1.96a5.492,5.492,0,0,1,3.468-1.633c1.779-.137,7.732.37,9.273,2.351s1.3,3.307-1.155,4.2-5.912-2.049-5.912-2.049Z" transform="translate(-31.559 -104.926)" fill="#20282e" fill-rule="evenodd"/>
        <path id="Path_668" data-name="Path 668" d="M34.728,386.5l-.89,1.773s1.247,3.262,3.31,3.588,2.732-.782,2.732-.782l-1.131-2.987Z" transform="translate(-32.307 -72.491)" fill="#f7e8e1" fill-rule="evenodd"/>
        <path id="Path_669" data-name="Path 669" d="M34.172,387.886c-.629-.029-1.857,2.893-1.449,3.681q1.564.411,3.13.814l.613.159c1.8.466,6.059,1.677,7.453,1.931,1.413.261,3.808-.188,1.637-1.335A63.718,63.718,0,0,1,39.65,389.2c-1.092,2.055-4.685-.06-5.478-1.311Z" transform="translate(-32.641 -72.104)" fill="#3b4851" fill-rule="evenodd"/>
        <path id="Path_670" data-name="Path 670" d="M76.463,297.917a9.214,9.214,0,0,0,1.1-1.721,17.91,17.91,0,0,1,1.594-3.631c.538-.51,1.343-1.1,1.613-1s-1.049,1.776-1.049,1.776l-.431,1.4s1.695-1.105,2.423-1.587a3.9,3.9,0,0,1,2.043-.728c.405.055.458.216.458.216a.719.719,0,0,1,.7.43,1.694,1.694,0,0,1,.082.834,2.154,2.154,0,0,1,.133.62,2.2,2.2,0,0,1-.4.806,1.8,1.8,0,0,1-.188.78,10.149,10.149,0,0,1-2.1,1.184,3.975,3.975,0,0,1-1.83,1.1,5.329,5.329,0,0,1-1.924.04Z" transform="translate(-20.413 -98.986)" fill="#f2bfa9" fill-rule="evenodd"/>
        <path id="Path_671" data-name="Path 671" d="M40.529,293.7c-1.355,3.767,19.727,18.97,23.028,18.8s25.582-13.923,25.582-13.923l-1.329-2.662s-21.561,9.761-23.569,9.223c-7.892-2.116-20.283-20.961-23.712-11.44Z" transform="translate(-30.458 -99.133)" fill="#fc9ede" fill-rule="evenodd"/>
        <g id="Group_175" data-name="Group 175" transform="translate(107.139 25.758)">
          <path id="Path_672" data-name="Path 672" d="M138.715,169.029c4.536-.991,8.331-1.255,8.478-.588s-3.416,2.008-7.952,3-8.334,1.251-8.479.586,3.415-2.008,7.953-3Z" transform="translate(-112.4 -159.203)" fill="#20282e" fill-rule="evenodd"/>
          <path id="Path_673" data-name="Path 673" d="M120.957,220.948l1.346,1.375s2.631,3.5,2.226,3.751a.994.994,0,0,1-1.191-.277c-.212-.278-.893-1-.893-1s-.34.554-.425.682a7.448,7.448,0,0,0-.107,1.38,1.62,1.62,0,0,0,.17.363c.15.15,2.617,2.062,2.127,2.318-.219.115-.762-.056-1.287-.278.344.46.611.872.458.979-.34.234-2.6-.976-2.829-1.509s-1.436-6.067-1.436-6.067l1.915-1.642Z" transform="translate(-115.649 -144.448)" fill="#f2bfa9" fill-rule="evenodd"/>
          <path id="Path_674" data-name="Path 674" d="M154.034,275.141a32.4,32.4,0,0,1,1.016,3.74s8.805,3.878,7.558,4.787c-1.934,1.413-9.1-.414-11.639-.957l.013-4.035Z" transform="translate(-106.76 -129.325)" fill="#20282e" fill-rule="evenodd"/>
          <path id="Path_675" data-name="Path 675" d="M134.055,274.368a31.987,31.987,0,0,0-1.016,3.737s-8.805,3.878-7.558,4.787c1.934,1.416,11.043-.311,11.041-1.1l-.015-4.034Z" transform="translate(-113.906 -129.54)" fill="#20282e" fill-rule="evenodd"/>
          <path id="Path_676" data-name="Path 676" d="M184.393,174.579a3.643,3.643,0,0,1-.6,3.043,6.086,6.086,0,0,1-3.121,1.555l-1.722-1.952s1.585-3.411,1.754-3.653,3.686,1.007,3.686,1.007Z" transform="translate(-98.95 -157.677)" fill="#f0af96" fill-rule="evenodd"/>
          <path id="Path_677" data-name="Path 677" d="M153.553,220.539c3.641,20.037,5.256,49.626,7.178,73.579a24.562,24.562,0,0,1-4.069-.2c-4.8-19.962-9.131-40.546-13.935-60.508-2.566,19.66-5.038,40.475-7.607,60.135-.688.215-2.8-.3-3.546-.413s-1.076-70.518-.938-71.346,22.916-1.242,22.916-1.242Z" transform="translate(-112.442 -144.562)" fill="#47323e" fill-rule="evenodd"/>
          <path id="Path_678" data-name="Path 678" d="M142.34,179.676c-.169,1.574-.267,6.655,2.836,7.761a9.678,9.678,0,0,1,2.462,1.43c-.09,4.789-11.237,6.058-15.9,1.722l1.847-2.194c3.9-.789,2.226-7.362,2.027-10.506Z" transform="translate(-112.126 -156.464)" fill="#f0af96" fill-rule="evenodd"/>
          <path id="Path_679" data-name="Path 679" d="M153.714,189.173c13.846,2.275,29.269-3.9,39.386-13.128l2.122,2.4A40.285,40.285,0,0,1,177.1,192.715c-7.715,3.924-18.048,4.365-23.833,4.253-.5,17.637,2.58,30.552,3.29,40.261.306,5.022-26.314,8.521-26.295,4.346.5-14.3-1.789-29.718-3.374-42.869l3.241-8.293,4.813-1.53a9.442,9.442,0,0,0,7.475,2.3c4.6-.574,4.119-3.255,4.119-3.255,2.4.382,4.752.9,7.178,1.247Z" transform="translate(-113.479 -156.978)" fill="#f2f2f2" fill-rule="evenodd"/>
          <path id="Path_680" data-name="Path 680" d="M132.8,187.3c-7.445,3.855-13.187,13.765-14.356,21.73a40.277,40.277,0,0,0,1.177,23.027l3.187-.341c-1.789-14.386,2.653-31.641,13.828-41.416Z" transform="translate(-116.155 -153.838)" fill="#f2f2f2" fill-rule="evenodd"/>
          <path id="Path_681" data-name="Path 681" d="M131.39,173.359c-.178.736.751,3.863,1.549,5.652s3.074,2.781,3.057,2.52-.567-6.617-.567-6.617Z" transform="translate(-112.229 -157.728)" fill="#20282e" fill-rule="evenodd"/>
          <path id="Path_682" data-name="Path 682" d="M146.9,183.2c-.785,4.359-2.69,5.659-5.8,4.144a13.354,13.354,0,0,1-5.853-6.091,2.319,2.319,0,0,1-2.461-1.355,2.594,2.594,0,0,1,.347-3.364,1.468,1.468,0,0,1,.646-.243,31.38,31.38,0,0,1,.082-3.923c.123-2.481,6.793-4.889,9.711-3.366,3.639,1.9,3.887,11.087,3.324,14.2Z" transform="translate(-111.955 -159.077)" fill="#f2bfa9" fill-rule="evenodd"/>
          <path id="Path_683" data-name="Path 683" d="M136.6,174.055c-.288.292.371,4.868-.136,4.887s-2.272-2.078-2.272-2.078-.091-.125-.646.243a1.785,1.785,0,0,0-.689,1.01s-2.223-4.256-1.967-5.211,2.126-2.16,2.126-2.16a4.69,4.69,0,0,1,1.2-2.182c1.051-1.169,4.124-1.415,8.224-2.008,4.064-.586,6.962,1.958,3.274,4.811-3.389,2.626-9.116,2.689-9.116,2.689Z" transform="translate(-112.367 -159.65)" fill="#20282e" fill-rule="evenodd"/>
          <path id="Path_684" data-name="Path 684" d="M179.21,164.964l-2.277.888a.578.578,0,0,0-.327.744l7.436,19.052a.575.575,0,0,0,.742.327l2.277-.889a.575.575,0,0,0,.326-.743l-7.434-19.053a.575.575,0,0,0-.743-.326Z" transform="translate(-99.616 -160.082)" fill="#fbffff" fill-rule="evenodd"/>
          <path id="Path_685" data-name="Path 685" d="M135.766,172.93a4.907,4.907,0,0,0,3.185,1.866c2.371.577,2.851-.718,2.851-.718a4.576,4.576,0,0,0,2.729-.095c1.627-.5.839-1.246.839-1.246s.428.766,1.866-.359a1.732,1.732,0,0,0,.1-2.585l-.861-1.32a2.08,2.08,0,0,0-.622-1.676c-.79-.908-2.419-.5-2.419-.5a2.749,2.749,0,0,0-2.2-.576,3.727,3.727,0,0,0-2.346,1.126,5.124,5.124,0,0,0-2.467-.262,2.812,2.812,0,0,0-1.869,1.316,3.3,3.3,0,0,0-2.011,1.078,2.015,2.015,0,0,0-.12,1.913s-1.413.217-1.365,1.343a3.02,3.02,0,0,0,3.1,2.467,1.834,1.834,0,0,0,1.621-1.773Z" transform="translate(-112.318 -159.865)" fill="#20282e" fill-rule="evenodd"/>
          <path id="Path_686" data-name="Path 686" d="M181.7,172.47a1.872,1.872,0,0,0-.545.921c-.384.981.863,3.269,1.748,3.6s1.294.455,1.485-.622c.136-.762-.73-2.808-1.43-3.827-.4-.581-.629-.659-1.259-.077Z" transform="translate(-98.355 -158.088)" fill="#f2bfa9" fill-rule="evenodd"/>
          <path id="Path_687" data-name="Path 687" d="M179.489,178.166l-.849-.907a11.406,11.406,0,0,1,1.105-3.054c.526-.569,2.547-2.6,2.778-2.391s.335.792-.193,1.844a3.265,3.265,0,0,1-1.555,1.462,7.243,7.243,0,0,1-.049,2.92c-.381,1.15-1.237.125-1.237.125Z" transform="translate(-99.038 -158.163)" fill="#f2bfa9" fill-rule="evenodd"/>
          <path id="Path_688" data-name="Path 688" d="M181.913,169.936l-3.436,1.676.67,1.63,3.448-1.5Z" transform="translate(-99.083 -158.683)" fill="#e20f2b" fill-rule="evenodd"/>
          <path id="Path_689" data-name="Path 689" d="M180.209,171.495a12.378,12.378,0,0,0-1.473,1.951c-.779,1.268-.492,4.323-.695,4.275s-.936-.145-.936-.145a8.238,8.238,0,0,1,.266-3.795,6.116,6.116,0,0,1,2.168-2.43Z" transform="translate(-99.497 -158.289)" fill="#e20f2b" fill-rule="evenodd"/>
          <path id="Path_690" data-name="Path 690" d="M180.649,172.207a5.054,5.054,0,0,1-2.814.537,3.5,3.5,0,0,1-2.5-.885l.431-.66a7.412,7.412,0,0,0,2.875.73,7.146,7.146,0,0,0,1.962-.155Z" transform="translate(-99.961 -158.331)" fill="#e20f2b" fill-rule="evenodd"/>
          <path id="Path_691" data-name="Path 691" d="M137.5,188.322c-12.247,2.792-18.682,13.617-20.355,26.543-1.4,10.849-.384,17.613-.384,17.613l7.723.318s3.636-23.545,3.955-21.568-2.68,62.152-1.915,62.28,42.625,1.4,42.625,1.4l-8.165-71.086s4.211-1.147,16.206-4.466,21.887-11.294,21.793-11.581-6.191-10.371-6.191-10.371-8.487,5.872-14.993,8.105-11.806,3.317-17.549,2.614a83.631,83.631,0,0,0-10.79-.583c-.6,1.773-2.681,3.294-6.6,2.816a15.648,15.648,0,0,1-5.361-2.04Z" transform="translate(-116.405 -156.598)" fill="#20282e" stroke="#20282e" stroke-miterlimit="10" stroke-width="0.038" fill-rule="evenodd"/>
          <path id="Path_692" data-name="Path 692" d="M122.591,168.942l16.621-6.226,17.706-1.263.089.41-16.621,6.228-17.706,1.263Z" transform="translate(-114.679 -161.051)" fill="#3b4851" fill-rule="evenodd"/>
          <path id="Path_693" data-name="Path 693" d="M122.661,169.265l16.623-6.228,17.7-1.263L140.367,168Z" transform="translate(-114.659 -160.961)" fill="#20282e" fill-rule="evenodd"/>
          <path id="Path_694" data-name="Path 694" d="M130.332,167.053l14.91-3.255,2.07,5.835-.017-.043c-.3-.61-4.03-.338-8.461.632-.835.18-1.637.376-2.391.573-1.033.275-1.976.563-2.777.842-1.7.594-2.778,1.16-2.79,1.536Z" transform="translate(-112.518 -160.396)" fill="#232d35"/>
          <path id="Path_695" data-name="Path 695" d="M137.527,164.322c4.119-.9,7.573-1.089,7.718-.422s-3.074,1.934-7.192,2.833-7.573,1.087-7.719.419,3.075-1.934,7.193-2.83Z" transform="translate(-112.519 -160.479)" fill="#232d35" fill-rule="evenodd"/>
          <path id="Path_696" data-name="Path 696" d="M148.333,161.713l.518,2.373,2.313,10.6a.263.263,0,0,0,.313.2h0a.262.262,0,0,0,.2-.312L148.845,161.6l-.055-.256a.266.266,0,0,0-.313-.2l-.256.056-3.549.774Z" transform="translate(-108.517 -161.138)" fill="#e43624" fill-rule="evenodd"/>
          <path id="Path_697" data-name="Path 697" d="M149.534,169.327c.9-.2,2.531,3.732,1.242,5.737-2.023-1.293-2.144-5.538-1.242-5.737Z" transform="translate(-107.31 -158.855)" fill="#e43624" fill-rule="evenodd"/>
          <path id="Path_698" data-name="Path 698" d="M149.282,169.153l.352-.078a.248.248,0,0,1,.294.188h0a.246.246,0,0,1-.188.292l-.354.078a.246.246,0,0,1-.292-.188h0a.244.244,0,0,1,.188-.292Z" transform="translate(-107.284 -158.925)" fill="#e76557" fill-rule="evenodd"/>
          <path id="Path_699" data-name="Path 699" d="M144.98,164.713a39.983,39.983,0,0,1-13.675,5.642c-.242.054-.482.1-.721.152l.223,2.5c.023-.682,3.523-1.984,7.957-2.951s8.157-1.242,8.461-.632l-1.737-4.9-.046-.128c-.151.106-.306.212-.462.318Z" transform="translate(-112.448 -160.229)" fill="#263039" fill-rule="evenodd"/>
        </g>
      </g>
    </g>
  </g>
</svg>
