<svg xmlns="http://www.w3.org/2000/svg" xmlns:xlink="http://www.w3.org/1999/xlink" width="559.715" height="503.5" viewBox="0 0 559.715 503.5">
  <defs>
    <filter id="Ellipse_35" x="31.837" y="414.522" width="496.041" height="88.978" filterUnits="userSpaceOnUse">
      <feOffset dy="3" input="SourceAlpha"/>
      <feGaussianBlur stdDeviation="7.5" result="blur"/>
      <feFlood/>
      <feComposite operator="in" in2="blur"/>
      <feComposite in="SourceGraphic"/>
    </filter>
  </defs>
  <g id="Group_486" data-name="Group 486" transform="translate(-303.289 -56.914)">
    <g id="Group_164" data-name="Group 164" transform="translate(303.289 56.914)">
      <path id="Path_328" data-name="Path 328" d="M1547.936,657.239l-4.392,1.348-2.949-6.827-6.664,1.178-3.042-4.748-2.4,1.54,4.069,6.35,6.315-1.117,3.068,7.1,6.608-2.028Z" transform="translate(-1335.244 -579.387)" fill="#50bfa5"/>
      <path id="Path_329" data-name="Path 329" d="M2446.848,1440.95l-4.391,1.347-2.95-6.827-6.664,1.179-3.042-4.748-2.4,1.54,4.069,6.35,6.315-1.116,3.068,7.1,6.608-2.027Z" transform="translate(-1952.525 -1117.559)" fill="#50bfa5"/>
      <g id="Group_130" data-name="Group 130" transform="translate(160.133 220.165)">
        <g id="Group_129" data-name="Group 129">
          <path id="Path_330" data-name="Path 330" d="M1448.311,1315.356s-23.434-79.43-25.314-96.951,11.224-12.092,11.224-12.092-11.024-33.386-3.053-41.31,15.162,6.846,15.162,6.846,2.413-40.528,10.912-40.543c15.83-.028,15.518,44.2,15.518,44.2s4.041-17.315,12.517-12.568c12.783,7.158-5.548,41.859-5.548,41.859s16.288.012,22.01,8.225C1512,1227.758,1448.311,1315.356,1448.311,1315.356Z" transform="translate(-1422.812 -1131.307)" fill="#50bfa5"/>
        </g>
      </g>
      <g id="Group_132" data-name="Group 132" transform="translate(71.737 276.828)">
        <g id="Group_131" data-name="Group 131" transform="translate(0 0)">
          <path id="Path_331" data-name="Path 331" d="M1262.224,1429.036s-67.557-11.3-82.252-23.267-.15-17.369-.15-17.369-33.938-17.4-33.545-29.228,17.253-5.816,17.253-5.816-28.6-32.608-21.826-38.8c12.61-11.535,45.668,22.361,45.668,22.361s-9.816-16.12.521-18.671c15.591-3.847,27.1,35.9,27.1,35.9s-2.924-15.7,7.827-13.606C1242.1,1344.3,1262.224,1429.036,1262.224,1429.036Z" transform="translate(-1140.666 -1312.164)" fill="#50bfa5"/>
        </g>
        <path id="Path_332" data-name="Path 332" d="M1225.089,1340.543c-10.777-1.949-7.827,13.606-7.827,13.606s-11.506-39.748-27.1-35.9c-10.338,2.551-.522,18.671-.522,18.671s-33.059-33.9-45.668-22.361l120.292,114.5C1262.127,1418.119,1243.157,1343.81,1225.089,1340.543Z" transform="translate(-1142.939 -1312.164)" fill="#3c8f7c"/>
      </g>
      <g id="Group_133" data-name="Group 133" transform="translate(66.766 347.163)">
        <path id="Path_333" data-name="Path 333" d="M1270.549,1592.856s-35.578-36.181-53.494-39.949-14.694,8.98-14.694,8.98-35.547-31.086-43.784-23.554.672,14.8.672,14.8-29.609-5.247-33.848,4.471c-6.513,14.93,42.183,23.056,42.183,23.056s-20.406,1.413-15.674,10.776C1159.048,1605.557,1270.549,1592.856,1270.549,1592.856Z" transform="translate(-1124.802 -1537)" fill="#355389"/>
        <path id="Path_334" data-name="Path 334" d="M1126.716,1557.266c4.239-9.717,33.848-4.471,33.848-4.471s-8.911-7.272-.673-14.8,42.679,19.326,42.679,19.326-8.121-15.522,9.8-11.755,59.5,46.952,59.5,46.952Z" transform="translate(-1126.116 -1536.659)" fill="#466eb6"/>
      </g>
      <g id="Group_141" data-name="Group 141" transform="translate(243.452 11.075)">
        <path id="Path_335" data-name="Path 335" d="M1745.881,523.488c-11.975,1.971-15.532,17.688-5.576,24.719a9.139,9.139,0,0,1,3.553,5.287l1.813,7.311a3.982,3.982,0,0,0,4.511,2.971l4.537-.747a3.982,3.982,0,0,0,3.322-4.26c-.629-7.548-1.408-10.286,1.045-13.653C1766.262,535.268,1757.86,521.516,1745.881,523.488Z" transform="translate(-1720.179 -504.697)" fill="#f7cc7f"/>
        <g id="Group_134" data-name="Group 134" transform="translate(20.351 27.696)">
          <path id="Path_336" data-name="Path 336" d="M1760.281,575.38c-.78-6.467-1.875-13.294-2.247-15.231-6.864.379-4.255-6.857-1.087-3.915a6,6,0,0,1,1.61,3.221,17.744,17.744,0,0,0,6.541-1.906c-.109-1.594-.267-2.8.179-3.824.672-1.541,2.626-1.961,3.421-.459a2.4,2.4,0,0,1,.134,1.883c-.459,1.275-1.846,2.118-3.053,2.778.361,5.141.861,10.322,1.491,15.424l-.648.08c-.62-5.02-1.115-10.115-1.474-15.174a18.4,18.4,0,0,1-6.457,1.842c.469,2.476,1.507,9.131,2.24,15.2Zm-5.507-16.756a3.842,3.842,0,0,0,3.123.878,5.306,5.306,0,0,0-1.4-2.789C1754.8,555.13,1753.752,557.521,1754.774,558.625Zm11.1-4.636a7.269,7.269,0,0,0-.146,3.22,5.161,5.161,0,0,0,2.489-2.279,1.481,1.481,0,0,0-.762-1.918C1767.376,552.992,1766.137,553.386,1765.875,553.988Z" transform="translate(-1753.707 -552.332)" fill="#fae0b2"/>
        </g>
        <path id="Path_337" data-name="Path 337" d="M1764.159,614.194c.017.061.038.119.053.181l1.812,7.311a3.982,3.982,0,0,0,4.511,2.971l4.537-.746a3.982,3.982,0,0,0,3.321-4.26c-.281-3.358-.588-5.762-.63-7.7Z" transform="translate(-1740.533 -565.579)" fill="#96d9c9"/>
        <g id="Group_135" data-name="Group 135" transform="translate(13.084 4.86)">
          <path id="Path_338" data-name="Path 338" d="M1734.254,487.913l-3.581-6.537a1.306,1.306,0,0,1,2.292-1.255l3.581,6.537a1.306,1.306,0,0,1-2.292,1.255Z" transform="translate(-1730.512 -479.443)" fill="#fae0b2"/>
        </g>
        <g id="Group_136" data-name="Group 136" transform="translate(0 25.853)">
          <path id="Path_339" data-name="Path 339" d="M1697.748,549.737l-7.805-.683a1.306,1.306,0,0,1,.228-2.6l7.806.683a1.306,1.306,0,1,1-.228,2.6Z" transform="translate(-1688.75 -546.447)" fill="#fae0b2"/>
        </g>
        <g id="Group_137" data-name="Group 137" transform="translate(0.881 45.891)">
          <path id="Path_340" data-name="Path 340" d="M1691.939,617.588a1.306,1.306,0,0,1,.01-1.847,42.733,42.733,0,0,1,6.272-5.116,1.306,1.306,0,0,1,1.451,2.172,40.053,40.053,0,0,0-5.887,4.8A1.306,1.306,0,0,1,1691.939,617.588Z" transform="translate(-1691.562 -610.405)" fill="#fae0b2"/>
        </g>
        <g id="Group_138" data-name="Group 138" transform="translate(35.143)">
          <path id="Path_341" data-name="Path 341" d="M1801.888,476.908a1.306,1.306,0,0,1-.925-1.6,49.7,49.7,0,0,0,1.611-10.142,1.306,1.306,0,1,1,2.608.14,52.347,52.347,0,0,1-1.7,10.676A1.306,1.306,0,0,1,1801.888,476.908Z" transform="translate(-1800.918 -463.931)" fill="#fae0b2"/>
        </g>
        <g id="Group_139" data-name="Group 139" transform="translate(44.095 18.882)">
          <path id="Path_342" data-name="Path 342" d="M1829.549,528.329a1.306,1.306,0,0,1,.874-1.628l8.114-2.446a1.306,1.306,0,1,1,.755,2.5l-8.115,2.446A1.306,1.306,0,0,1,1829.549,528.329Z" transform="translate(-1829.493 -524.2)" fill="#fae0b2"/>
        </g>
        <g id="Group_140" data-name="Group 140" transform="translate(48.308 38.839)">
          <path id="Path_343" data-name="Path 343" d="M1852.113,593.664a1.292,1.292,0,0,1-.354-.049,40.981,40.981,0,0,1-8.126-3.257,1.306,1.306,0,0,1,1.226-2.307,38.382,38.382,0,0,0,7.608,3.05,1.306,1.306,0,0,1-.354,2.564Z" transform="translate(-1842.94 -587.898)" fill="#fae0b2"/>
        </g>
      </g>
      <path id="Path_344" data-name="Path 344" d="M2217.537,717.732l-4.093-9.682-10.3-2.116a1.444,1.444,0,0,1-.655-2.506l7.943-6.886-1.17-10.446a1.445,1.445,0,0,1,2.181-1.4l9,5.426,9.575-4.341a1.445,1.445,0,0,1,2,1.643l-2.378,10.239,7.087,7.764a1.444,1.444,0,0,1-.943,2.413l-10.473.9-5.193,9.139A1.446,1.446,0,0,1,2217.537,717.732Z" transform="translate(-1797.741 -604.312)" fill="#f7cc7f"/>
      <path id="Path_345" data-name="Path 345" d="M2404.538,684.566l-1.683,6.778-11.2-1.5-3.683,9.606-8.569.246.124,4.337,11.46-.328,3.491-9.1,11.656,1.564,2.533-10.2Z" transform="translate(-1919.565 -604.366)" fill="#f48c7f"/>
      <path id="Path_346" data-name="Path 346" d="M1679.466,1641.246H1482.508a13.882,13.882,0,0,1-13.621-14.128v-8.4a13.881,13.881,0,0,1,13.621-14.128h196.958a27.9,27.9,0,0,0-.363,36.23Z" transform="translate(-1294.318 -1236.144)" fill="#b75742"/>
      <path id="Path_347" data-name="Path 347" d="M1862.011,1617.995H1752.768a13.882,13.882,0,0,0-13.621,14.129h0a13.881,13.881,0,0,0,13.621,14.128H1862.02A28.029,28.029,0,0,1,1862.011,1617.995Z" transform="translate(-1479.905 -1245.349)" fill="#fae0b2"/>
      <path id="Path_348" data-name="Path 348" d="M1657.538,1520.792a.817.817,0,0,0-.812-1.158H1552.51c-8.169,0-14.791,5.959-14.791,13.311h0c0,7.351,6.622,13.311,14.791,13.311h104.246a.82.82,0,0,0,.813-1.165h0A25.5,25.5,0,0,1,1657.538,1520.792Z" transform="translate(-1341.585 -1177.805)" fill="#86b1f2"/>
      <path id="Path_349" data-name="Path 349" d="M1766.806,1527.54h-51.651c-9.587,0-17.358,4.994-17.358,11.155s7.772,11.154,17.358,11.154h51.99A25.456,25.456,0,0,1,1766.806,1527.54Z" transform="translate(-1451.51 -1183.234)" fill="#f7cc7f"/>
      <g id="Group_142" data-name="Group 142" transform="translate(292.611 349.593)">
        <path id="Path_350" data-name="Path 350" d="M1855,1544.417h-6.726c-1.447,0-2.62.486-2.62,1.085v.1H1855Z" transform="translate(-1845.654 -1544.417)" fill="#b75742"/>
        <path id="Path_351" data-name="Path 351" d="M1866.278,1547.138c0-1.5-1.757-2.721-3.925-2.721h-8.631c1.643,0,2.975.924,2.975,2.063l-.041,29.164,4.77-3.75,4.862,3.75Z" transform="translate(-1851.194 -1544.417)" fill="#f47458"/>
      </g>
      <g id="Group_144" data-name="Group 144" transform="translate(189.294 316.559)">
        <path id="Path_352" data-name="Path 352" d="M1704.752,1465.91h-60.639c-5.377,0-9.736-5.174-9.736-11.556h0c0-6.382,4.359-11.556,9.736-11.556h60.639a20.33,20.33,0,0,0-.434,22.455Z" transform="translate(-1597.254 -1441.601)" fill="#fae0b2"/>
        <path id="Path_353" data-name="Path 353" d="M1553.016,1451.73h0c0-6.382,4.462-11.556,9.966-11.556h61.559a.564.564,0,0,0,.517-.6h0a.561.561,0,0,0-.517-.592h-97.655c-6.074,0-11,5.709-11,12.753h0c0,7.043,4.925,12.753,11,12.753h97.655a.561.561,0,0,0,.517-.593h0a.564.564,0,0,0-.517-.6h-61.559C1557.479,1463.286,1553.016,1458.112,1553.016,1451.73Z" transform="translate(-1515.888 -1438.977)" fill="#466eb6"/>
        <g id="Group_143" data-name="Group 143" transform="translate(87.564 6.876)">
          <path id="Path_354" data-name="Path 354" d="M1804.721,1460.925h-6.727c-1.447,0-2.619.476-2.619,1.064v.1h9.346Z" transform="translate(-1795.375 -1460.925)" fill="#184655"/>
          <path id="Path_355" data-name="Path 355" d="M1816,1463.593c0-1.473-1.757-2.668-3.924-2.668h-8.633c1.644,0,2.976.906,2.976,2.024l-.041,28.6,4.769-3.678,4.862,3.678Z" transform="translate(-1800.914 -1460.925)" fill="#3c8f7c"/>
        </g>
      </g>
      <g id="Group_147" data-name="Group 147" transform="translate(203.626 79.534)">
        <g id="Group_146" data-name="Group 146" transform="translate(111.081 64.852)">
          <path id="Path_356" data-name="Path 356" d="M2150.163,891.884l8.953-2.356-6.068,80.925-10.739.358,5.417-75.987A3.284,3.284,0,0,1,2150.163,891.884Z" transform="translate(-2071.462 -889.499)" fill="#184655"/>
          <g id="Group_145" data-name="Group 145">
            <path id="Path_357" data-name="Path 357" d="M2171.336,972.7a2.919,2.919,0,0,1-.614-.009,3.59,3.59,0,0,1-2.939-3.95l5.958-76.094a3.263,3.263,0,0,1,3.5-3.189,3.589,3.589,0,0,1,2.94,3.95l-5.958,76.094A3.34,3.34,0,0,1,2171.336,972.7Z" transform="translate(-2088.946 -889.435)" fill="#f7cc7f"/>
            <path id="Path_358" data-name="Path 358" d="M1916.18,1150.913c0,.056.006.112.012.168h0c.28,3.1,2.679,5.412,5.357,5.172l75.6-6.766c2.678-.239,4.622-2.943,4.342-6.04-.012-.131-.029-.26-.049-.387Z" transform="translate(-1916.18 -1063.598)" fill="#f7cc7f"/>
          </g>
        </g>
        <path id="Path_359" data-name="Path 359" d="M2003.056,1423.523c-4.951,2.745-20.083-2.069-20.083-2.5-.217,4.136-16.944,44.614-16.944,44.614l.014,12.453s34.467,1.643,33.971-1.4-2.349-1.064-9.224-6.817c-.611-.51-10.264-2.75-7.651-8.465C1988.4,1449.893,1999.573,1430.706,2003.056,1423.523Z" transform="translate(-1839.33 -1189.621)" fill="#f7a491"/>
        <path id="Path_360" data-name="Path 360" d="M1960.116,1576.243l37.729.011c1.362-.139,1.679-1.246,1.2-1.92-.991-1.387-8.221-4.656-13.081-6.826-8.467.989-23.348-2.266-24.711-4.2C1957.669,1568.111,1959.357,1576.086,1960.116,1576.243Z" transform="translate(-1834.537 -1287.332)" fill="#3c8f7c"/>
        <path id="Path_361" data-name="Path 361" d="M1935.755,1244.636c-.51-1.531,32.484-15.532,33.96-13.932,2.612,2.829-17.851,55.947-17.851,55.947l23.511,7.183s24.442-61.366,23.421-72.591-13.264-23.979-39.795-15.815S1935.755,1244.636,1935.755,1244.636Z" transform="translate(-1818.453 -1039.796)" fill="#355389"/>
        <path id="Path_362" data-name="Path 362" d="M2103.522,1448.22a124.852,124.852,0,0,0-18.566-1.4c.681,5.146,3.988,31.53,3.384,33.151a19.8,19.8,0,0,1-7.882,9.641s25.619,23.116,27.165,20.445-1.142-2.312-2.814-11.12c-.149-.781-3.852-13.075-4.082-19.706C2100.288,1466.583,2103.331,1455.242,2103.522,1448.22Z" transform="translate(-1917.908 -1207.335)" fill="#f7a491"/>
        <path id="Path_363" data-name="Path 363" d="M1828.769,1172.084c-3.574-1.906-12.853-1.973-23.054-1.312a234.1,234.1,0,0,0-58.445,11.471l-12.662,4.194.042-12.981s-40.279-6.74-41.68,3.244c-2.111,15.033.508,45.553,13.928,52.364,41.684,21.159,100.1-33.708,100.31-26.53.285,9.641,8.412,45.516,10.49,61.224,5.779.1,15.708.095,20.014-.894C1838.55,1232.095,1838.943,1177.512,1828.769,1172.084Z" transform="translate(-1651.375 -1017.516)" fill="#466eb6"/>
        <path id="Path_364" data-name="Path 364" d="M2077.9,1562.671l28.8,23.005c1.141.755,2.088.1,2.143-.724.114-1.7-3.407-8.813-5.792-13.571-7.175-4.6-16.639-16.6-16.469-18.955C2083.55,1554.989,2077.416,1562.068,2077.9,1562.671Z" transform="translate(-1916.137 -1279.857)" fill="#3c8f7c"/>
        <path id="Path_365" data-name="Path 365" d="M1658.214,711.533c-.968-8.843-1.987-17.719-9.317-24.2-5.933-5.245-13.476-6.134-20.934-3.328-21.132,7.951-10.244,26.719-37.19,45.642-8.373,5.88-17.6,9.9-23.905,17.822-8.823,11.082-5.492,24.412,2.549,33.312,38.478,42.584,81.437-14.927,84.52-28.732C1656.232,741.777,1658.836,717.225,1658.214,711.533Z" transform="translate(-1561.631 -682.44)" fill="#13375b"/>
        <path id="Path_366" data-name="Path 366" d="M1738.51,892.116a117.427,117.427,0,0,0-6.381-10.393c-3.26-5.8-11.683-8.727-11.683-8.727s-2.817.057-6.052.215a2.56,2.56,0,0,1-.61,1.074c-1.216.912-8.183-.265-12.684,2.79-15.084,12.93-10.912,75.6-9.726,95.4l45.94.435s-5.792-42.594,3.542-53.537C1747.356,911.755,1743.173,900.711,1738.51,892.116Z" transform="translate(-1649.741 -813.295)" fill="#50bfa5"/>
        <path id="Path_367" data-name="Path 367" d="M1769.073,800.464s-2.525,18.035-4.289,22.417,9.7,13.755,19.234,16.6-2.915-9.68-2.519-14.366,2.128-26.867,2.128-26.867Z" transform="translate(-1701.012 -761.966)" fill="#f7a491"/>
        <path id="Path_368" data-name="Path 368" d="M1791.25,804.61c.279-3.669.481-6.361.481-6.361l-14.555,2.215s-.367,2.119-.773,5.115C1782.3,809,1787.611,807.922,1791.25,804.61Z" transform="translate(-1709.115 -761.966)" fill="#f47458"/>
        <path id="Path_369" data-name="Path 369" d="M1766.691,699.823a16.535,16.535,0,0,0-9.28,6.7c-3.542,5.406-5.973,21.32,5.694,28.748s20.74-3.079,20.891-13.328S1781.951,698.015,1766.691,699.823Z" transform="translate(-1694.066 -694.265)" fill="#f7a491"/>
        <path id="Path_370" data-name="Path 370" d="M1844.531,748.155c-1,2.473-2.97,4.008-4.411,3.428s-1.8-3.055-.807-5.528,2.969-4.008,4.411-3.428S1845.526,745.682,1844.531,748.155Z" transform="translate(-1751.929 -723.687)" fill="#f7a491"/>
        <path id="Path_371" data-name="Path 371" d="M1754.938,699.1s-7.314,16.405-13.74,17.87-6.333,9.72-6.333,9.72.144-19.062,6.166-23.435S1754.938,699.1,1754.938,699.1Z" transform="translate(-1680.591 -693.88)" fill="#13375b"/>
        <path id="Path_372" data-name="Path 372" d="M1748.183,758.481c.846,2.664.072,5.287-1.729,5.859s-3.946-1.124-4.793-3.788-.072-5.288,1.729-5.859S1747.337,755.816,1748.183,758.481Z" transform="translate(-1685.022 -731.979)" fill="#f7a491"/>
        <path id="Path_373" data-name="Path 373" d="M1818.892,1034.04c-2.757-1-6.859-1.12-6.791-1.485.278-1.473,12.454,3.251,10.809,1.1-.916-1.2-10.029-5.436-12.245-4.736-2.149.679-16.261,4.64-16.261,4.64l-38.571-9.039s-9.735-22.123-10.685-41.13a53.014,53.014,0,0,0-20.521,6.959c3.373,18.177,11.572,47.64,20.634,53.169,3.813,2.326,49.334-2.784,49.334-2.784s10.031-.709,11.67-1.339c1.244-.479,4.444-2.281,6.185-2.774,3.958-1.121,11.009,1.693,11.031.918C1823.5,1036.977,1821.709,1035.059,1818.892,1034.04Z" transform="translate(-1673.56 -889.104)" fill="#f7a491"/>
        <path id="Path_374" data-name="Path 374" d="M1736.635,888.416c-.371-5.849-2.586-11.5-8.809-13.314a12.6,12.6,0,0,0-11.266,2.469c-3.667,2.995-4.69,7.8-4.673,12.346a176.463,176.463,0,0,0,2.628,31.193,66.748,66.748,0,0,1,23.206-7.3C1737.719,913.746,1737.126,896.146,1736.635,888.416Z" transform="translate(-1664.812 -814.435)" fill="#96d9c9"/>
      </g>
      <g id="Group_148" data-name="Group 148" transform="translate(94.142 104.667)">
        <path id="Path_375" data-name="Path 375" d="M1274.427,831.608l-59.8-11.135a2.212,2.212,0,0,1-1.77-2.58l7.49-40.226a2.213,2.213,0,0,1,2.58-1.77l59.8,11.135a2.212,2.212,0,0,1,1.77,2.58l-7.491,40.226A2.212,2.212,0,0,1,1274.427,831.608Z" transform="translate(-1212.622 -771.724)" fill="#f7cc7f"/>
        <path id="Path_376" data-name="Path 376" d="M1274.744,776.556l-18.2-3.39a2.212,2.212,0,0,1-1.77-2.579l1.14-6.121a2.212,2.212,0,0,1,2.58-1.769l18.2,3.389a2.212,2.212,0,0,1,1.77,2.579l-1.14,6.121A2.212,2.212,0,0,1,1274.744,776.556Z" transform="translate(-1241.403 -762.659)" fill="#f7cc7f"/>
        <path id="Path_377" data-name="Path 377" d="M1276.709,839.124a2.212,2.212,0,0,1-2.533,1.573l-60.187-11.207a2.212,2.212,0,0,1-1.8-2.367l3.15-36.059a2.213,2.213,0,0,1,2.609-1.982l66.862,12.451a2.212,2.212,0,0,1,1.724,2.775Z" transform="translate(-1212.182 -780.778)" fill="#fae0b2"/>
      </g>
      <g id="Group_149" data-name="Group 149" transform="translate(420.489 21.05)">
        <path id="Path_378" data-name="Path 378" d="M2266.262,505.978l-10.24,2.8-2.205-12.409,3.352-.6,1.552,8.74,6.645-1.814Z" transform="translate(-2253.817 -495.769)" fill="#50bfa5"/>
      </g>
      <g id="Group_150" data-name="Group 150" transform="translate(104.887 199.259)">
        <path id="Path_379" data-name="Path 379" d="M1252.313,1072.221a15.84,15.84,0,0,1,8.266,2.118,11.954,11.954,0,0,1,4.406,4.552l-.475.329a10.751,10.751,0,0,0-5.507-3.388,13.255,13.255,0,0,0-6.146-.06Z" transform="translate(-1250.485 -1069.809)" fill="#355389"/>
        <path id="Path_380" data-name="Path 380" d="M1260.74,1073.824s-15.624,2.607-14.167,14.812,17.939,21.7,32.65,14.152c19.789-10.155,11.973-35.972-2.112-37.969S1260.74,1073.824,1260.74,1073.824Z" transform="translate(-1246.477 -1064.578)" fill="#f47458"/>
        <path id="Path_381" data-name="Path 381" d="M1309.434,1072.6s4.076-4.184,13.007-.377,9.577,21.561,1.612,20.529S1303.065,1075.165,1309.434,1072.6Z" transform="translate(-1288.543 -1068.731)" fill="#f48c7f"/>
      </g>
      <g id="Group_153" data-name="Group 153" transform="translate(151.819)">
        <path id="Path_382" data-name="Path 382" d="M1477.714,469.564l-64.258,22.922a3.981,3.981,0,0,1-5.088-2.412l-11.861-33.249a3.982,3.982,0,0,1,2.413-5.088l64.258-22.922a3.982,3.982,0,0,1,5.089,2.412l11.86,33.249A3.982,3.982,0,0,1,1477.714,469.564Z" transform="translate(-1396.275 -428.582)" fill="#f19895"/>
        <path id="Path_383" data-name="Path 383" d="M1466.062,513.57a12.734,12.734,0,1,1-16.272-7.715A12.734,12.734,0,0,1,1466.062,513.57Z" transform="translate(-1427.214 -481.134)" fill="#fff"/>
        <path id="Path_384" data-name="Path 384" d="M1471.826,520.955a3.755,3.755,0,1,1-4.8-2.275A3.755,3.755,0,0,1,1471.826,520.955Z" transform="translate(-1443.148 -490.301)" fill="#f18c8e"/>
        <path id="Rectangle_34" data-name="Rectangle 34" d="M5.795,0H6.2A5.8,5.8,0,0,1,12,5.8v0a0,0,0,0,1,0,0H0a0,0,0,0,1,0,0v0A5.795,5.795,0,0,1,5.795,0Z" transform="translate(21.547 39.698) rotate(-19.632)" fill="#f18c8e"/>
        <g id="Group_151" data-name="Group 151" transform="translate(38.807 12.216)">
          <path id="Path_385" data-name="Path 385" d="M1521.765,480.843a1.624,1.624,0,0,1-.546-3.154l28.09-10.02a1.624,1.624,0,0,1,1.091,3.059l-28.091,10.02A1.613,1.613,0,0,1,1521.765,480.843Z" transform="translate(-1520.141 -467.574)" fill="#fff"/>
        </g>
        <g id="Group_152" data-name="Group 152" transform="translate(46.39 21.413)">
          <path id="Path_386" data-name="Path 386" d="M1545.968,508a1.624,1.624,0,0,1-.545-3.154l21.938-7.826a1.624,1.624,0,1,1,1.091,3.059l-21.938,7.826A1.623,1.623,0,0,1,1545.968,508Z" transform="translate(-1544.343 -496.928)" fill="#fff"/>
        </g>
      </g>
      <path id="Path_387" data-name="Path 387" d="M1615.692,1359.874H1460.533a8.724,8.724,0,0,0-8.724,8.725v7.338a8.723,8.723,0,0,0,8.724,8.724h155.159l-.08-.084A17.767,17.767,0,0,1,1615.692,1359.874Z" transform="translate(-1282.591 -1068.098)" fill="#f47458"/>
      <path id="Path_388" data-name="Path 388" d="M1765.2,1371.585h-82.946a8.724,8.724,0,0,0-8.724,8.724h0a8.724,8.724,0,0,0,8.724,8.724H1765.2A17.791,17.791,0,0,1,1765.2,1371.585Z" transform="translate(-1434.849 -1076.14)" fill="#fae0b2"/>
      <g id="Group_157" data-name="Group 157" transform="translate(448.123 242.147)">
        <g id="Group_155" data-name="Group 155" transform="translate(0 0)">
          <path id="Path_389" data-name="Path 389" d="M2353.987,1251.811l-11.762-29.508a2.894,2.894,0,0,1,1.617-3.759l42.322-16.869a2.9,2.9,0,0,1,3.76,1.617l11.76,29.508a2.893,2.893,0,0,1-1.617,3.759l-42.322,16.868A2.893,2.893,0,0,1,2353.987,1251.811Z" transform="translate(-2342.019 -1201.469)" fill="#fae0b2"/>
          <path id="Path_390" data-name="Path 390" d="M2484.353,1247.081l-10.568-26.515a.829.829,0,0,1,.463-1.079h0a.831.831,0,0,1,1.079.464l10.568,26.516a.83.83,0,0,1-.463,1.079h0A.831.831,0,0,1,2484.353,1247.081Z" transform="translate(-2432.462 -1213.801)" fill="#466eb6"/>
          <path id="Path_391" data-name="Path 391" d="M2472.427,1246.335l-8.677-21.771a.83.83,0,0,1,.464-1.079h0a.83.83,0,0,1,1.079.464l8.677,21.771a.831.831,0,0,1-.464,1.078h0A.83.83,0,0,1,2472.427,1246.335Z" transform="translate(-2425.571 -1216.547)" fill="#466eb6"/>
          <path id="Path_392" data-name="Path 392" d="M2464.283,1255.08l-10.568-26.516a.83.83,0,0,1,.464-1.079h0a.83.83,0,0,1,1.079.464l10.569,26.516a.831.831,0,0,1-.464,1.079h0A.832.832,0,0,1,2464.283,1255.08Z" transform="translate(-2418.68 -1219.294)" fill="#466eb6"/>
          <path id="Path_393" data-name="Path 393" d="M2451.837,1253.03l-8.157-20.465a.83.83,0,0,1,.463-1.078h0a.831.831,0,0,1,1.079.464l8.157,20.465a.829.829,0,0,1-.464,1.078h0A.83.83,0,0,1,2451.837,1253.03Z" transform="translate(-2411.788 -1222.041)" fill="#466eb6"/>
          <g id="Group_154" data-name="Group 154" transform="translate(46.68 3.156)">
            <path id="Path_394" data-name="Path 394" d="M2495.939,1212.323l-.212-.533a.373.373,0,0,0-.477-.223l-4.017,1.6a.372.372,0,0,0-.193.489l.212.534a.373.373,0,0,0,.477.223l4.018-1.6A.372.372,0,0,0,2495.939,1212.323Z" transform="translate(-2491.012 -1211.542)" fill="#355389"/>
            <path id="Path_395" data-name="Path 395" d="M2498.845,1219.613l-.212-.534a.373.373,0,0,0-.478-.222l-4.016,1.6a.372.372,0,0,0-.193.489l.213.534a.372.372,0,0,0,.476.222l4.018-1.6A.371.371,0,0,0,2498.845,1219.613Z" transform="translate(-2493.007 -1216.548)" fill="#355389"/>
            <path id="Path_396" data-name="Path 396" d="M2501.75,1226.9l-.213-.533a.371.371,0,0,0-.477-.222l-4.017,1.6a.372.372,0,0,0-.193.489l.213.534a.372.372,0,0,0,.477.222l4.017-1.6A.372.372,0,0,0,2501.75,1226.9Z" transform="translate(-2495.002 -1221.554)" fill="#355389"/>
            <path id="Path_397" data-name="Path 397" d="M2504.656,1234.192l-.213-.534a.372.372,0,0,0-.477-.223l-4.016,1.6a.373.373,0,0,0-.194.489l.213.534a.372.372,0,0,0,.477.222l4.017-1.6A.373.373,0,0,0,2504.656,1234.192Z" transform="translate(-2496.998 -1226.559)" fill="#355389"/>
            <path id="Path_398" data-name="Path 398" d="M2507.562,1241.481l-.212-.534a.374.374,0,0,0-.478-.223l-4.017,1.6a.373.373,0,0,0-.193.49l.213.534a.372.372,0,0,0,.477.222l4.017-1.6A.372.372,0,0,0,2507.562,1241.481Z" transform="translate(-2498.992 -1231.565)" fill="#355389"/>
            <path id="Path_399" data-name="Path 399" d="M2510.466,1248.77l-.211-.534a.373.373,0,0,0-.478-.223l-4.016,1.6a.371.371,0,0,0-.193.49l.212.533a.372.372,0,0,0,.477.222l4.017-1.6A.373.373,0,0,0,2510.466,1248.77Z" transform="translate(-2500.988 -1236.57)" fill="#355389"/>
            <path id="Path_400" data-name="Path 400" d="M2513.372,1256.06l-.212-.534a.374.374,0,0,0-.477-.223l-4.017,1.6a.372.372,0,0,0-.192.49l.212.534a.372.372,0,0,0,.476.223l4.019-1.6A.372.372,0,0,0,2513.372,1256.06Z" transform="translate(-2502.983 -1241.576)" fill="#355389"/>
            <path id="Path_401" data-name="Path 401" d="M2516.276,1263.35l-.212-.534a.372.372,0,0,0-.477-.222l-4.017,1.6a.373.373,0,0,0-.194.489l.214.534a.372.372,0,0,0,.477.223l4.017-1.6A.372.372,0,0,0,2516.276,1263.35Z" transform="translate(-2504.977 -1246.582)" fill="#355389"/>
            <path id="Path_402" data-name="Path 402" d="M2519.183,1270.639l-.213-.534a.371.371,0,0,0-.477-.222l-4.016,1.6a.373.373,0,0,0-.193.489l.213.534a.371.371,0,0,0,.477.223l4.016-1.6A.372.372,0,0,0,2519.183,1270.639Z" transform="translate(-2506.973 -1251.588)" fill="#355389"/>
            <path id="Path_403" data-name="Path 403" d="M2522.089,1277.929l-.213-.534a.372.372,0,0,0-.477-.223l-4.016,1.6a.372.372,0,0,0-.193.49l.213.534a.37.37,0,0,0,.475.222l4.018-1.6A.373.373,0,0,0,2522.089,1277.929Z" transform="translate(-2508.968 -1256.594)" fill="#355389"/>
            <path id="Path_404" data-name="Path 404" d="M2524.994,1285.219l-.213-.534a.372.372,0,0,0-.477-.222l-4.018,1.6a.374.374,0,0,0-.192.489l.213.534a.373.373,0,0,0,.477.223l4.017-1.6A.372.372,0,0,0,2524.994,1285.219Z" transform="translate(-2510.963 -1261.599)" fill="#355389"/>
            <path id="Path_405" data-name="Path 405" d="M2527.9,1292.508l-.212-.534a.372.372,0,0,0-.477-.223l-4.016,1.6a.372.372,0,0,0-.193.49l.212.534a.372.372,0,0,0,.476.223l4.018-1.6A.372.372,0,0,0,2527.9,1292.508Z" transform="translate(-2512.959 -1266.605)" fill="#355389"/>
          </g>
        </g>
        <g id="Group_156" data-name="Group 156" transform="translate(54.087 26.428)">
          <path id="Path_406" data-name="Path 406" d="M2533.286,1286.1l-16.8,23.918a.641.641,0,0,0-.086.175l-1.713,5.255a.658.658,0,0,0,1.022.729l4.5-3.389a.673.673,0,0,0,.141-.147l16.84-23.98a.658.658,0,0,0-.183-.932l-2.827-1.806A.658.658,0,0,0,2533.286,1286.1Z" transform="translate(-2514.655 -1285.823)" fill="#b75742"/>
          <path id="Path_407" data-name="Path 407" d="M2520.58,1366.157l-.041.059-4.338,3.269-1.183-.791,1.623-4.981A20.183,20.183,0,0,1,2520.58,1366.157Z" transform="translate(-2514.905 -1339.31)" fill="#f7cc7f"/>
        </g>
      </g>
      <g id="Group_158" data-name="Group 158" transform="translate(335.511 5.823)">
        <path id="Path_408" data-name="Path 408" d="M2005.72,460.248c2.418,1.93,6.624,8.139,11.99,12.5,3.14,2.55,5.557,1.9,9.565,2.385,19.011,2.3,13.86,6.184,16.14,6.566-.648,1.49-6.571,14.081-7.678,16.626a4.638,4.638,0,0,1-5.343,3.044c-3.932-.544-7.9-.948-11.769-1.787-9.922-2.152-15.444-7.114-22.555-13.141a4.65,4.65,0,0,1-1.373-5.854A161.453,161.453,0,0,1,2005.72,460.248Z" transform="translate(-1990.56 -456.15)" fill="#bb7f87"/>
        <path id="Path_409" data-name="Path 409" d="M2037.5,487.863c-.085,4.143.232,4.975-1.547,4.346a25.015,25.015,0,0,1-3.12-1.393c-.713-.369-.741-.854-.162-1.437.844-.847,1.711-1.673,2.555-2.5a3.668,3.668,0,0,1,1.61-4.405c.31-.182.083.2,2.731-5.89-8.755-1.08-14.933-1.8-25.615-3.118a14.361,14.361,0,0,1-7.6-3.309Q1994.9,460.585,1983.463,451a2.111,2.111,0,0,1-.344-3.115,2.39,2.39,0,0,1,2.355-.671c2.438.305,26.341,3.275,28.767,3.559a15.717,15.717,0,0,1,8.462,3.638q11.243,9.415,22.515,18.8c1.029.859,1.309,1.648.946,2.6a2.013,2.013,0,0,1-2.576,1.268c-.948-.2-1.366.081-1.692.958-1.472,3.963-2.5,4.84-2.144,6.287C2040.027,485.444,2038.7,487.378,2037.5,487.863Z" transform="translate(-1982.584 -447.169)" fill="#f19895"/>
      </g>
      <g id="Group_160" data-name="Group 160" transform="translate(429.991 316.765)">
        <path id="Path_410" data-name="Path 410" d="M2284.428,1451.288l4.355,4.154a115.764,115.764,0,0,1,24.786,34.344l.668,1.414s11.406,1.008,13-9.305h0a172.4,172.4,0,0,1-25.045-36.782l-2.061-4.823Z" transform="translate(-2284.339 -1440.085)" fill="#466eb6"/>
        <path id="Path_411" data-name="Path 411" d="M2299.928,1439.827c.56.8-2.5,3.9-6.834,6.927s-8.32,4.859-8.881,4.057,2.519-3.941,6.853-6.963S2299.368,1439.025,2299.928,1439.827Z" transform="translate(-2284.147 -1439.636)" fill="#86b1f2"/>
        <path id="Path_412" data-name="Path 412" d="M2307.666,1440.3l-.014-.015s-8.683,7.349-12.263,8.1l1.106,1.5a46.044,46.044,0,0,0,4.318-2.691C2305.1,1444.214,2308.136,1441.15,2307.666,1440.3Z" transform="translate(-2291.866 -1440.084)" fill="#355389"/>
        <g id="Group_159" data-name="Group 159" transform="translate(5.258 21.559)">
          <path id="Path_413" data-name="Path 413" d="M2350.629,1508.449c.015,1.267-.469,6.735-9.568,9.017q.9,1.223,1.765,2.468c5.76-1.7,8.349-4.66,9.513-6.91.184-.356.406-.834.554-1.2Q2351.741,1510.148,2350.629,1508.449Z" transform="translate(-2328.488 -1508.449)" fill="#b75742"/>
          <path id="Path_414" data-name="Path 414" d="M2314.319,1531.021l-13.389-.479,3.172,2.693-1.9,3.441,12.673-3.231Z" transform="translate(-2300.93 -1523.62)" fill="#b75742"/>
          <path id="Path_415" data-name="Path 415" d="M2337.134,1542.01l-4.757,8.288,3.346-1.274,1.289,2.631,2.236-8.716Z" transform="translate(-2322.524 -1531.495)" fill="#b75742"/>
          <path id="Path_416" data-name="Path 416" d="M2343.323,1529.929a4.4,4.4,0,1,1,3.948-4.688A4.335,4.335,0,0,1,2343.323,1529.929Z" transform="translate(-2326.896 -1517.167)" fill="#f47458"/>
        </g>
      </g>
      <g id="Group_162" data-name="Group 162" transform="translate(450.89 118.154)">
        <path id="Path_417" data-name="Path 417" d="M2380.06,850.6l-28.2-25.161c-1.833-1.635-1.069-5,1.459-6.431l22.5-12.742a3.517,3.517,0,0,1,4.108.192l28.2,25.161c1.832,1.635,1.069,5-1.459,6.431l-22.5,12.742A3.517,3.517,0,0,1,2380.06,850.6Z" transform="translate(-2350.852 -805.706)" fill="#f19895"/>
        <g id="Group_161" data-name="Group 161" transform="translate(25.511 3.717)">
          <path id="Path_418" data-name="Path 418" d="M2434.64,838.735l-2.351-19.332a1.736,1.736,0,0,1,1.2-1.767,1.119,1.119,0,0,1,1.53.915l2.164,17.789,21.382,5.171a1.18,1.18,0,0,1,.718,1.679,1.659,1.659,0,0,1-1.811,1.068Z" transform="translate(-2432.279 -817.569)" fill="#fff"/>
        </g>
      </g>
      <g id="Group_163" data-name="Group 163" transform="translate(0 404.871)">
        <path id="Path_419" data-name="Path 419" d="M914.43,1720.853a2.97,2.97,0,0,0-2.733,3.162c0,1.746,1.224,3.162,3.059,1.04H1470.12c.712,0,1.288-.933,1.293-2.088h0c0-1.166-.575-2.114-1.293-2.114Z" transform="translate(-911.697 -1720.853)" fill="#184655"/>
      </g>
      <path id="Path_420" data-name="Path 420" d="M1250.231,602.494l2.914,5.765,6.585-.213,2.81,6.694,6.944-2.39,3.512,7.43,6.665-1.412,4.547,6.6-2.5,1.721-3.4-4.932-7.033,1.49L1267.9,616.1l-7.06,2.43-3.1-7.387-6.43.208-2.7-5.344-4.194,1.02-.717-2.947Z" transform="translate(-1139.683 -548.007)" fill="#f7cc7f"/>
      <path id="Path_421" data-name="Path 421" d="M2381.592,1057.132l5.985,2.432,4.825-4.487,6.515,3.2,3.665-6.363,7.53,3.3,4.1-5.443,7.762,1.986-.752,2.938-5.8-1.485-4.324,5.743-7.236-3.168-3.727,6.47-7.19-3.533-4.712,4.381-5.547-2.255-2.492,3.525-2.476-1.751Z" transform="translate(-1918.406 -855.149)" fill="#50bfa5"/>
    </g>
    <g transform="matrix(1, 0, 0, 1, 303.29, 56.91)" filter="url(#Ellipse_35)">
      <ellipse id="Ellipse_35-2" data-name="Ellipse 35" cx="225.52" cy="21.989" rx="225.52" ry="21.989" transform="translate(54.34 434.02)" fill="rgba(0,0,0,0.05)"/>
    </g>
  </g>
</svg>
