<svg xmlns="http://www.w3.org/2000/svg" xmlns:xlink="http://www.w3.org/1999/xlink" width="362.487" height="184.09" viewBox="0 0 362.487 184.09">
  <defs>
    <filter id="Union_1" x="0" y="0" width="362.487" height="184.09" filterUnits="userSpaceOnUse">
      <feOffset dy="3" input="SourceAlpha"/>
      <feGaussianBlur stdDeviation="3" result="blur"/>
      <feFlood flood-opacity="0.161"/>
      <feComposite operator="in" in2="blur"/>
      <feComposite in="SourceGraphic"/>
    </filter>
  </defs>
  <g id="Component_3_1" data-name="Component 3 – 1" transform="translate(9 6)">
    <g transform="matrix(1, 0, 0, 1, -9, -6)" filter="url(#Union_1)">
      <path id="Union_1-2" data-name="Union 1" d="M8.734,157.265c-33.119-7.757,38.4-28.351,41.548-46.433s-63.97-10.481-27.435-21.993c17.769-5.6,38.464-8.715,60.739-10.3A46,46,0,0,1,78.8,58.216C78.8,26.064,113.024,0,155.243,0s76.446,26.064,76.446,58.216A46.217,46.217,0,0,1,226.208,79.9c13.64.445,26.908.762,39.533.762,77.441,0-.787,29.5,12.782,49.626s110.542,14.745,41.238,22.867c-44.6,5.226-128.552,12.931-203.362,12.931C74.955,166.091,36.32,163.726,8.734,157.265Z" transform="translate(9 6)" fill="#12699e"/>
    </g>
    <text id="موقع_خاص_بك" data-name="موقع خاص بك" transform="translate(310.502 131.868)" fill="#fff" font-size="26" font-family="SegoeUI, Segoe UI"><tspan x="-78.774" y="0">موقع خاص بك</tspan></text>
    <g id="star" transform="translate(127.282 29.82)">
      <path id="Path_1108" data-name="Path 1108" d="M92.661,30.9l-14.3-1.326L72.678,16.384a1.146,1.146,0,0,0-2.105,0L64.892,29.576,50.59,30.9a1.146,1.146,0,0,0-.651,2l10.791,9.48L57.572,56.4a1.146,1.146,0,0,0,1.7,1.237L71.625,50.3l12.35,7.333a1.146,1.146,0,0,0,1.7-1.237L82.521,42.385l10.791-9.48A1.146,1.146,0,0,0,92.661,30.9Z" transform="translate(-44.249 -15.187)" fill="#ffdc64"/>
      <g id="Group_473" data-name="Group 473">
        <path id="Path_1109" data-name="Path 1109" d="M92.229,11.715c.729,1.013,2.787,5.362,3.964,7.9a.4.4,0,0,1-.634.457c-2.03-1.92-5.5-5.251-6.231-6.264a1.788,1.788,0,1,1,2.9-2.089Z" transform="translate(-79.474 -10.971)" fill="#fff082"/>
        <path id="Path_1110" data-name="Path 1110" d="M359.288,11.715c-.729,1.013-2.787,5.362-3.964,7.9a.4.4,0,0,0,.634.457c2.03-1.92,5.5-5.251,6.231-6.264a1.788,1.788,0,0,0-2.9-2.089Z" transform="translate(-317.291 -10.971)" fill="#fff082"/>
        <path id="Path_1111" data-name="Path 1111" d="M423.823,284.1c-1.186-.387-5.955-1.026-8.727-1.377a.4.4,0,0,0-.242.743c2.446,1.351,6.675,3.646,7.861,4.033a1.788,1.788,0,0,0,1.109-3.4Z" transform="translate(-370.304 -253.66)" fill="#fff082"/>
        <path id="Path_1112" data-name="Path 1112" d="M1.234,284.1c1.186-.387,5.955-1.026,8.727-1.377a.4.4,0,0,1,.242.743c-2.446,1.351-6.675,3.646-7.861,4.033a1.788,1.788,0,0,1-1.109-3.4Z" transform="translate(0 -253.66)" fill="#fff082"/>
        <path id="Path_1113" data-name="Path 1113" d="M239.794,408.75c0-1.248.871-5.98,1.4-8.724a.4.4,0,0,1,.781,0c.526,2.744,1.4,7.476,1.4,8.724a1.788,1.788,0,0,1-3.576,0Z" transform="translate(-214.151 -358.132)" fill="#fff082"/>
      </g>
      <path id="Path_1114" data-name="Path 1114" d="M74.744,21.182l-2.066-4.8a1.146,1.146,0,0,0-2.105,0L64.891,29.576,50.59,30.9a1.146,1.146,0,0,0-.651,2l10.791,9.48L57.572,56.4a1.146,1.146,0,0,0,1.7,1.237l1.644-.976A88.973,88.973,0,0,1,74.744,21.182Z" transform="translate(-44.249 -15.187)" fill="#ffc850"/>
    </g>
  </g>
</svg>
