<svg xmlns="http://www.w3.org/2000/svg" xmlns:xlink="http://www.w3.org/1999/xlink" width="362.487" height="184.09" viewBox="0 0 362.487 184.09">
  <defs>
    <filter id="Union_1" x="0" y="0" width="362.487" height="184.09" filterUnits="userSpaceOnUse">
      <feOffset dy="3" input="SourceAlpha"/>
      <feGaussianBlur stdDeviation="3" result="blur"/>
      <feFlood flood-opacity="0.161"/>
      <feComposite operator="in" in2="blur"/>
      <feComposite in="SourceGraphic"/>
    </filter>
  </defs>
  <g id="Component_3_5" data-name="Component 3 – 5" transform="translate(9 6)">
    <g transform="matrix(1, 0, 0, 1, -9, -6)" filter="url(#Union_1)">
      <path id="Union_1-2" data-name="Union 1" d="M8.734,157.265c-33.119-7.757,38.4-28.351,41.548-46.433s-63.97-10.481-27.435-21.993c17.769-5.6,38.464-8.715,60.739-10.3A46,46,0,0,1,78.8,58.216C78.8,26.064,113.024,0,155.244,0s76.446,26.064,76.446,58.216A46.217,46.217,0,0,1,226.208,79.9c13.64.445,26.908.762,39.533.762,77.441,0-.787,29.5,12.782,49.626s110.542,14.745,41.238,22.867c-44.6,5.226-128.552,12.931-203.362,12.931C74.955,166.091,36.32,163.726,8.734,157.265Z" transform="translate(9 6)" fill="#12699e"/>
    </g>
    <text id="بسهولة_طرقعة_الإصبع" data-name="بسهولة طرقعة الإصبع" transform="translate(320.502 131.868)" fill="#fff" font-size="18" font-family="SegoeUI, Segoe UI"><tspan x="-81.58" y="0">بسهولة طرقعة الإصبع</tspan></text>
    <g id="click_1_" data-name="click (1)" transform="translate(132.406 13.83)">
      <path id="Path_1123" data-name="Path 1123" d="M12.067,57.8,9.484,60.609a1.945,1.945,0,0,0-.517,1.351c.019,1.393.081,4.117.278,6.526l1.228-3.454a4.893,4.893,0,0,1,3.975-3.2,1.9,1.9,0,0,1,.514-1.39l5.419-4.881,3.849-3.7a2.936,2.936,0,0,0,.067-4.051l.061-.079a.757.757,0,0,1-.076-.078l-.067.067a.987.987,0,0,0-1.377,0l-4.807,4.5a.947.947,0,0,1-.152.143l-5.746,5.377a.792.792,0,0,1-.067.06Zm0,0" transform="translate(-7.984 -42.183)" fill="#ffe278"/>
      <path id="Path_1124" data-name="Path 1124" d="M75.988,156.357h2.921a15.858,15.858,0,0,1-.093-2.544Zm0,0" transform="translate(-67.576 -136.762)" fill="#ffe278"/>
      <path id="Path_1125" data-name="Path 1125" d="M42.968,36.377a2.944,2.944,0,0,0-2.072-.853.979.979,0,0,0-.979.979v7.715l3.914-3.663V38.459a2.954,2.954,0,0,0-.864-2.082Zm0,0" transform="translate(-35.505 -31.586)" fill="#ffe278"/>
      <path id="Path_1126" data-name="Path 1126" d="M43.863,67.535c-2.026-1.487-5.637-4.443-7.134-7.447-1.879-3.758-.528-6.517.46-8.523.793-1.6,1.057-2.329.578-3.063a2.288,2.288,0,0,0-2.681-1.086,4.882,4.882,0,0,1-.861,5.725l-4.169,3.973a13.9,13.9,0,0,0-.147,4.551H32.12a3.024,3.024,0,0,1,1.7.538l5.069,3.591A2.742,2.742,0,0,1,40.037,68a2.7,2.7,0,0,1-.391,1.4c-.059.1-.137.2-.206.294l1.341.959a2.728,2.728,0,0,1,.744,3.6,4.878,4.878,0,0,1-6.9,1.556l-1.957-1.312a.94.94,0,0,0-.538-.156H29.116a.964.964,0,0,0-.93.656c-.059.206-.147.46-.255.744-1.028,2.838-1.37,4.854.274,5.519a.979.979,0,0,1-.734,1.811c-3.728-1.5-2.085-6.048-1.38-8,.088-.255.176-.48.235-.666a2.9,2.9,0,0,1,2.789-2.026H32.13a2.906,2.906,0,0,1,1.624.489l1.957,1.311a2.911,2.911,0,0,0,4.13-.939.742.742,0,0,0-.206-1L35.124,69a2.935,2.935,0,0,0-1.7-.538h-7.7a2.922,2.922,0,0,0-2.76,1.957l-4.188,11.89a1.969,1.969,0,0,0,.734,2.27L35.349,95.445a2.941,2.941,0,0,1,1.282,2.427.972.972,0,0,0,.969.978H51.829a.965.965,0,0,0,.763-.372.979.979,0,0,0,.186-.832l-1.429-5.275a25.432,25.432,0,0,1-.489-7.662c.744-9.385-5.7-16.215-7-17.174ZM41.5,92.93a.978.978,0,0,1-.978-.979c0-3.435-5.862-6.146-8.113-6.909a.979.979,0,0,1,.617-1.849c.382.127,9.453,3.22,9.453,8.758a.978.978,0,0,1-.979.979Zm3.9-7.829c-3.346,0-5.833-2.339-7.329-4.306a.978.978,0,0,1,1.556-1.184c1.233,1.6,3.23,3.533,5.774,3.533a.978.978,0,1,1,0,1.957Zm0,0" transform="translate(-16.603 -42.069)" fill="#ffe278"/>
      <path id="Path_1127" data-name="Path 1127" d="M.963,210.49l.127.086,3.523-10.011A4.892,4.892,0,0,1,9.219,197.3h7.7a4.861,4.861,0,0,1,2.838.912l1.589,1.137c.041-.056.086-.113.12-.169a.758.758,0,0,0,.1-.391.747.747,0,0,0-.322-.6L16.19,194.6a.991.991,0,0,0-.566-.182h-8.4a2.947,2.947,0,0,0-2.786,1.949L.22,208.24a1.918,1.918,0,0,0,.743,2.25Zm0,0" transform="translate(-0.105 -172.865)" fill="#ffe278"/>
      <path id="Path_1128" data-name="Path 1128" d="M204.127.329l-.933.979a.979.979,0,1,0,1.417,1.348l.932-.979A.979.979,0,1,0,204.127.329Zm0,0" transform="translate(-180.421 -0.002)" fill="#ffe278"/>
      <path id="Path_1129" data-name="Path 1129" d="M228.912,36.189l-1.272.358a.979.979,0,0,0,.265,1.921.955.955,0,0,0,.266-.037l1.272-.357a.979.979,0,0,0-.53-1.885Zm0,0" transform="translate(-201.781 -32.145)" fill="#ffe278"/>
      <path id="Path_1130" data-name="Path 1130" d="M221.933,80.436a.954.954,0,0,0,.266.036.979.979,0,0,0,.263-1.921l-1.272-.358a.979.979,0,1,0-.53,1.885Zm0,0" transform="translate(-195.576 -69.493)" fill="#ffe278"/>
    </g>
  </g>
</svg>
