<svg xmlns="http://www.w3.org/2000/svg" xmlns:xlink="http://www.w3.org/1999/xlink" width="362.487" height="184.09" viewBox="0 0 362.487 184.09">
  <defs>
    <filter id="Union_1" x="0" y="0" width="362.487" height="184.09" filterUnits="userSpaceOnUse">
      <feOffset dy="3" input="SourceAlpha"/>
      <feGaussianBlur stdDeviation="3" result="blur"/>
      <feFlood flood-opacity="0.161"/>
      <feComposite operator="in" in2="blur"/>
      <feComposite in="SourceGraphic"/>
    </filter>
  </defs>
  <g id="Component_3_3" data-name="Component 3 – 3" transform="translate(9 6)">
    <g transform="matrix(1, 0, 0, 1, -9, -6)" filter="url(#Union_1)">
      <path id="Union_1-2" data-name="Union 1" d="M8.734,157.265c-33.119-7.757,38.4-28.351,41.548-46.433s-63.97-10.481-27.435-21.993c17.769-5.6,38.464-8.715,60.739-10.3A46,46,0,0,1,78.8,58.216C78.8,26.064,113.024,0,155.244,0s76.446,26.064,76.446,58.216A46.217,46.217,0,0,1,226.208,79.9c13.64.445,26.908.762,39.533.762,77.441,0-.787,29.5,12.782,49.626s110.542,14.745,41.238,22.867c-44.6,5.226-128.552,12.931-203.362,12.931C74.955,166.091,36.32,163.726,8.734,157.265Z" transform="translate(9 6)" fill="#12699e"/>
    </g>
    <text id="لا_يمكن_لأحد_تنزيل_دروسك" data-name="لا يمكن لأحد تنزيل دروسك" transform="translate(345.502 135.868)" fill="#fff" font-size="17" font-family="SegoeUI, Segoe UI"><tspan x="-90.221" y="0">لا يمكن لأحد تنزيل دروسك</tspan></text>
    <g id="Group_474" data-name="Group 474" transform="translate(126.266 25.859)">
      <g id="Ellipse_41" data-name="Ellipse 41" fill="none" stroke="#ffe600" stroke-width="8">
        <circle cx="26" cy="26" r="26" stroke="none"/>
        <circle cx="26" cy="26" r="22" fill="none"/>
      </g>
      <g id="down-arrow" transform="translate(5.401 5.401)">
        <path id="Path_1120" data-name="Path 1120" d="M20.6,0a20.6,20.6,0,1,0,20.6,20.6A20.6,20.6,0,0,0,20.6,0Z" fill="#ffc107"/>
        <path id="Path_1121" data-name="Path 1121" d="M109.268,103.136a.834.834,0,0,0-.74-.656h-5.6V86.566c0-.587-.358-1.062-.8-1.062H92.519c-.442,0-.8.476-.8,1.062v15.913h-5.6c-.442,0-.8.474-.8,1.06a1.259,1.259,0,0,0,.235.754l11.206,14.885a.67.67,0,0,0,1.132,0l11.206-14.885A1.326,1.326,0,0,0,109.268,103.136Z" transform="translate(-76.724 -81.041)" fill="#fafafa"/>
      </g>
      <path id="Path_1122" data-name="Path 1122" d="M35.93,1.429,1.413,36.34" transform="translate(7.571 7.571)" fill="none" stroke="#ffe600" stroke-width="8"/>
    </g>
  </g>
</svg>
