<svg xmlns="http://www.w3.org/2000/svg" xmlns:xlink="http://www.w3.org/1999/xlink" width="362.487" height="184.09" viewBox="0 0 362.487 184.09">
  <defs>
    <filter id="Union_1" x="0" y="0" width="362.487" height="184.09" filterUnits="userSpaceOnUse">
      <feOffset dy="3" input="SourceAlpha"/>
      <feGaussianBlur stdDeviation="3" result="blur"/>
      <feFlood flood-opacity="0.161"/>
      <feComposite operator="in" in2="blur"/>
      <feComposite in="SourceGraphic"/>
    </filter>
  </defs>
  <g id="Component_3_2" data-name="Component 3 – 2" transform="translate(9 6)">
    <g transform="matrix(1, 0, 0, 1, -9, -6)" filter="url(#Union_1)">
      <path id="Union_1-2" data-name="Union 1" d="M8.734,157.265c-33.119-7.757,38.4-28.351,41.548-46.433s-63.97-10.481-27.435-21.993c17.769-5.6,38.464-8.715,60.739-10.3A46,46,0,0,1,78.8,58.216C78.8,26.064,113.024,0,155.244,0s76.446,26.064,76.446,58.216A46.217,46.217,0,0,1,226.208,79.9c13.64.445,26.908.762,39.533.762,77.441,0-.787,29.5,12.782,49.626s110.542,14.745,41.238,22.867c-44.6,5.226-128.552,12.931-203.362,12.931C74.955,166.091,36.32,163.726,8.734,157.265Z" transform="translate(9 6)" fill="#12699e"/>
    </g>
    <text id="بث_مباشر_للحصص" data-name="بث مباشر للحصص" transform="translate(310.502 131.868)" fill="#fff" font-size="20" font-family="SegoeUI, Segoe UI"><tspan x="-77.29" y="0">بث مباشر للحصص</tspan></text>
    <g id="live" transform="translate(126.992 15.904)">
      <g id="Group_475" data-name="Group 475" transform="translate(0 29.517)">
        <path id="Path_1131" data-name="Path 1131" d="M68.88,290.165H26.07A5.075,5.075,0,0,1,21,285.1V267.07A5.075,5.075,0,0,1,26.07,262H68.88a5.075,5.075,0,0,1,5.07,5.07V285.1A5.075,5.075,0,0,1,68.88,290.165Z" transform="translate(-21 -262)" fill="#ffdc64"/>
        <path id="Path_1132" data-name="Path 1132" d="M277.405,262H256v28.165h21.405a5.075,5.075,0,0,0,5.07-5.07V267.07A5.075,5.075,0,0,0,277.405,262Z" transform="translate(-229.525 -262)" fill="#ffb454"/>
        <path id="Path_1133" data-name="Path 1133" d="M52.69,292A1.692,1.692,0,0,0,51,293.69v18.025a1.692,1.692,0,0,0,1.69,1.69H95.5a1.692,1.692,0,0,0,1.69-1.69V293.69A1.692,1.692,0,0,0,95.5,292Z" transform="translate(-47.62 -288.62)" fill="#f4f4f6"/>
        <path id="Path_1134" data-name="Path 1134" d="M277.405,292H256v21.405h21.405a1.692,1.692,0,0,0,1.69-1.69V293.69A1.692,1.692,0,0,0,277.405,292Z" transform="translate(-229.525 -288.62)" fill="#fff5e5"/>
        <path id="Path_1135" data-name="Path 1135" d="M97.5,333.256h-.01c-.764,0-1.57.007-2.246.009V323.69a1.69,1.69,0,0,0-3.38,0v11.256a1.69,1.69,0,0,0,1.4,1.666,9.835,9.835,0,0,0,1.461.035c.607,0,1.488,0,2.779-.01a1.69,1.69,0,0,0-.009-3.38Z" transform="translate(-83.883 -315.24)" fill="#ffb454"/>
        <path id="Path_1136" data-name="Path 1136" d="M178.579,322a1.69,1.69,0,0,0-1.69,1.69v11.266a1.69,1.69,0,0,0,3.38,0V323.69A1.69,1.69,0,0,0,178.579,322Z" transform="translate(-159.327 -315.24)" fill="#ffb454"/>
        <path id="Path_1137" data-name="Path 1137" d="M354.434,333.266h-3.057v-2.253h2.707a1.69,1.69,0,0,0,0-3.38h-2.707V325.38h3.057a1.69,1.69,0,1,0,0-3.38h-4.747a1.69,1.69,0,0,0-1.69,1.69v11.266a1.69,1.69,0,0,0,1.69,1.69h4.747a1.69,1.69,0,0,0,0-3.38Z" transform="translate(-311.158 -315.24)" fill="#ff7038"/>
        <path id="Path_1138" data-name="Path 1138" d="M237.12,322.1a1.69,1.69,0,0,0-2.136,1.071l-2.345,7.06-2.465-7.1a1.69,1.69,0,0,0-3.193,1.108l3.852,11.1,0,.011a1.946,1.946,0,0,0,1.832,1.294h.013a1.946,1.946,0,0,0,1.828-1.318l0-.012,3.678-11.073A1.69,1.69,0,0,0,237.12,322.1Z" transform="translate(-203.692 -315.236)" fill="#ffb454"/>
        <path id="Path_1139" data-name="Path 1139" d="M262.954,322.266a1.69,1.69,0,0,0-2.136,1.071l-2.345,7.06-2.465-7.1-.007-.017v10.3l.666,1.918,0,.011A1.946,1.946,0,0,0,258.5,336.8h.013a1.946,1.946,0,0,0,1.828-1.318l0-.012,3.678-11.073A1.69,1.69,0,0,0,262.954,322.266Z" transform="translate(-229.525 -315.399)" fill="#ff7038"/>
      </g>
      <g id="Group_477" data-name="Group 477" transform="translate(10.139)">
        <g id="Group_476" data-name="Group 476" transform="translate(5.633)">
          <path id="Path_1140" data-name="Path 1140" d="M244.38,26.76a3.38,3.38,0,1,1,3.38-3.38A3.384,3.384,0,0,1,244.38,26.76Z" transform="translate(-231.987 -17.747)" fill="#ffb454"/>
          <path id="Path_1141" data-name="Path 1141" d="M165.506,9.013a4.506,4.506,0,1,1,4.506-4.506A4.511,4.511,0,0,1,165.506,9.013Z" transform="translate(-161)" fill="#ffb454"/>
          <path id="Path_1142" data-name="Path 1142" d="M319.449,96.9a1.689,1.689,0,0,1-.756-.178l-6.76-3.38A1.69,1.69,0,0,1,311,91.829v-6.76a1.69,1.69,0,0,1,.934-1.512l6.76-3.38a1.69,1.69,0,0,1,2.446,1.512V95.209a1.69,1.69,0,0,1-1.69,1.69Z" transform="translate(-294.101 -70.987)" fill="#ffb454"/>
        </g>
        <path id="Path_1143" data-name="Path 1143" d="M311,155v3.38a1.69,1.69,0,0,0,.934,1.512l6.76,3.38a1.69,1.69,0,0,0,2.446-1.512V155Z" transform="translate(-288.468 -137.538)" fill="#ff7038"/>
        <path id="Path_1144" data-name="Path 1144" d="M132.969,96.9H114.943A3.948,3.948,0,0,1,111,92.956V83.943A3.948,3.948,0,0,1,114.943,80h18.025a3.948,3.948,0,0,1,3.943,3.943v9.013A3.948,3.948,0,0,1,132.969,96.9Z" transform="translate(-111 -70.987)" fill="#ffe278"/>
        <path id="Path_1145" data-name="Path 1145" d="M111,155v4.506a3.948,3.948,0,0,0,3.943,3.943h18.025a3.948,3.948,0,0,0,3.943-3.943V155Z" transform="translate(-111 -137.538)" fill="#ffb454"/>
      </g>
    </g>
  </g>
</svg>
