<svg xmlns="http://www.w3.org/2000/svg" xmlns:xlink="http://www.w3.org/1999/xlink" width="362.487" height="184.09" viewBox="0 0 362.487 184.09">
  <defs>
    <filter id="Union_1" x="0" y="0" width="362.487" height="184.09" filterUnits="userSpaceOnUse">
      <feOffset dy="3" input="SourceAlpha"/>
      <feGaussianBlur stdDeviation="3" result="blur"/>
      <feFlood flood-opacity="0.161"/>
      <feComposite operator="in" in2="blur"/>
      <feComposite in="SourceGraphic"/>
    </filter>
  </defs>
  <g id="Component_3_4" data-name="Component 3 – 4" transform="translate(9 6)">
    <g transform="matrix(1, 0, 0, 1, -9, -6)" filter="url(#Union_1)">
      <path id="Union_1-2" data-name="Union 1" d="M8.734,157.265c-33.119-7.757,38.4-28.351,41.548-46.433s-63.97-10.481-27.435-21.993c17.769-5.6,38.464-8.715,60.739-10.3A46,46,0,0,1,78.8,58.216C78.8,26.064,113.024,0,155.244,0s76.446,26.064,76.446,58.216A46.217,46.217,0,0,1,226.208,79.9c13.64.445,26.908.762,39.533.762,77.441,0-.787,29.5,12.782,49.626s110.542,14.745,41.238,22.867c-44.6,5.226-128.552,12.931-203.362,12.931C74.955,166.091,36.32,163.726,8.734,157.265Z" transform="translate(9 6)" fill="#12699e"/>
    </g>
    <text id="مستوي_عال_من_الأمان" data-name="مستوي عال من الأمان" transform="translate(345.502 131.868)" fill="#fff" font-size="20" font-family="SegoeUI, Segoe UI"><tspan x="-89.229" y="0">مستوي عال من الأمان</tspan></text>
    <g id="shield" transform="translate(127.833 28.176)">
      <path id="Path_1116" data-name="Path 1116" d="M48.526,54.671h0a38.179,38.179,0,0,0,24.8-35.759V9.259A9.259,9.259,0,0,1,64.069,0H32.983a9.259,9.259,0,0,1-9.259,9.259v9.652a38.179,38.179,0,0,0,24.8,35.759Z" transform="translate(-23.724)" fill="#ffdb0c"/>
      <path id="Path_1117" data-name="Path 1117" d="M256,54.671h0a38.179,38.179,0,0,0,24.8-35.759V9.259A9.259,9.259,0,0,1,271.543,0H256V54.671Z" transform="translate(-231.198)" fill="#fbbf00"/>
      <path id="Path_1118" data-name="Path 1118" d="M154.862,181.8l-8.222-8.222,4.53-4.53,3.692,3.692,10.6-10.6,4.53,4.53Z" transform="translate(-133.515 -144.824)" fill="#f1f1f2"/>
      <path id="Path_1119" data-name="Path 1119" d="M256,178.344v-9.06l7.147-7.147,4.53,4.53Z" transform="translate(-231.198 -144.824)" fill="#e6e6e6"/>
    </g>
  </g>
</svg>
