<svg xmlns="http://www.w3.org/2000/svg" xmlns:xlink="http://www.w3.org/1999/xlink" width="336.909" height="171.223" viewBox="0 0 336.909 171.223">
  <defs>
    <filter id="Union_1" x="0" y="0" width="336.909" height="171.223" filterUnits="userSpaceOnUse">
      <feOffset dy="3" input="SourceAlpha"/>
      <feGaussianBlur stdDeviation="3" result="blur"/>
      <feFlood flood-opacity="0.161"/>
      <feComposite operator="in" in2="blur"/>
      <feComposite in="SourceGraphic"/>
    </filter>
  </defs>
  <g transform="matrix(1, 0, 0, 1, 0, 0)" filter="url(#Union_1)">
    <path id="Union_1-2" data-name="Union 1" d="M1981.848-629.919c-30.66-7.156,35.547-26.155,38.463-42.836s-59.22-9.669-25.4-20.289c16.45-5.165,35.608-8.04,56.229-9.5a42.312,42.312,0,0,1-4.433-18.751c0-29.661,31.685-53.706,70.769-53.706s70.77,24.045,70.77,53.706a42.517,42.517,0,0,1-5.073,20.007c12.627.41,24.91.7,36.6.7,71.692,0-.728,27.216,11.833,45.781s102.335,13.6,38.176,21.1c-41.284,4.821-119.007,11.929-188.262,11.93C2043.152-621.777,2007.386-623.959,1981.848-629.919Z" transform="translate(-1964.76 781)" fill="#12699e"/>
  </g>
</svg>
